<?xml version="1.0" standalone="no"?>
<!DOCTYPE svg PUBLIC "-//W3C//DTD SVG 1.1//EN" "http://www.w3.org/Graphics/SVG/1.1/DTD/svg11.dtd" >
<svg xmlns="http://www.w3.org/2000/svg" xmlns:xlink="http://www.w3.org/1999/xlink" version="1.1">
<metadata>
Created by FontForge 20190801 at Tue Jun 13 15:31:13 2023
 By www-data
Copyright 2015 The Rubik Project Authors (https://github.com/googlefonts/rubik)
</metadata>
<defs>
<font id="RubikLight" horiz-adv-x="0" >
  <font-face 
    font-family="RubikLight"
    font-weight="300"
    font-stretch="normal"
    units-per-em="1000"
    panose-1="0 0 0 0 0 0 0 0 0 0"
    ascent="800"
    descent="-200"
    x-height="520"
    cap-height="700"
    bbox="-191 -462.762 1595 1066"
    underline-thickness="50"
    underline-position="-75"
    unicode-range="U+0020-FD3F"
  />
<missing-glyph horiz-adv-x="695" 
d="M102 -117q-22 0 -22 22v891q0 22 22 22h491q22 0 22 -22v-891q0 -22 -22 -22h-491zM181 -59h373v762zM141 -9l377 769h-377v-769z" />
    <glyph glyph-name="fi" unicode="fi" horiz-adv-x="495" 
d="M152 0q-10 0 -16 6t-6 16v440h-89q-10 0 -16 6t-6 16v14q0 10 6 16t16 6h89v57q0 45 12.5 82t45 59t93.5 22h111q10 0 16 -6t6 -16v-14q0 -10 -6 -16t-16 -6h-111q-53 0 -71.5 -28.5t-18.5 -81.5v-52h201q10 0 16 -6t6 -16v-476q0 -10 -6 -16t-16 -6h-17q-10 0 -16 6
t-6 16v440h-162v-440q0 -10 -6 -16t-16 -6h-17z" />
    <glyph glyph-name="fl" unicode="fl" horiz-adv-x="555" 
d="M152 0q-10 0 -16 6t-6 16v440h-89q-10 0 -16 6t-6 16v14q0 10 6 16t16 6h89v57q0 45 12.5 82t45 59t93.5 22h52q10 0 16 -6t6 -16v-14q0 -10 -6 -16t-16 -6h-52q-53 0 -71.5 -28.5t-18.5 -81.5v-52h221v198q0 10 6 16t16 6h17q10 0 16 -6t6 -16v-696q0 -10 -6 -16t-16 -6
h-17q-10 0 -16 6t-6 16v440h-221v-440q0 -10 -6 -16t-16 -6h-17z" />
    <glyph glyph-name="f_f" unicode="ff" horiz-adv-x="642" 
d="M152 0q-10 0 -16 6t-6 16v440h-89q-10 0 -16 6t-6 16v14q0 10 6 16t16 6h89v57q0 45 12.5 82t45 59t93.5 22h52q10 0 16 -6t6 -16v-14q0 -10 -6 -16t-16 -6h-52q-53 0 -71.5 -28.5t-18.5 -81.5v-52h221v57q0 45 12.5 82t45 59t93.5 22h52q10 0 16 -6t6 -16v-14
q0 -10 -6 -16t-16 -6h-52q-53 0 -71.5 -28.5t-18.5 -81.5v-52h132q10 0 16 -6t6 -16v-14q0 -10 -6 -16t-16 -6h-132v-440q0 -10 -6 -16t-16 -6h-17q-10 0 -16 6t-6 16v440h-221v-440q0 -10 -6 -16t-16 -6h-17z" />
    <glyph glyph-name="f_f_i" unicode="ffi" horiz-adv-x="777" 
d="M152 0q-10 0 -16 6t-6 16v440h-89q-10 0 -16 6t-6 16v14q0 10 6 16t16 6h89v57q0 45 12.5 82t45 59t93.5 22h52q10 0 16 -6t6 -16v-14q0 -10 -6 -16t-16 -6h-52q-53 0 -71.5 -28.5t-18.5 -81.5v-52h221v57q0 45 12.5 82t45 59t93.5 22h111q10 0 16 -6t6 -16v-14
q0 -10 -6 -16t-16 -6h-111q-53 0 -71.5 -28.5t-18.5 -81.5v-52h201q10 0 16 -6t6 -16v-476q0 -10 -6 -16t-16 -6h-17q-10 0 -16 6t-6 16v440h-162v-440q0 -10 -6 -16t-16 -6h-17q-10 0 -16 6t-6 16v440h-221v-440q0 -10 -6 -16t-16 -6h-17z" />
    <glyph glyph-name="f_f_l" unicode="ffl" horiz-adv-x="837" 
d="M152 0q-10 0 -16 6t-6 16v440h-89q-10 0 -16 6t-6 16v14q0 10 6 16t16 6h89v57q0 45 12.5 82t45 59t93.5 22h52q10 0 16 -6t6 -16v-14q0 -10 -6 -16t-16 -6h-52q-53 0 -71.5 -28.5t-18.5 -81.5v-52h221v57q0 45 12.5 82t45 59t93.5 22h52q10 0 16 -6t6 -16v-14
q0 -10 -6 -16t-16 -6h-52q-53 0 -71.5 -28.5t-18.5 -81.5v-52h221v198q0 10 6 16t16 6h17q10 0 16 -6t6 -16v-696q0 -10 -6 -16t-16 -6h-17q-10 0 -16 6t-6 16v440h-221v-440q0 -10 -6 -16t-16 -6h-17q-10 0 -16 6t-6 16v440h-221v-440q0 -10 -6 -16t-16 -6h-17z" />
    <glyph glyph-name="uniFE82" unicode="&#x622;" horiz-adv-x="295" arabic-form="final" 
d="M290 0h-6q-57 0 -97 18t-61 65t-21 132v412q0 11 8 17t18 6h14q10 0 15 -6.5t5 -16.5v-432q0 -53 13.5 -81t43 -38.5t77.5 -10.5h6q15 0 15 -15v-20q0 -30 -30 -30zM23 677q-7 0 -12.5 6t-5.5 17v12q0 33 16 51t50 18q8 0 16.5 -1t17.5 -3l79 -15q7 -1 13.5 -2t13.5 -1
q10 0 14.5 5t4.5 16v12q0 23 18 23h9q8 0 13 -6t5 -17v-15q0 -35 -17.5 -53t-54.5 -18q-9 0 -18.5 1t-20.5 3l-72 14q-6 2 -11 2.5t-12 0.5q-17 0 -17 -18v-9q0 -23 -18 -23h-11z" />
    <glyph glyph-name="uniFE84" unicode="&#x623;" horiz-adv-x="270" arabic-form="final" 
d="M286 0q-56 1 -96.5 18.5t-62.5 64t-22 132.5v379q0 6 2 9t6 4l37 11q15 5 15 -11v-392q0 -61 14.5 -93.5t44.5 -44t77 -12.5h4q15 0 15 -15v-20q0 -30 -30 -30h-4zM56 655q-9 -2 -13 1.5t-4 11.5v13q0 13 4 17t14 7l31 9q-10 8 -17 21t-7 29q0 38 27 62t67 24
q13 0 25 -2.5t19 -6.5q12 -7 12 -17v-20q0 -13 -11 -8t-23.5 7.5t-24.5 2.5q-20 0 -33 -9.5t-13 -25.5q0 -22 22 -32t59 -1l33 8q11 3 15 -0.5t4 -12.5v-15q0 -14 -13 -18z" />
    <glyph glyph-name="uniFE86" unicode="&#x624;" horiz-adv-x="488" arabic-form="final" 
d="M61 -245q-10 0 -15.5 5.5t-5.5 15.5v27q0 8 5.5 12.5t15.5 4.5h41q110 0 172.5 46t76.5 136h-66q-59 0 -102 17t-66 50.5t-23 82.5q0 32 10.5 59.5t30.5 49t49 33.5t65 12q85 0 122 -59.5t38 -181.5h89q15 0 15 -15v-20q0 -30 -30 -30h-77q-26 -133 -103 -189t-207 -56
h-35zM287 65h72q0 86 -26.5 133.5t-88.5 47.5q-36 0 -58 -14.5t-31.5 -35.5t-9.5 -42q0 -45 36.5 -67t105.5 -22zM155 386q-9 -2 -13 1.5t-4 11.5v13q0 13 4 17t14 7l31 9q-10 8 -17 21t-7 29q0 38 27 62t67 24q13 0 25 -2.5t19 -6.5q12 -7 12 -17v-20q0 -13 -11 -8
t-23.5 7.5t-24.5 2.5q-20 0 -33 -9.5t-13 -25.5q0 -22 22 -32t59 -1l33 8q11 3 15 -0.5t4 -12.5v-15q0 -14 -13 -18z" />
    <glyph glyph-name="uniFE88" unicode="&#x625;" horiz-adv-x="260" arabic-form="final" 
d="M280 0h-3q-53 0 -91.5 17.5t-59.5 62t-21 125.5v520q0 11 6 18t20 7h11q13 0 18 -6.5t5 -16.5v-522q0 -61 13 -91t41 -39.5t71 -9.5h5q15 0 15 -15v-20q0 -30 -30 -30zM102 -238q-8 -2 -11.5 1.5t-3.5 10.5v13q0 11 3 15t13 7l50 14v-14q-14 0 -28.5 16t-14.5 38
q0 36 25 58t62 22q11 0 22 -2.5t18 -5.5q12 -7 12 -16v-19q0 -12 -11 -7q-21 9 -44 9q-19 0 -31 -9t-12 -23q0 -21 20.5 -30.5t54.5 -0.5l31 8q11 3 14 -0.5t3 -11.5v-14q0 -13 -12 -17z" />
    <glyph glyph-name="uniFE8B" unicode="&#x626;" horiz-adv-x="292" arabic-form="initial" 
d="M-2 0q-10 0 -14 6.5t-4 13.5v25q0 14 8 17t22 3h14q54 0 76 28.5t22 85.5q0 20 -1.5 37t-6.5 36l-18 75q-2 9 2 14t13 7l20 5q18 4 22 -15l18 -81q5 -19 7.5 -45.5t2.5 -37.5q0 -78 -36.5 -126t-107.5 -48h-39zM26 406q-9 -2 -13 1.5t-4 11.5v13q0 13 4 17t14 7l31 9
q-10 8 -17 21t-7 29q0 38 27 62t67 24q13 0 25 -2.5t19 -6.5q12 -7 12 -17v-20q0 -13 -11 -8t-23.5 7.5t-24.5 2.5q-20 0 -33 -9.5t-13 -25.5q0 -22 22 -32t59 -1l33 8q11 3 15 -0.5t4 -12.5v-15q0 -14 -13 -18z" />
    <glyph glyph-name="uniFE8C" unicode="&#x626;" horiz-adv-x="320" arabic-form="medial" 
d="M-5 0q-15 0 -15 16v19q0 30 30 30h15q49 0 77 24t28 93v103q0 20 20 20h20q20 0 20 -20v-103q0 -70 31.5 -93.5t87.5 -23.5h21q15 0 15 -15v-20q0 -30 -30 -30q-49 0 -92 18t-70 69q-22 -51 -65.5 -69t-92.5 -18zM74 373q-9 -2 -13 1.5t-4 11.5v13q0 13 4 17t14 7l31 9
q-10 8 -17 21t-7 29q0 38 27 62t67 24q13 0 25 -2.5t19 -6.5q12 -7 12 -17v-20q0 -13 -11 -8t-23.5 7.5t-24.5 2.5q-20 0 -33 -9.5t-13 -25.5q0 -22 22 -32t59 -1l33 8q11 3 15 -0.5t4 -12.5v-15q0 -14 -13 -18z" />
    <glyph glyph-name="uniFE8A" unicode="&#x626;" horiz-adv-x="656" arabic-form="final" 
d="M126 268q-7 -2 -11 1t-4 10v11q0 11 3.5 14.5t12.5 6.5l27 8q-8 7 -14.5 18.5t-6.5 24.5q0 34 24 54.5t58 20.5q11 0 21 -2t17 -6q11 -5 11 -14v-18q0 -10 -10 -7q-10 5 -20.5 7t-21.5 2q-17 0 -28.5 -8t-11.5 -22q0 -20 19.5 -28.5t51.5 -0.5l28 7q11 2 14 -1t3 -11v-13
q0 -12 -11 -15zM339 -226q-70 0 -122.5 17.5t-87 49.5t-51.5 75t-17 94q0 39 15 86t51 98q5 8 12 8.5t14 -3.5l17 -11q7 -4 9 -11t-5 -17q-27 -40 -39 -72.5t-12 -73.5q0 -49 22 -89t69.5 -63t124.5 -23h94q74 0 122.5 22t48.5 71q0 31 -19 49.5t-50 18.5h-47q-20 0 -20 21
v22q0 22 20 22h179q14 0 14 -15v-24q0 -26 -28 -26h-35l-64 52q52 -21 78.5 -50t26.5 -70q0 -24 -10.5 -51t-36 -51.5t-69.5 -40t-111 -15.5h-93z" />
    <glyph glyph-name="uniFE8E" unicode="&#x627;" horiz-adv-x="285" arabic-form="final" 
d="M280 0h-3q-53 0 -91.5 17.5t-59.5 62t-21 125.5v520q0 11 6 18t20 7h11q13 0 18 -6.5t5 -16.5v-522q0 -61 13 -91t41 -39.5t71 -9.5h5q15 0 15 -15v-20q0 -30 -30 -30z" />
    <glyph glyph-name="uniFE91" unicode="&#x628;" horiz-adv-x="261" arabic-form="initial" 
d="M-2 0q-10 0 -14 6.5t-4 13.5v25q0 14 8 17t22 3h14q54 0 76 28.5t22 85.5q0 20 -1.5 37t-6.5 36l-18 75q-2 9 2 14t13 7l20 5q18 4 22 -15l18 -81q5 -19 7.5 -45.5t2.5 -37.5q0 -78 -36.5 -126t-107.5 -48h-39zM86 -170q-4 -4 -10 -3.5t-11 4.5l-32 32q-4 4 -4 10.5
t4 10.5l32 32q5 5 10.5 5t9.5 -5l32 -32q5 -4 5.5 -10.5t-4.5 -11.5z" />
    <glyph glyph-name="uniFE92" unicode="&#x628;" horiz-adv-x="320" arabic-form="medial" 
d="M-5 0q-15 0 -15 16v19q0 30 30 30h15q49 0 77 24t28 93v103q0 20 20 20h20q20 0 20 -20v-103q0 -70 31.5 -93.5t87.5 -23.5h21q15 0 15 -15v-20q0 -30 -30 -30q-49 0 -92 18t-70 69q-22 -51 -65.5 -69t-92.5 -18zM170 -169q-4 -4 -10 -3.5t-11 4.5l-32 32q-4 4 -4 10.5
t4 10.5l32 32q5 5 10.5 5t9.5 -5l32 -32q5 -4 5.5 -10.5t-4.5 -11.5z" />
    <glyph glyph-name="uniFE90" unicode="&#x628;" horiz-adv-x="953" arabic-form="final" 
d="M341 0q-97 0 -156.5 22t-87 65t-27.5 105q0 57 35 136q3 8 8 10.5t16 -2.5l21 -8q7 -2 9.5 -6.5t-1.5 -15.5q-10 -27 -19 -56t-9 -61q0 -70 57.5 -97t153.5 -27h227q104 0 149.5 30.5t45.5 110.5v79q0 20 20 20h20q20 0 20 -20v-79q0 -56 12.5 -86.5t38 -42.5t64.5 -12
h25q15 0 15 -15v-20q0 -30 -30 -30q-61 0 -100.5 22.5t-61.5 77.5q-15 -37 -45 -59t-74.5 -31.5t-103.5 -9.5h-222zM460 -170q-4 -4 -10 -3.5t-11 4.5l-32 32q-4 4 -4 10.5t4 10.5l32 32q5 5 10.5 5t9.5 -5l32 -32q5 -4 5.5 -10.5t-4.5 -11.5z" />
    <glyph glyph-name="uniFE94" unicode="&#x629;" horiz-adv-x="508" arabic-form="final" 
d="M468 0q-67 0 -101 32t-39 109q-25 -34 -62.5 -52t-75.5 -18q-63 0 -99 35t-36 92q0 35 15.5 65.5t50 57t90.5 48.5l112 44v43q0 9 7.5 15t15.5 6h16q9 0 15 -6.5t6 -14.5v-296q0 -58 19.5 -76.5t68.5 -18.5h49q6 0 9.5 -6t3.5 -12v-23q0 -24 -28 -24h-37zM202 133
q38 0 65 17t41.5 43.5t14.5 52.5v106l-94 -34q-58 -21 -86 -49t-28 -63t24 -54t63 -19zM291 561q-4 -4 -10 -4t-11 5l-31 32q-4 5 -4 10.5t4 10.5l31 32q5 5 11 5t10 -5l32 -32q5 -4 5.5 -10.5t-4.5 -11.5zM438 561q-4 -5 -10 -4t-11 5l-33 32q-4 4 -4 10.5t4 10.5l33 32
q5 5 10 5t10 -5l32 -32q5 -4 5 -10.5t-5 -11.5z" />
    <glyph glyph-name="uniFE97" unicode="&#x62a;" horiz-adv-x="261" arabic-form="initial" 
d="M-2 0q-10 0 -14 6.5t-4 13.5v25q0 14 8 17t22 3h14q54 0 76 28.5t22 85.5q0 20 -1.5 37t-6.5 36l-18 75q-2 9 2 14t13 7l20 5q18 4 22 -15l18 -81q5 -19 7.5 -45.5t2.5 -37.5q0 -78 -36.5 -126t-107.5 -48h-39zM47 442q-4 -4 -10 -4t-11 5l-31 32q-4 5 -4 10.5t4 10.5
l31 32q5 5 11 5t10 -5l32 -32q5 -4 5.5 -10.5t-4.5 -11.5zM194 442q-4 -5 -10 -4t-11 5l-33 32q-4 4 -4 10.5t4 10.5l33 32q5 5 10 5t10 -5l32 -32q5 -4 5 -10.5t-5 -11.5z" />
    <glyph glyph-name="uniFE98" unicode="&#x62a;" horiz-adv-x="320" arabic-form="medial" 
d="M-5 0q-15 0 -15 16v19q0 30 30 30h15q49 0 77 24t28 93v103q0 20 20 20h20q20 0 20 -20v-103q0 -70 31.5 -93.5t87.5 -23.5h21q15 0 15 -15v-20q0 -30 -30 -30q-49 0 -92 18t-70 69q-22 -51 -65.5 -69t-92.5 -18zM95 409q-4 -4 -10 -4t-11 5l-31 32q-4 5 -4 10.5t4 10.5
l31 32q5 5 11 5t10 -5l32 -32q5 -4 5.5 -10.5t-4.5 -11.5zM242 409q-4 -5 -10 -4t-11 5l-33 32q-4 4 -4 10.5t4 10.5l33 32q5 5 10 5t10 -5l32 -32q5 -4 5 -10.5t-5 -11.5z" />
    <glyph glyph-name="uniFE96" unicode="&#x62a;" horiz-adv-x="953" arabic-form="final" 
d="M341 0q-97 0 -156.5 22t-87 65t-27.5 105q0 57 35 136q3 8 8 10.5t16 -2.5l21 -8q7 -2 9.5 -6.5t-1.5 -15.5q-10 -27 -19 -56t-9 -61q0 -70 57.5 -97t153.5 -27h227q104 0 149.5 30.5t45.5 110.5v79q0 20 20 20h20q20 0 20 -20v-79q0 -56 12.5 -86.5t38 -42.5t64.5 -12
h25q15 0 15 -15v-20q0 -30 -30 -30q-61 0 -100.5 22.5t-61.5 77.5q-15 -37 -45 -59t-74.5 -31.5t-103.5 -9.5h-222zM401 378q-4 -4 -10 -4t-11 5l-31 32q-4 5 -4 10.5t4 10.5l31 32q5 5 11 5t10 -5l32 -32q5 -4 5.5 -10.5t-4.5 -11.5zM548 378q-4 -5 -10 -4t-11 5l-33 32
q-4 4 -4 10.5t4 10.5l33 32q5 5 10 5t10 -5l32 -32q5 -4 5 -10.5t-5 -11.5z" />
    <glyph glyph-name="uniFE9B" unicode="&#x62b;" horiz-adv-x="261" arabic-form="initial" 
d="M-2 0q-10 0 -14 6.5t-4 13.5v25q0 14 8 17t22 3h14q54 0 76 28.5t22 85.5q0 20 -1.5 37t-6.5 36l-18 75q-2 9 2 14t13 7l20 5q18 4 22 -15l18 -81q5 -19 7.5 -45.5t2.5 -37.5q0 -78 -36.5 -126t-107.5 -48h-39zM119 574q-4 -4 -9 -3.5t-10 4.5l-30 30q-9 10 0 19l30 30
q9 9 18 0l30 -30q11 -10 1 -20zM47 448q-4 -4 -10 -4t-11 5l-31 32q-4 5 -4 10.5t4 10.5l31 32q10 11 21 0l32 -32q5 -4 5.5 -10.5t-4.5 -11.5zM194 448q-4 -5 -10 -4t-11 5l-33 32q-4 4 -4 10.5t4 10.5l33 32q10 10 20 0l32 -32q5 -4 5 -10.5t-5 -11.5z" />
    <glyph glyph-name="uniFE9C" unicode="&#x62b;" horiz-adv-x="320" arabic-form="medial" 
d="M-5 0q-15 0 -15 16v19q0 30 30 30h15q49 0 77 24t28 93v103q0 20 20 20h20q20 0 20 -20v-103q0 -70 31.5 -93.5t87.5 -23.5h21q15 0 15 -15v-20q0 -30 -30 -30q-49 0 -92 18t-70 69q-22 -51 -65.5 -69t-92.5 -18zM167 541q-4 -4 -9 -3.5t-10 4.5l-30 30q-9 10 0 19l30 30
q9 9 18 0l30 -30q11 -10 1 -20zM95 415q-4 -4 -10 -4t-11 5l-31 32q-4 5 -4 10.5t4 10.5l31 32q10 11 21 0l32 -32q5 -4 5.5 -10.5t-4.5 -11.5zM242 415q-4 -5 -10 -4t-11 5l-33 32q-4 4 -4 10.5t4 10.5l33 32q10 10 20 0l32 -32q5 -4 5 -10.5t-5 -11.5z" />
    <glyph glyph-name="uniFE9A" unicode="&#x62b;" horiz-adv-x="943" arabic-form="final" 
d="M341 0q-97 0 -156.5 22t-87 65t-27.5 105q0 57 35 136q3 8 8 10.5t16 -2.5l21 -8q7 -2 9.5 -6.5t-1.5 -15.5q-10 -27 -19 -56t-9 -61q0 -70 57.5 -97t153.5 -27h227q104 0 149.5 30.5t45.5 110.5v79q0 20 20 20h20q20 0 20 -20v-79q0 -56 12.5 -86.5t38 -42.5t64.5 -12
h25q15 0 15 -15v-20q0 -30 -30 -30q-61 0 -100.5 22.5t-61.5 77.5q-15 -37 -45 -59t-74.5 -31.5t-103.5 -9.5h-222zM473 510q-4 -4 -9 -3.5t-10 4.5l-30 30q-9 10 0 19l30 30q9 9 18 0l30 -30q11 -10 1 -20zM401 384q-4 -4 -10 -4t-11 5l-31 32q-4 5 -4 10.5t4 10.5l31 32
q10 11 21 0l32 -32q5 -4 5.5 -10.5t-4.5 -11.5zM548 384q-4 -5 -10 -4t-11 5l-33 32q-4 4 -4 10.5t4 10.5l33 32q10 10 20 0l32 -32q5 -4 5 -10.5t-5 -11.5z" />
    <glyph glyph-name="uniFE9F" unicode="&#x62c;" horiz-adv-x="684" arabic-form="initial" 
d="M-5 0q-15 0 -15 15v20q0 30 30 30h112q59 0 108 8.5t92.5 25.5t87.5 42l103 59l68 -21l-153 -88q-31 -18 -60.5 -34t-64.5 -29t-80.5 -20.5t-107.5 -7.5h-120zM566 176v3q-55 0 -96 10.5t-73 26t-60 31.5t-57 26.5t-65 10.5q-37 0 -54 -13.5t-27 -30.5q-4 -8 -9 -12.5
t-17 -4.5h-12q-21 0 -21 20q0 18 13.5 41.5t45.5 41.5t85 18q40 0 73 -10.5t63 -26t60.5 -31.5t65.5 -26.5t79 -10.5h52q14 0 18 -5.5t4 -19.5v-16q0 -10 -6 -16t-17 -6h-45zM470 -119q-4 -4 -10 -3.5t-11 4.5l-32 32q-4 4 -4 10.5t4 10.5l32 32q5 5 10.5 5t9.5 -5l32 -32
q5 -4 5.5 -10.5t-4.5 -11.5z" />
    <glyph glyph-name="uniFEA0" unicode="&#x62c;" horiz-adv-x="728" arabic-form="medial" 
d="M-5 0q-15 0 -15 15v20q0 30 30 30h112q89 0 155.5 19t132.5 57l103 59l68 -21l-153 -88q-41 -23 -81.5 -44t-94.5 -34t-137 -13h-120zM687 0q-49 0 -91.5 13.5t-68.5 49.5t-27 103l38 29q0 -47 12 -73.5t33 -38.5t49 -15t60 -3h46q9 0 12 -6.5t3 -13.5v-20
q0 -14 -8 -19.5t-22 -5.5h-36zM580 176l-14 3q-55 0 -96 10.5t-73 26t-60 31.5t-57 26.5t-65 10.5q-37 0 -54 -13.5t-27 -30.5q-4 -8 -9 -12.5t-17 -4.5h-12q-21 0 -21 20q0 13 7.5 30t24.5 33.5t44.5 27t67.5 10.5t73 -10.5t63 -26t60.5 -31.5t65.5 -26.5t79 -10.5h52
q14 0 18 -5.5t4 -19.5v-16q0 -10 -6 -16t-17 -6h-31zM441 -119q-4 -4 -10 -3.5t-11 4.5l-32 32q-4 4 -4 10.5t4 10.5l32 32q5 5 10.5 5t9.5 -5l32 -32q5 -4 5.5 -10.5t-4.5 -11.5z" />
    <glyph glyph-name="uniFE9E" unicode="&#x62c;" horiz-adv-x="690" arabic-form="final" 
d="M356 -360q-70 0 -123.5 17t-90.5 49.5t-55.5 80.5t-17.5 110q1 60 35.5 119.5t96 111t142.5 86.5t174 46l21 -41q-123 -25 -203 -65.5t-126 -87.5t-65 -92t-19 -80q0 -56 21.5 -99.5t74 -67.5t143.5 -24h151q23 0 23 -23v-17q0 -23 -23 -23h-159zM580 0q-51 0 -89 16.5
t-62 58t-33 117.5l42 5q7 -47 22 -76.5t44 -42.5t78 -13h114q7 0 12.5 -4t5.5 -11l1 -21q2 -29 -27 -29h-108zM515 216v10q-48 -1 -83 8.5t-62 24t-51.5 29.5t-51.5 25.5t-62 10.5q-37 0 -54 -13.5t-27 -30.5q-4 -8 -9 -12.5t-17 -4.5h-12q-21 0 -21 20q0 13 7.5 30
t24.5 33.5t44.5 27t67.5 10.5q39 0 71 -10.5t61 -26t58.5 -31.5t63.5 -26.5t77 -10.5h29q14 0 18 -5.5t4 -19.5v-16q0 -10 -6 -16t-17 -6h-53zM365 -126q-4 -4 -10 -3.5t-11 4.5l-32 32q-4 5 -4 11t4 10l32 32q5 5 10.5 5t9.5 -5l32 -32q5 -5 5.5 -11t-4.5 -11z" />
    <glyph glyph-name="uniFEA3" unicode="&#x62d;" horiz-adv-x="684" arabic-form="initial" 
d="M-5 0q-15 0 -15 15v20q0 30 30 30h112q59 0 108 8.5t92.5 25.5t87.5 42l103 59l68 -21l-153 -88q-31 -18 -60.5 -34t-64.5 -29t-80.5 -20.5t-107.5 -7.5h-120zM566 176v3q-55 0 -96 10.5t-73 26t-60 31.5t-57 26.5t-65 10.5q-37 0 -54 -13.5t-27 -30.5q-4 -8 -9 -12.5
t-17 -4.5h-12q-21 0 -21 20q0 18 13.5 41.5t45.5 41.5t85 18q40 0 73 -10.5t63 -26t60.5 -31.5t65.5 -26.5t79 -10.5h52q14 0 18 -5.5t4 -19.5v-16q0 -10 -6 -16t-17 -6h-45z" />
    <glyph glyph-name="uniFEA4" unicode="&#x62d;" horiz-adv-x="728" arabic-form="medial" 
d="M-5 0q-15 0 -15 15v20q0 30 30 30h112q89 0 155.5 19t132.5 57l103 59l68 -21l-153 -88q-41 -23 -81.5 -44t-94.5 -34t-137 -13h-120zM687 0q-49 0 -91.5 13.5t-68.5 49.5t-27 103l38 29q0 -47 12 -73.5t33 -38.5t49 -15t60 -3h46q9 0 12 -6.5t3 -13.5v-20
q0 -14 -8 -19.5t-22 -5.5h-36zM580 176l-14 3q-55 0 -96 10.5t-73 26t-60 31.5t-57 26.5t-65 10.5q-37 0 -54 -13.5t-27 -30.5q-4 -8 -9 -12.5t-17 -4.5h-12q-21 0 -21 20q0 13 7.5 30t24.5 33.5t44.5 27t67.5 10.5t73 -10.5t63 -26t60.5 -31.5t65.5 -26.5t79 -10.5h52
q14 0 18 -5.5t4 -19.5v-16q0 -10 -6 -16t-17 -6h-31z" />
    <glyph glyph-name="uniFEA2" unicode="&#x62d;" horiz-adv-x="690" arabic-form="final" 
d="M356 -360q-70 0 -123.5 17t-90.5 49.5t-55.5 80.5t-17.5 110q1 60 35.5 119.5t96 111t142.5 86.5t174 46l21 -41q-123 -25 -203 -65.5t-126 -87.5t-65 -92t-19 -80q0 -56 21.5 -99.5t74 -67.5t143.5 -24h151q23 0 23 -23v-17q0 -23 -23 -23h-159zM580 0q-51 0 -89 16.5
t-62 58t-33 117.5l42 5q7 -47 22 -76.5t44 -42.5t78 -13h114q7 0 12.5 -4t5.5 -11l1 -21q2 -29 -27 -29h-108zM515 216v10q-48 -1 -83 8.5t-62 24t-51.5 29.5t-51.5 25.5t-62 10.5q-37 0 -54 -13.5t-27 -30.5q-4 -8 -9 -12.5t-17 -4.5h-12q-21 0 -21 20q0 13 7.5 30
t24.5 33.5t44.5 27t67.5 10.5q39 0 71 -10.5t61 -26t58.5 -31.5t63.5 -26.5t77 -10.5h29q14 0 18 -5.5t4 -19.5v-16q0 -10 -6 -16t-17 -6h-53z" />
    <glyph glyph-name="uniFEA7" unicode="&#x62e;" horiz-adv-x="684" arabic-form="initial" 
d="M-5 0q-15 0 -15 15v20q0 30 30 30h112q59 0 108 8.5t92.5 25.5t87.5 42l103 59l68 -21l-153 -88q-31 -18 -60.5 -34t-64.5 -29t-80.5 -20.5t-107.5 -7.5h-120zM566 176v3q-55 0 -96 10.5t-73 26t-60 31.5t-57 26.5t-65 10.5q-37 0 -54 -13.5t-27 -30.5q-4 -8 -9 -12.5
t-17 -4.5h-12q-21 0 -21 20q0 18 13.5 41.5t45.5 41.5t85 18q40 0 73 -10.5t63 -26t60.5 -31.5t65.5 -26.5t79 -10.5h52q14 0 18 -5.5t4 -19.5v-16q0 -10 -6 -16t-17 -6h-45zM259 460q-4 -4 -10 -3.5t-11 4.5l-32 32q-4 5 -4 11t4 10l32 32q5 5 10.5 5t9.5 -5l32 -32
q12 -11 1 -22z" />
    <glyph glyph-name="uniFEA8" unicode="&#x62e;" horiz-adv-x="728" arabic-form="medial" 
d="M-5 0q-15 0 -15 15v20q0 30 30 30h112q89 0 155.5 19t132.5 57l103 59l68 -21l-153 -88q-41 -23 -81.5 -44t-94.5 -34t-137 -13h-120zM687 0q-49 0 -91.5 13.5t-68.5 49.5t-27 103l38 29q0 -47 12 -73.5t33 -38.5t49 -15t60 -3h46q9 0 12 -6.5t3 -13.5v-20
q0 -14 -8 -19.5t-22 -5.5h-36zM580 176l-14 3q-55 0 -96 10.5t-73 26t-60 31.5t-57 26.5t-65 10.5q-37 0 -54 -13.5t-27 -30.5q-4 -8 -9 -12.5t-17 -4.5h-12q-21 0 -21 20q0 13 7.5 30t24.5 33.5t44.5 27t67.5 10.5t73 -10.5t63 -26t60.5 -31.5t65.5 -26.5t79 -10.5h52
q14 0 18 -5.5t4 -19.5v-16q0 -10 -6 -16t-17 -6h-31zM259 460q-4 -4 -10 -3.5t-11 4.5l-32 32q-4 5 -4 11t4 10l32 32q5 5 10.5 5t9.5 -5l32 -32q12 -11 1 -22z" />
    <glyph glyph-name="uniFEA6" unicode="&#x62e;" horiz-adv-x="690" arabic-form="final" 
d="M356 -360q-70 0 -123.5 17t-90.5 49.5t-55.5 80.5t-17.5 110q1 60 35.5 119.5t96 111t142.5 86.5t174 46l21 -41q-123 -25 -203 -65.5t-126 -87.5t-65 -92t-19 -80q0 -56 21.5 -99.5t74 -67.5t143.5 -24h151q23 0 23 -23v-17q0 -23 -23 -23h-159zM580 0q-51 0 -89 16.5
t-62 58t-33 117.5l42 5q7 -47 22 -76.5t44 -42.5t78 -13h114q7 0 12.5 -4t5.5 -11l1 -21q2 -29 -27 -29h-108zM515 216v10q-48 -1 -83 8.5t-62 24t-51.5 29.5t-51.5 25.5t-62 10.5q-37 0 -54 -13.5t-27 -30.5q-4 -8 -9 -12.5t-17 -4.5h-12q-21 0 -21 20q0 13 7.5 30
t24.5 33.5t44.5 27t67.5 10.5q39 0 71 -10.5t61 -26t58.5 -31.5t63.5 -26.5t77 -10.5h29q14 0 18 -5.5t4 -19.5v-16q0 -10 -6 -16t-17 -6h-53zM249 500q-4 -4 -10 -3.5t-11 4.5l-32 32q-4 5 -4 11t4 10l32 32q5 5 10.5 5t9.5 -5l32 -32q12 -11 1 -22z" />
    <glyph glyph-name="uniFEAA" unicode="&#x62f;" horiz-adv-x="590" arabic-form="final" 
d="M182 0q-53 0 -82.5 31.5t-29.5 83.5v33q0 10 5 16.5t15 6.5h20q10 0 15 -6.5t5 -16.5v-33q0 -21 12 -35.5t40 -14.5h99q65 0 98 17.5t33 64.5q0 14 -4 30.5t-12 37.5l-72 198q-4 10 -2.5 17.5t9.5 11.5l19 8q12 5 19 3t11 -12l91 -252q19 -52 36 -78.5t39 -36t54 -9.5
q15 0 15 -15v-20q0 -30 -30 -30q-34 0 -71.5 19.5t-66.5 74.5q-13 -43 -56.5 -68.5t-110.5 -25.5h-98z" />
    <glyph glyph-name="uniFEAC" unicode="&#x630;" horiz-adv-x="590" arabic-form="final" 
d="M182 0q-53 0 -82.5 31.5t-29.5 83.5v33q0 10 5 16.5t15 6.5h20q10 0 15 -6.5t5 -16.5v-33q0 -21 12 -35.5t40 -14.5h99q65 0 98 17.5t33 64.5q0 14 -4 30.5t-12 37.5l-72 198q-4 10 -2.5 17.5t9.5 11.5l19 8q12 5 19 3t11 -12l91 -252q19 -52 36 -78.5t39 -36t54 -9.5
q15 0 15 -15v-20q0 -30 -30 -30q-34 0 -71.5 19.5t-66.5 74.5q-13 -43 -56.5 -68.5t-110.5 -25.5h-98zM356 542q-4 -4 -10 -3.5t-11 4.5l-32 32q-4 5 -4 11t4 10l32 32q5 5 10.5 5t9.5 -5l32 -32q12 -11 1 -22z" />
    <glyph glyph-name="uniFEAE" unicode="&#x631;" horiz-adv-x="400" arabic-form="final" 
d="M-30 -245q-10 0 -15 5.5t-5 16.5v23q0 10 5.5 15t16.5 5h38q103 0 151.5 60.5t48.5 163.5q0 33 -5.5 69.5t-15.5 76.5l-16 64q-2 9 0.5 16t13.5 10l19 5q9 2 13.5 1t7.5 -4.5t4 -9.5l29 -117q9 -35 30 -55t47 -27.5t50 -7.5h20q18 0 18 -15v-20q0 -30 -30 -30
q-47 0 -83 11t-49 26q-1 -50 -12.5 -100t-39.5 -91t-77 -66t-124 -25h-40z" />
    <glyph glyph-name="uniFEB0" unicode="&#x632;" horiz-adv-x="400" arabic-form="final" 
d="M-30 -245q-10 0 -15 5.5t-5 16.5v23q0 10 5.5 15t16.5 5h38q103 0 151.5 60.5t48.5 163.5q0 33 -5.5 69.5t-15.5 76.5l-16 64q-2 9 0.5 16t13.5 10l19 5q9 2 13.5 1t7.5 -4.5t4 -9.5l29 -117q9 -35 30 -55t47 -27.5t50 -7.5h20q18 0 18 -15v-20q0 -30 -30 -30
q-47 0 -83 11t-49 26q-1 -50 -12.5 -100t-39.5 -91t-77 -66t-124 -25h-40zM167 379q-4 -4 -10 -3.5t-11 4.5l-32 32q-4 5 -4 11t4 10l32 32q5 5 10.5 5t9.5 -5l32 -32q12 -11 1 -22z" />
    <glyph glyph-name="uniFEB3" unicode="&#x633;" horiz-adv-x="822" arabic-form="initial" 
d="M313 -5q-51 0 -94.5 19t-62.5 73q-17 -51 -60 -69t-101 -18q-15 0 -15 16v19q0 30 30 30q69 0 99.5 23.5t30.5 83.5v83q0 10 5 15t15 5h20q20 0 20 -20v-83q0 -63 29 -87t90 -24q58 0 79 29t21 80v82q0 10 5 16.5t15 6.5h19q10 0 15 -6.5t5 -16.5v-82q0 -61 27.5 -85.5
t84.5 -24.5q53 0 72.5 29t19.5 74q0 16 -1.5 32t-6.5 33l-18 64q-3 10 -2 19t13 12l18 5q14 4 19.5 -2.5t8.5 -18.5l17 -65q6 -24 9 -47t3 -40q0 -40 -14 -77t-48 -60t-94 -23q-52 0 -88 17t-54 52q-9 -23 -29 -38.5t-46.5 -23t-55.5 -7.5z" />
    <glyph glyph-name="uniFEB4" unicode="&#x633;" horiz-adv-x="860" arabic-form="medial" 
d="M302 -5q-22 0 -47.5 6t-49 26t-39.5 60q-16 -34 -42 -53t-58.5 -26.5t-70.5 -7.5q-15 0 -15 16v19q0 30 30 30q73 0 101.5 22t28.5 83v85q0 10 5 15t15 5h20q20 0 20 -20v-85q0 -65 29 -87.5t73 -22.5q58 0 78 28t20 82v82q0 10 5 16.5t15 6.5h20q10 0 15 -6.5t5 -16.5
v-82q0 -61 23 -85.5t80 -24.5t77 28t20 82v82q0 10 5 16.5t15 6.5h20q10 0 15 -6.5t5 -16.5v-82q0 -58 29 -81.5t100 -23.5h21q15 0 15 -15v-20q0 -30 -30 -30q-64 0 -105.5 15.5t-64.5 48.5q-13 -35 -46 -52t-76 -17q-52 0 -86 17t-52 52q-13 -35 -46 -52t-77 -17z" />
    <glyph glyph-name="uniFEB2" unicode="&#x633;" horiz-adv-x="1252" arabic-form="final" 
d="M319 -221q-84 0 -141.5 31.5t-87 88.5t-29.5 132q0 30 6.5 63t20.5 73q4 11 10 15.5t16 1.5l16 -5q14 -4 16.5 -10t-0.5 -15q-12 -30 -17 -59.5t-5 -58.5q0 -92 48.5 -142t147.5 -50q104 0 158.5 56.5t54.5 163.5q0 23 -8.5 64.5t-19.5 84.5q-3 9 0.5 17t13.5 9l21 4
q12 2 17.5 -3.5t7.5 -16.5q6 -25 12 -49t10 -43q10 -36 34 -53.5t73 -17.5q58 0 78 28t20 82v82q0 10 5 16.5t15 6.5h20q10 0 15 -6.5t5 -16.5v-82q0 -61 23 -85.5t80 -24.5t77 28t20 82v82q0 10 5 16.5t15 6.5h20q10 0 15 -6.5t5 -16.5v-82q0 -58 29 -81.5t100 -23.5h21
q15 0 15 -15v-20q0 -30 -30 -30q-64 0 -105.5 15.5t-64.5 48.5q-13 -35 -46 -52t-76 -17q-52 0 -86 17t-52 52q-9 -23 -27 -38.5t-43 -23t-56 -7.5q-39 0 -60.5 10t-39.5 33q-5 -72 -31.5 -121.5t-65.5 -79.5t-85 -44t-90 -14z" />
    <glyph glyph-name="uniFEB7" unicode="&#x634;" horiz-adv-x="822" arabic-form="initial" 
d="M313 -5q-51 0 -94.5 19t-62.5 73q-17 -51 -60 -69t-101 -18q-15 0 -15 16v19q0 30 30 30q69 0 99.5 23.5t30.5 83.5v83q0 10 5 15t15 5h20q20 0 20 -20v-83q0 -63 29 -87t90 -24q58 0 79 29t21 80v82q0 10 5 16.5t15 6.5h19q10 0 15 -6.5t5 -16.5v-82q0 -61 27.5 -85.5
t84.5 -24.5q53 0 72.5 29t19.5 74q0 16 -1.5 32t-6.5 33l-18 64q-3 10 -2 19t13 12l18 5q14 4 19.5 -2.5t8.5 -18.5l17 -65q6 -24 9 -47t3 -40q0 -40 -14 -77t-48 -60t-94 -23q-52 0 -88 17t-54 52q-9 -23 -29 -38.5t-46.5 -23t-55.5 -7.5zM457 524q-4 -4 -9 -3.5t-10 4.5
l-30 30q-9 10 0 19l30 30q9 9 18 0l30 -30q11 -10 1 -20zM385 398q-4 -4 -10 -4t-11 5l-31 32q-4 5 -4 10.5t4 10.5l31 32q10 11 21 0l32 -32q5 -4 5.5 -10.5t-4.5 -11.5zM532 398q-4 -5 -10 -4t-11 5l-33 32q-4 4 -4 10.5t4 10.5l33 32q10 10 20 0l32 -32q5 -4 5 -10.5
t-5 -11.5z" />
    <glyph glyph-name="uniFEB8" unicode="&#x634;" horiz-adv-x="860" arabic-form="medial" 
d="M302 -5q-22 0 -47.5 6t-49 26t-39.5 60q-16 -34 -42 -53t-58.5 -26.5t-70.5 -7.5q-15 0 -15 16v19q0 30 30 30q73 0 101.5 22t28.5 83v85q0 10 5 15t15 5h20q20 0 20 -20v-85q0 -65 29 -87.5t73 -22.5q58 0 78 28t20 82v82q0 10 5 16.5t15 6.5h20q10 0 15 -6.5t5 -16.5
v-82q0 -61 23 -85.5t80 -24.5t77 28t20 82v82q0 10 5 16.5t15 6.5h20q10 0 15 -6.5t5 -16.5v-82q0 -58 29 -81.5t100 -23.5h21q15 0 15 -15v-20q0 -30 -30 -30q-64 0 -105.5 15.5t-64.5 48.5q-13 -35 -46 -52t-76 -17q-52 0 -86 17t-52 52q-13 -35 -46 -52t-77 -17zM439 523
q-4 -4 -9 -3.5t-10 4.5l-30 30q-9 10 0 19l30 30q9 9 18 0l30 -30q11 -10 1 -20zM367 397q-4 -4 -10 -4t-11 5l-31 32q-4 5 -4 10.5t4 10.5l31 32q10 11 21 0l32 -32q5 -4 5.5 -10.5t-4.5 -11.5zM514 397q-4 -5 -10 -4t-11 5l-33 32q-4 4 -4 10.5t4 10.5l33 32q10 10 20 0
l32 -32q5 -4 5 -10.5t-5 -11.5z" />
    <glyph glyph-name="uniFEB6" unicode="&#x634;" horiz-adv-x="1252" arabic-form="final" 
d="M319 -221q-84 0 -141.5 31.5t-87 88.5t-29.5 132q0 30 6.5 63t20.5 73q4 11 10 15.5t16 1.5l16 -5q14 -4 16.5 -10t-0.5 -15q-12 -30 -17 -59.5t-5 -58.5q0 -92 48.5 -142t147.5 -50q104 0 158.5 56.5t54.5 163.5q0 23 -8.5 64.5t-19.5 84.5q-3 9 0.5 17t13.5 9l21 4
q12 2 17.5 -3.5t7.5 -16.5q6 -25 12 -49t10 -43q10 -36 34 -53.5t73 -17.5q58 0 78 28t20 82v82q0 10 5 16.5t15 6.5h20q10 0 15 -6.5t5 -16.5v-82q0 -61 23 -85.5t80 -24.5t77 28t20 82v82q0 10 5 16.5t15 6.5h20q10 0 15 -6.5t5 -16.5v-82q0 -58 29 -81.5t100 -23.5h21
q15 0 15 -15v-20q0 -30 -30 -30q-64 0 -105.5 15.5t-64.5 48.5q-13 -35 -46 -52t-76 -17q-52 0 -86 17t-52 52q-9 -23 -27 -38.5t-43 -23t-56 -7.5q-39 0 -60.5 10t-39.5 33q-5 -72 -31.5 -121.5t-65.5 -79.5t-85 -44t-90 -14zM831 523q-4 -4 -9 -3.5t-10 4.5l-30 30
q-9 10 0 19l30 30q9 9 18 0l30 -30q11 -10 1 -20zM759 397q-4 -4 -10 -4t-11 5l-31 32q-4 5 -4 10.5t4 10.5l31 32q10 11 21 0l32 -32q5 -4 5.5 -10.5t-4.5 -11.5zM906 397q-4 -5 -10 -4t-11 5l-33 32q-4 4 -4 10.5t4 10.5l33 32q10 10 20 0l32 -32q5 -4 5 -10.5t-5 -11.5z
" />
    <glyph glyph-name="uniFEBB" unicode="&#x635;" horiz-adv-x="832" arabic-form="initial" 
d="M5 0q-11 0 -18 3.5t-7 22.5v19q0 14 8 17t22 3q50 0 76 8t35 33.5t9 75.5v73q0 20 20 20h20q20 0 20 -20v-73q0 -41 13.5 -67t44 -38t80.5 -12h167q103 0 160 32t57 93q0 47 -33.5 81t-98.5 34q-61 0 -115 -33.5t-96.5 -91t-71.5 -131.5l-54 10q39 106 94.5 174
t121.5 101t136 33q57 0 96.5 -23t60 -61t20.5 -83q0 -75 -37 -118.5t-103 -62.5t-152 -19h-149q-67 0 -112 21t-66 76q-12 -53 -52 -75t-96 -22z" />
    <glyph glyph-name="uniFEBC" unicode="&#x635;" horiz-adv-x="872" arabic-form="medial" 
d="M867 0q-76 0 -125.5 9.5t-91.5 27.5l63 47q22 -7 44 -11t51.5 -6t73.5 -2q15 0 15 -15v-20q0 -30 -30 -30zM5 0q-11 0 -18 3.5t-7 22.5v19q0 14 8 17t22 3q50 0 76 8t35 33.5t9 75.5v73q0 20 20 20h20q20 0 20 -20v-73q0 -41 13.5 -67t44 -38t80.5 -12h167q103 0 160 32
t57 93q0 47 -33.5 81t-98.5 34q-61 0 -115 -33.5t-96.5 -91t-71.5 -131.5l-54 10q39 106 94.5 174t121.5 101t136 33q57 0 96.5 -23t60 -61t20.5 -83q0 -75 -37 -118.5t-103 -62.5t-152 -19h-149q-67 0 -112 21t-66 76q-12 -53 -52 -75t-96 -22z" />
    <glyph glyph-name="uniFEBA" unicode="&#x635;" horiz-adv-x="1290" arabic-form="final" 
d="M1285 0q-60 0 -102 4.5t-73.5 12.5t-59.5 20l63 47q22 -7 44.5 -11t56 -6t86.5 -2q15 0 15 -15v-20q0 -30 -30 -30zM316 -222q-66 0 -114 21t-79 56.5t-46 77.5t-16 84q-1 33 3 66t20 76q5 11 10.5 20.5t16.5 5.5l21 -7q11 -4 15 -9.5t0 -14.5q-15 -32 -19.5 -63.5
t-4.5 -60.5q0 -50 19.5 -92t62 -67.5t110.5 -25.5q113 0 165.5 58t52.5 150q0 27 -3 47.5t-9 46t-17 67.5q-5 21 13 26l18 5q14 4 19.5 -0.5t8.5 -15.5l19 -68q13 -45 28.5 -65t54.5 -27q39 102 94 168t120 98t134 32q57 0 96.5 -23t60 -61t20.5 -83q0 -75 -34 -118.5
t-105.5 -62.5t-182.5 -19q-74 0 -122 1.5t-77.5 6t-47.5 13t-32 21.5q0 -48 -15.5 -95t-49 -85.5t-85 -61t-123.5 -22.5zM722 65h191q103 0 160 32t57 93q0 47 -33.5 81t-98.5 34q-58 0 -110.5 -31t-94.5 -85t-71 -124z" />
    <glyph glyph-name="uniFEBF" unicode="&#x636;" horiz-adv-x="832" arabic-form="initial" 
d="M5 0q-11 0 -18 3.5t-7 22.5v19q0 14 8 17t22 3q50 0 76 8t35 33.5t9 75.5v73q0 20 20 20h20q20 0 20 -20v-73q0 -41 13.5 -67t44 -38t80.5 -12h167q103 0 160 32t57 93q0 47 -33.5 81t-98.5 34q-61 0 -115 -33.5t-96.5 -91t-71.5 -131.5l-54 10q39 106 94.5 174
t121.5 101t136 33q57 0 96.5 -23t60 -61t20.5 -83q0 -75 -37 -118.5t-103 -62.5t-152 -19h-149q-67 0 -112 21t-66 76q-12 -53 -52 -75t-96 -22zM567 461q-4 -4 -10 -3.5t-11 4.5l-32 32q-4 5 -4 11t4 10l32 32q5 5 10.5 5t9.5 -5l32 -32q12 -11 1 -22z" />
    <glyph glyph-name="uniFEC0" unicode="&#x636;" horiz-adv-x="872" arabic-form="medial" 
d="M867 0q-76 0 -125.5 9.5t-91.5 27.5l63 47q22 -7 44 -11t51.5 -6t73.5 -2q15 0 15 -15v-20q0 -30 -30 -30zM5 0q-11 0 -18 3.5t-7 22.5v19q0 14 8 17t22 3q50 0 76 8t35 33.5t9 75.5v73q0 20 20 20h20q20 0 20 -20v-73q0 -41 13.5 -67t44 -38t80.5 -12h167q103 0 160 32
t57 93q0 47 -33.5 81t-98.5 34q-61 0 -115 -33.5t-96.5 -91t-71.5 -131.5l-54 10q39 106 94.5 174t121.5 101t136 33q57 0 96.5 -23t60 -61t20.5 -83q0 -75 -37 -118.5t-103 -62.5t-152 -19h-149q-67 0 -112 21t-66 76q-12 -53 -52 -75t-96 -22zM567 461q-4 -4 -10 -3.5
t-11 4.5l-32 32q-4 5 -4 11t4 10l32 32q5 5 10.5 5t9.5 -5l32 -32q12 -11 1 -22z" />
    <glyph glyph-name="uniFEBE" unicode="&#x636;" horiz-adv-x="1290" arabic-form="final" 
d="M1285 0q-60 0 -102 4.5t-73.5 12.5t-59.5 20l63 47q22 -7 44.5 -11t56 -6t86.5 -2q15 0 15 -15v-20q0 -30 -30 -30zM316 -222q-66 0 -114 21t-79 56.5t-46 77.5t-16 84q-1 33 3 66t20 76q5 11 10.5 20.5t16.5 5.5l21 -7q11 -4 15 -9.5t0 -14.5q-15 -32 -19.5 -63.5
t-4.5 -60.5q0 -50 19.5 -92t62 -67.5t110.5 -25.5q113 0 165.5 58t52.5 150q0 27 -3 47.5t-9 46t-17 67.5q-5 21 13 26l18 5q14 4 19.5 -0.5t8.5 -15.5l19 -68q13 -45 28.5 -65t54.5 -27q39 102 94 168t120 98t134 32q57 0 96.5 -23t60 -61t20.5 -83q0 -75 -34 -118.5
t-105.5 -62.5t-182.5 -19q-74 0 -122 1.5t-77.5 6t-47.5 13t-32 21.5q0 -48 -15.5 -95t-49 -85.5t-85 -61t-123.5 -22.5zM722 65h191q103 0 160 32t57 93q0 47 -33.5 81t-98.5 34q-58 0 -110.5 -31t-94.5 -85t-71 -124zM948 458q-4 -4 -10 -3.5t-11 4.5l-32 32q-4 5 -4 11
t4 10l32 32q5 5 10.5 5t9.5 -5l32 -32q12 -11 1 -22z" />
    <glyph glyph-name="uniFEC3" unicode="&#x637;" horiz-adv-x="703" arabic-form="initial" 
d="M-5 0q-6 0 -10.5 4.5t-4.5 10.5v35q0 6 4.5 10.5t10.5 4.5h131q38 104 91.5 170.5t117.5 99t131 32.5q57 0 96.5 -23t60 -61t20.5 -83q0 -75 -37 -118.5t-103 -62.5t-152 -19h-356zM179 65h187q103 0 160 32t57 93q0 47 -33.5 81t-98.5 34q-59 0 -110 -31t-92 -85
t-70 -124zM125 48v679q0 10 6.5 16.5t16.5 6.5h14q11 0 17 -6.5t6 -16.5v-427v-38.5v-38.5t-0.5 -38t-1.5 -38.5t-2 -38.5z" />
    <glyph glyph-name="uniFEC4" unicode="&#x637;" horiz-adv-x="743" arabic-form="medial" 
d="M738 0q-51 0 -89.5 4.5t-69 12.5t-58.5 20l63 47q22 -7 44 -11t51.5 -6t73.5 -2q15 0 15 -15v-20q0 -14 -8 -22t-22 -8zM-5 0q-6 0 -10.5 4.5t-4.5 10.5v35q0 6 4.5 10.5t10.5 4.5h131q38 104 91.5 170.5t117.5 99t131 32.5q57 0 96.5 -23t60 -61t20.5 -83
q0 -75 -37 -118.5t-103 -62.5t-152 -19h-356zM179 65h187q103 0 160 32t57 93q0 47 -33.5 81t-98.5 34q-59 0 -110 -31t-92 -85t-70 -124zM125 48v679q0 10 6.5 16.5t16.5 6.5h14q11 0 17 -6.5t6 -16.5v-427v-38.5v-38.5t-0.5 -38t-1.5 -38.5t-2 -38.5z" />
    <glyph glyph-name="uniFEC2" unicode="&#x637;" horiz-adv-x="755" arabic-form="final" 
d="M750 0q-51 0 -89.5 4.5t-69 12.5t-58.5 20l63 47q22 -7 44 -11t51.5 -6t73.5 -2q15 0 15 -15v-20q0 -14 -8 -22t-22 -8zM75 0q-7 0 -12 3t-7 12l-6 35q-1 10 4 12.5t11 2.5h73q38 104 91.5 170.5t117.5 99t131 32.5q57 0 96.5 -23t60 -61t20.5 -83q0 -75 -37 -118.5
t-103 -62.5t-152 -19h-288zM191 65h187q103 0 160 32t57 93q0 47 -33.5 81t-98.5 34q-59 0 -110 -31t-92 -85t-70 -124zM134 48v679q0 10 6.5 16.5t16.5 6.5h14q11 0 17 -6.5t6 -16.5v-427v-38.5t-1 -38.5t-1.5 -38t-1.5 -38.5t-3 -38.5z" />
    <glyph glyph-name="uniFEC7" unicode="&#x638;" horiz-adv-x="703" arabic-form="initial" 
d="M-5 0q-6 0 -10.5 4.5t-4.5 10.5v35q0 6 4.5 10.5t10.5 4.5h131q38 104 91.5 170.5t117.5 99t131 32.5q57 0 96.5 -23t60 -61t20.5 -83q0 -75 -37 -118.5t-103 -62.5t-152 -19h-356zM179 65h187q103 0 160 32t57 93q0 47 -33.5 81t-98.5 34q-59 0 -110 -31t-92 -85
t-70 -124zM125 48v679q0 10 6.5 16.5t16.5 6.5h14q11 0 17 -6.5t6 -16.5v-427v-38.5v-38.5t-0.5 -38t-1.5 -38.5t-2 -38.5zM421 469q-4 -4 -10 -3.5t-11 4.5l-32 32q-4 5 -4 11t4 10l32 32q5 5 10.5 5t9.5 -5l32 -32q12 -11 1 -22z" />
    <glyph glyph-name="uniFEC8" unicode="&#x638;" horiz-adv-x="743" arabic-form="medial" 
d="M738 0q-51 0 -89.5 4.5t-69 12.5t-58.5 20l63 47q22 -7 44 -11t51.5 -6t73.5 -2q15 0 15 -15v-20q0 -14 -8 -22t-22 -8zM-5 0q-6 0 -10.5 4.5t-4.5 10.5v35q0 6 4.5 10.5t10.5 4.5h131q38 104 91.5 170.5t117.5 99t131 32.5q57 0 96.5 -23t60 -61t20.5 -83
q0 -75 -37 -118.5t-103 -62.5t-152 -19h-356zM179 65h187q103 0 160 32t57 93q0 47 -33.5 81t-98.5 34q-59 0 -110 -31t-92 -85t-70 -124zM125 48v679q0 10 6.5 16.5t16.5 6.5h14q11 0 17 -6.5t6 -16.5v-427v-38.5v-38.5t-0.5 -38t-1.5 -38.5t-2 -38.5zM421 469
q-4 -4 -10 -3.5t-11 4.5l-32 32q-4 5 -4 11t4 10l32 32q5 5 10.5 5t9.5 -5l32 -32q12 -11 1 -22z" />
    <glyph glyph-name="uniFEC6" unicode="&#x638;" horiz-adv-x="755" arabic-form="final" 
d="M750 0q-51 0 -89.5 4.5t-69 12.5t-58.5 20l63 47q22 -7 44 -11t51.5 -6t73.5 -2q15 0 15 -15v-20q0 -14 -8 -22t-22 -8zM75 0q-7 0 -12 3t-7 12l-6 35q-1 10 4 12.5t11 2.5h73q38 104 91.5 170.5t117.5 99t131 32.5q57 0 96.5 -23t60 -61t20.5 -83q0 -75 -37 -118.5
t-103 -62.5t-152 -19h-288zM191 65h187q103 0 160 32t57 93q0 47 -33.5 81t-98.5 34q-59 0 -110 -31t-92 -85t-70 -124zM134 48v679q0 10 6.5 16.5t16.5 6.5h14q11 0 17 -6.5t6 -16.5v-427v-38.5t-1 -38.5t-1.5 -38t-1.5 -38.5t-3 -38.5zM433 469q-4 -4 -10 -3.5t-11 4.5
l-32 32q-4 5 -4 11t4 10l32 32q5 5 10.5 5t9.5 -5l32 -32q12 -11 1 -22z" />
    <glyph glyph-name="uniFECB" unicode="&#x639;" horiz-adv-x="531" arabic-form="initial" 
d="M-1 0q-13 0 -16 8t-3 15v20q0 14 8 18t22 4h212l-12 -20q-26 4 -54 25t-47.5 54.5t-19.5 74.5q0 62 27.5 104t71.5 64t94 22q35 0 66.5 -6.5t53.5 -16.5q14 -6 19 -14t0 -21l-6 -16q-4 -13 -12.5 -15t-20.5 4q-25 12 -53 17t-51 5q-62 0 -95.5 -34t-33.5 -86
q0 -32 20 -61t54 -47t74 -18q20 0 35 2.5t49 7.5l99 15q16 2 22 -2t4 -18l-2 -20q-1 -10 -5 -17.5t-21 -9.5l-115 -17q-64 -9 -113 -13.5t-91.5 -6t-89.5 -1.5h-70z" />
    <glyph glyph-name="uniFECC" unicode="&#x639;" horiz-adv-x="572" arabic-form="medial" 
d="M-6 0q-6 0 -10 3.5t-4 16.5v23q0 14 8 18t21 4q65 1 106.5 5t70.5 12t56 19l-134 112q-14 12 -17.5 23t-3.5 26v18q0 19 7.5 28t20.5 16q41 24 89.5 34t96.5 10q93 0 141 -32t48 -80q0 -31 -18 -58.5t-49.5 -52t-70.5 -49.5q27 -18 62 -24.5t67 -6.5h102q14 0 14 -14v-22
q0 -29 -29 -29h-24q-55 0 -92 3t-64 10t-49.5 19t-48.5 30q-25 -13 -49 -24.5t-55 -20t-77 -13t-115 -4.5zM302 126q55 32 93 63.5t38 56.5q0 16 -14.5 29t-44.5 21t-77 8q-37 0 -78 -8.5t-85 -28.5z" />
    <glyph glyph-name="uniFECA" unicode="&#x639;" horiz-adv-x="566" arabic-form="final" 
d="M276 -360q-81 0 -142.5 20t-96.5 65.5t-37 121.5q-1 53 22 102.5t78.5 98.5t149.5 102l41 -34q-97 -55 -148 -99t-69 -83t-18 -79q0 -79 56 -114.5t170 -35.5h132q26 0 26 -21v-23q0 -10 -4.5 -15.5t-18.5 -5.5h-141zM562 0q-38 0 -67.5 2t-54 7.5t-48.5 15.5
q-34 15 -73.5 43t-97.5 76l-134 110q-15 12 -18 23t-3 26v18q0 19 7.5 28t20.5 16q41 23 88 33.5t93 10.5q102 0 148 -32t46 -80q0 -32 -22 -62t-58 -56.5t-79 -48.5l-38 31q61 35 100.5 67.5t39.5 58.5q0 16 -13.5 29t-44.5 21t-83 8q-37 0 -74 -8.5t-81 -28.5l150 -124
q48 -39 80 -63t60.5 -36t63 -16t85.5 -4h22q14 0 14 -14v-22q0 -29 -29 -29z" />
    <glyph glyph-name="uniFECF" unicode="&#x63a;" horiz-adv-x="531" arabic-form="initial" 
d="M-1 0q-13 0 -16 8t-3 15v20q0 14 8 18t22 4h212l-12 -20q-26 4 -54 25t-47.5 54.5t-19.5 74.5q0 62 27.5 104t71.5 64t94 22q35 0 66.5 -6.5t53.5 -16.5q14 -6 19 -14t0 -21l-6 -16q-4 -13 -12.5 -15t-20.5 4q-25 12 -53 17t-51 5q-62 0 -95.5 -34t-33.5 -86
q0 -32 20 -61t54 -47t74 -18q20 0 35 2.5t49 7.5l99 15q16 2 22 -2t4 -18l-2 -20q-1 -10 -5 -17.5t-21 -9.5l-115 -17q-64 -9 -113 -13.5t-91.5 -6t-89.5 -1.5h-70zM292 505q-4 -4 -10 -3.5t-11 4.5l-32 32q-4 5 -4 11t4 10l32 32q5 5 10.5 5t9.5 -5l32 -32q12 -11 1 -22z
" />
    <glyph glyph-name="uniFED0" unicode="&#x63a;" horiz-adv-x="572" arabic-form="medial" 
d="M-6 0q-6 0 -10 3.5t-4 16.5v23q0 14 8 18t21 4q65 1 106.5 5t70.5 12t56 19l-134 112q-14 12 -17.5 23t-3.5 26v18q0 19 7.5 28t20.5 16q41 24 89.5 34t96.5 10q93 0 141 -32t48 -80q0 -31 -18 -58.5t-49.5 -52t-70.5 -49.5q27 -18 62 -24.5t67 -6.5h102q14 0 14 -14v-22
q0 -29 -29 -29h-24q-55 0 -92 3t-64 10t-49.5 19t-48.5 30q-25 -13 -49 -24.5t-55 -20t-77 -13t-115 -4.5zM302 126q55 32 93 63.5t38 56.5q0 16 -14.5 29t-44.5 21t-77 8q-37 0 -78 -8.5t-85 -28.5zM311 484q-4 -4 -10 -3.5t-11 4.5l-32 32q-4 5 -4 11t4 10l32 32
q5 5 10.5 5t9.5 -5l32 -32q12 -11 1 -22z" />
    <glyph glyph-name="uniFECE" unicode="&#x63a;" horiz-adv-x="566" arabic-form="final" 
d="M276 -360q-81 0 -142.5 20t-96.5 65.5t-37 121.5q-1 53 22 102.5t78.5 98.5t149.5 102l41 -34q-97 -55 -148 -99t-69 -83t-18 -79q0 -79 56 -114.5t170 -35.5h132q26 0 26 -21v-23q0 -10 -4.5 -15.5t-18.5 -5.5h-141zM562 0q-38 0 -67.5 2t-54 7.5t-48.5 15.5
q-34 15 -73.5 43t-97.5 76l-134 110q-15 12 -18 23t-3 26v18q0 19 7.5 28t20.5 16q41 23 88 33.5t93 10.5q102 0 148 -32t46 -80q0 -32 -22 -62t-58 -56.5t-79 -48.5l-38 31q61 35 100.5 67.5t39.5 58.5q0 16 -13.5 29t-44.5 21t-83 8q-37 0 -74 -8.5t-81 -28.5l150 -124
q48 -39 80 -63t60.5 -36t63 -16t85.5 -4h22q14 0 14 -14v-22q0 -29 -29 -29zM285 525q-4 -4 -10 -3.5t-11 4.5l-32 32q-4 5 -4 11t4 10l32 32q5 5 10.5 5t9.5 -5l32 -32q12 -11 1 -22z" />
    <glyph glyph-name="uniFED3" unicode="&#x641;" horiz-adv-x="450" arabic-form="initial" 
d="M3 0q-14 0 -18.5 5t-4 11.5t0.5 11.5v16q0 15 3.5 18t18.5 3h223q54 0 85 18.5t43 63t9 122.5l14 -15q-25 -31 -64 -44t-73 -13q-48 0 -82.5 18.5t-52.5 52t-18 77.5q0 48 23 84t59.5 56t75.5 20q60 0 98.5 -30.5t57.5 -84.5t19 -124q0 -63 -9 -112.5t-31.5 -84
t-63.5 -52t-106 -17.5h-207zM239 262q32 0 66 12t58 34q-1 29 -14 60.5t-40 53.5t-70 22q-32 0 -54.5 -15t-33.5 -37t-11 -42q0 -43 29.5 -65.5t69.5 -22.5zM255 621q-4 -4 -10 -3.5t-11 4.5l-32 32q-4 5 -4 11t4 10l32 32q5 5 10.5 5t9.5 -5l32 -32q12 -11 1 -22z" />
    <glyph glyph-name="uniFED4" unicode="&#x641;" horiz-adv-x="527" arabic-form="medial" 
d="M-5 0q-15 0 -15 15v20q0 14 8 22t22 8q48 0 81.5 2t58 6t44.5 9q-21 14 -42.5 34t-36 48t-15.5 65q0 53 25 90t64 56.5t81 19.5t77.5 -19.5t57.5 -55t22 -82.5q0 -49 -25 -85.5t-73 -71.5q38 -7 66 -10.5t60.5 -4.5t81.5 -1q7 0 11 -4t4 -11v-20q0 -30 -30 -30
q-52 0 -89.5 2.5t-66.5 7.5t-55.5 13t-57.5 20q-26 -11 -49.5 -19.5t-51.5 -13.5t-65.5 -7.5t-91.5 -2.5zM266 106q50 27 76 60.5t26 67.5q0 45 -27 71.5t-75 26.5q-40 0 -72.5 -25t-32.5 -70q0 -46 30 -75.5t75 -55.5zM281 498q-4 -4 -10 -3.5t-11 4.5l-32 32q-4 5 -4 11
t4 10l32 32q5 5 10.5 5t9.5 -5l32 -32q12 -11 1 -22z" />
    <glyph glyph-name="uniFED2" unicode="&#x641;" horiz-adv-x="1080" arabic-form="final" 
d="M319 0q-63 0 -109.5 12.5t-77.5 36.5t-46.5 58t-15.5 77q0 30 9 63t24 67q6 14 13 19.5t17 0.5l18 -8q5 -2 11 -5.5t1 -14.5q-31 -66 -31 -112q0 -66 52 -97.5t146 -31.5h219q58 0 106.5 4.5t76.5 11.5q-29 20 -56.5 59t-28.5 93q0 53 24 90t62 56.5t80 19.5t77.5 -19.5
t57.5 -55t22 -82.5t-24 -86t-77 -75q31 -7 60 -10.5t67 -4.5t94 -1q7 0 11 -4t4 -11v-20q0 -30 -30 -30q-49 0 -89.5 2.5t-74.5 7.5t-63 13t-55 20q-32 -12 -59.5 -20.5t-56 -13.5t-63 -7t-80.5 -2h-215zM805 104q53 26 79 62t26 70q0 45 -27 71.5t-75 26.5q-40 0 -70.5 -25
t-30.5 -70q0 -44 24 -75.5t74 -59.5zM823 515q-4 -4 -10 -3.5t-11 4.5l-32 32q-4 5 -4 11t4 10l32 32q5 5 10.5 5t9.5 -5l32 -32q12 -11 1 -22z" />
    <glyph glyph-name="uniFED7" unicode="&#x642;" horiz-adv-x="450" arabic-form="initial" 
d="M3 0q-14 0 -18.5 5t-4 11.5t0.5 11.5v16q0 15 3.5 18t18.5 3h223q54 0 85 18.5t43 63t9 122.5l14 -15q-25 -31 -64 -44t-73 -13q-48 0 -82.5 18.5t-52.5 52t-18 77.5q0 48 23 84t59.5 56t75.5 20q60 0 98.5 -30.5t57.5 -84.5t19 -124q0 -63 -9 -112.5t-31.5 -84
t-63.5 -52t-106 -17.5h-207zM239 262q32 0 66 12t58 34q-1 29 -14 60.5t-40 53.5t-70 22q-32 0 -54.5 -15t-33.5 -37t-11 -42q0 -43 29.5 -65.5t69.5 -22.5zM182 621q-4 -4 -10 -4t-11 5l-31 32q-4 5 -4 10.5t4 10.5l31 32q5 5 11 5t10 -5l32 -32q5 -4 5.5 -10.5t-4.5 -11.5
zM329 621q-4 -5 -10 -4t-11 5l-33 32q-4 4 -4 10.5t4 10.5l33 32q5 5 10 5t10 -5l32 -32q5 -4 5 -10.5t-5 -11.5z" />
    <glyph glyph-name="uniFED8" unicode="&#x642;" horiz-adv-x="527" arabic-form="medial" 
d="M-5 0q-15 0 -15 15v20q0 14 8 22t22 8q48 0 81.5 2t58 6t44.5 9q-21 14 -42.5 34t-36 48t-15.5 65q0 53 25 90t64 56.5t81 19.5t77.5 -19.5t57.5 -55t22 -82.5q0 -49 -25 -85.5t-73 -71.5q38 -7 66 -10.5t60.5 -4.5t81.5 -1q7 0 11 -4t4 -11v-20q0 -30 -30 -30
q-52 0 -89.5 2.5t-66.5 7.5t-55.5 13t-57.5 20q-26 -11 -49.5 -19.5t-51.5 -13.5t-65.5 -7.5t-91.5 -2.5zM266 106q50 27 76 60.5t26 67.5q0 45 -27 71.5t-75 26.5q-40 0 -72.5 -25t-32.5 -70q0 -46 30 -75.5t75 -55.5zM208 498q-4 -4 -10 -4t-11 5l-31 32q-4 5 -4 10.5
t4 10.5l31 32q5 5 11 5t10 -5l32 -32q5 -4 5.5 -10.5t-4.5 -11.5zM355 498q-4 -5 -10 -4t-11 5l-33 32q-4 4 -4 10.5t4 10.5l33 32q5 5 10 5t10 -5l32 -32q5 -4 5 -10.5t-5 -11.5z" />
    <glyph glyph-name="uniFED6" unicode="&#x642;" horiz-adv-x="814" arabic-form="final" 
d="M348 -245q-66 0 -119 16.5t-90.5 48t-57.5 78.5t-20 108q0 35 12 84t35 92q4 6 10 8.5t16 -1.5l21 -8q8 -3 7 -10.5t-6 -19.5q-17 -36 -27.5 -72.5t-10.5 -68.5q0 -59 27.5 -101.5t80.5 -65.5t127 -23h74q68 0 114 15.5t74 42t43.5 59t21.5 65.5h-69q-59 0 -102 17
t-66 50.5t-23 82.5q0 32 10.5 59.5t30.5 49t49 33.5t65 12q62 0 97 -31.5t49 -85.5t14 -124h89q15 0 15 -15v-20q0 -30 -30 -30h-79q-6 -42 -22.5 -85t-50 -79.5t-89.5 -58.5t-142 -22h-78zM613 65h72q0 86 -26.5 133.5t-88.5 47.5q-36 0 -58 -14.5t-31.5 -35.5t-9.5 -42
q0 -45 36.5 -67t105.5 -22zM513 418q-4 -4 -10 -4t-11 5l-31 32q-4 5 -4 10.5t4 10.5l31 32q5 5 11 5t10 -5l32 -32q5 -4 5.5 -10.5t-4.5 -11.5zM660 418q-4 -5 -10 -4t-11 5l-33 32q-4 4 -4 10.5t4 10.5l33 32q5 5 10 5t10 -5l32 -32q5 -4 5 -10.5t-5 -11.5z" />
    <glyph glyph-name="uniFEDB" unicode="&#x643;" horiz-adv-x="425" arabic-form="initial" 
d="M-5 0q-15 0 -15 15v20q0 30 30 30h181q63 0 93.5 28.5t30.5 71.5q0 28 -13.5 50.5t-39.5 44.5l-220 194q-11 11 -14.5 21t-3.5 23v17q0 12 5.5 20t16.5 15l352 205q10 6 16 1.5t5 -15.5l-1 -23q-1 -10 -4.5 -16.5t-14.5 -13.5l-321 -187l220 -196q23 -20 39 -42t25 -46
t9 -51q0 -56 -28 -93t-73 -55t-98 -18h-177z" />
    <glyph glyph-name="uniFEDC" unicode="&#x643;" horiz-adv-x="526" arabic-form="medial" 
d="M-5 0q-15 0 -15 15v20q0 30 30 30h147q62 0 89.5 19t27.5 47q0 17 -7.5 36t-39.5 57l-195 236q-10 11 -14 21t-4 23v11q0 22 22 35l352 205q10 6 16 1.5t5 -15.5l-1 -23q-1 -10 -4.5 -16.5t-14.5 -13.5l-318 -184l275 -333q27 -32 47 -53t40 -32.5t44.5 -16t58.5 -4.5
q15 0 15 -15v-20q0 -30 -30 -30q-25 0 -50.5 6t-51.5 20.5t-51.5 38t-51.5 59.5q-1 -49 -25 -76t-62 -37.5t-83 -10.5h-151z" />
    <glyph glyph-name="uniFEDA" unicode="&#x643;" horiz-adv-x="879" arabic-form="final" 
d="M341 0q-97 0 -156.5 22t-87 65t-27.5 105q0 29 8.5 61.5t22.5 65.5q7 16 12 19t16 -2l13 -5q10 -4 15.5 -8t1.5 -14q-11 -29 -20 -58.5t-9 -61.5q0 -46 26 -73.5t73.5 -39t111.5 -11.5h198q75 0 112.5 26t37.5 97v542q0 10 5 15t15 5h20q10 0 15 -5t5 -15v-545
q0 -48 13.5 -74t44.5 -36t82 -10q7 0 11 -4t4 -11v-20q0 -30 -30 -30q-31 0 -60.5 7.5t-54.5 26.5t-43 52q-28 -45 -76.5 -65.5t-115.5 -20.5h-183zM344 281q-18 0 -18 18v8q0 19 18 19h114q23 0 23 18q0 6 -3.5 11.5t-13.5 12.5l-71 51q-8 6 -15 15.5t-7 23.5q0 17 10 29
t27 26l80 66q7 6 12 6t9 -6l10 -14q6 -10 -3 -18l-85 -68q-11 -10 -11 -16t3.5 -8.5t7.5 -5.5l53 -39q26 -19 35.5 -34t9.5 -33q0 -28 -18.5 -45t-51.5 -17h-115z" />
    <glyph glyph-name="uniFEDF" unicode="&#x644;" horiz-adv-x="285" arabic-form="initial" 
d="M-5 0q-15 0 -15 15v20q0 30 30 30q37 0 61.5 10.5t36.5 39t12 83.5v529q0 10 6.5 16.5t16.5 6.5h14q11 0 17 -6.5t6 -16.5v-519q0 -58 -12 -98t-35.5 -64.5t-58 -35t-79.5 -10.5z" />
    <glyph glyph-name="uniFEE0" unicode="&#x644;" horiz-adv-x="300" arabic-form="medial" 
d="M-5 0q-15 0 -15 16v19q0 30 30 30q62 0 86 25t24 95v545q0 20 20 20h20q20 0 20 -20v-545q0 -49 12.5 -75t41 -35.5t76.5 -9.5q15 0 15 -15v-20q0 -30 -30 -30q-43 0 -83 18t-66 69q-22 -51 -62 -69t-89 -18z" />
    <glyph glyph-name="uniFEDE" unicode="&#x644;" horiz-adv-x="727" arabic-form="final" 
d="M304 -210q-84 0 -138 36t-79.5 93t-25.5 120q0 32 5.5 64t18.5 68q5 15 11 20.5t16 2.5l16 -5q11 -4 16 -8t1 -15q-13 -36 -18 -65.5t-5 -55.5q0 -52 18.5 -95.5t59.5 -69.5t107 -26h20q66 0 113 28.5t72 82.5t25 129v633q0 10 6.5 16.5t16.5 6.5h14q11 0 17 -6.5
t6 -16.5v-538q0 -57 16 -83.5t47.5 -33.5t76.5 -7q15 0 15 -15v-20q0 -30 -30 -30q-46 0 -77 10.5t-51 33.5q-8 -78 -42.5 -135t-92 -88t-135.5 -31h-20z" />
    <glyph glyph-name="uniFEE3" unicode="&#x645;" horiz-adv-x="542" arabic-form="initial" 
d="M366 -8q-22 0 -40.5 3t-41 12t-55.5 27t-84 48q-25 -38 -50 -55.5t-49.5 -22t-50.5 -4.5q-15 0 -15 15v20q0 30 30 30q22 0 38.5 6t34.5 26t42 62q39 68 71 102.5t62 47t62 12.5q45 0 83 -25t61 -66.5t23 -93.5q0 -37 -9.5 -64t-26 -45t-38.5 -26.5t-47 -8.5zM369 57
q23 0 40 14.5t18 58.5q1 38 -15.5 66t-42.5 44t-55 16q-20 0 -39 -7.5t-42 -32.5t-55 -78q59 -36 92.5 -53.5t55.5 -22.5t43 -5z" />
    <glyph glyph-name="uniFEE4" unicode="&#x645;" horiz-adv-x="581" arabic-form="medial" 
d="M340 -7q-22 0 -41 3.5t-42 13t-54.5 27t-79.5 45.5q-20 -38 -41.5 -55.5t-43 -22t-43.5 -4.5q-15 0 -15 15v20q0 30 30 30q18 0 30.5 6.5t26.5 26.5t36 61q38 70 71 105.5t63.5 48t62.5 12.5q35 0 64.5 -14t55 -46t48.5 -87q19 -44 35.5 -69t37 -34.5t50.5 -9.5
q15 0 15 -15v-20q0 -30 -30 -30q-40 0 -69.5 16.5t-52.5 53.5q-14 -39 -44 -58t-70 -19zM343 56q27 0 48 13.5t22 55.5q1 34 -16 65.5t-43.5 52t-55.5 20.5q-21 0 -40.5 -8.5t-43.5 -35.5t-58 -83q60 -34 92.5 -51t52.5 -23t42 -6z" />
    <glyph glyph-name="uniFEE2" unicode="&#x645;" horiz-adv-x="643" arabic-form="final" 
d="M88 -297q-23 0 -23 23v231q0 68 28 100.5t67 34.5q12 83 44 133t73 72.5t80 22.5q62 0 97.5 -41t57.5 -108q14 -40 29.5 -63t42 -33t69.5 -10q15 0 15 -15v-20q0 -30 -30 -30q-55 0 -90.5 21.5t-64.5 73.5q-15 -36 -41.5 -58.5t-68.5 -29t-102 4.5l-79 15q-39 8 -53 -8.5
t-14 -56.5v-236q0 -23 -23 -23h-14zM343 65q54 1 79.5 25t25.5 58q0 50 -29 79t-70 29q-43 0 -82 -41t-50 -130q42 -9 72 -14.5t54 -5.5z" />
    <glyph glyph-name="uniFEE7" unicode="&#x646;" horiz-adv-x="261" arabic-form="initial" 
d="M-2 0q-10 0 -14 6.5t-4 13.5v25q0 14 8 17t22 3h14q54 0 76 28.5t22 85.5q0 20 -1.5 37t-6.5 36l-18 75q-2 9 2 14t13 7l20 5q18 4 22 -15l18 -81q5 -19 7.5 -45.5t2.5 -37.5q0 -78 -36.5 -126t-107.5 -48h-39zM120 442q-4 -4 -10 -3.5t-11 4.5l-32 32q-4 5 -4 11t4 10
l32 32q5 5 10.5 5t9.5 -5l32 -32q12 -11 1 -22z" />
    <glyph glyph-name="uniFEE8" unicode="&#x646;" horiz-adv-x="320" arabic-form="medial" 
d="M-5 0q-15 0 -15 16v19q0 30 30 30h15q49 0 77 24t28 93v103q0 20 20 20h20q20 0 20 -20v-103q0 -70 31.5 -93.5t87.5 -23.5h21q15 0 15 -15v-20q0 -30 -30 -30q-49 0 -92 18t-70 69q-22 -51 -65.5 -69t-92.5 -18zM168 409q-4 -4 -10 -3.5t-11 4.5l-32 32q-4 5 -4 11t4 10
l32 32q5 5 10.5 5t9.5 -5l32 -32q12 -11 1 -22z" />
    <glyph glyph-name="uniFEE6" unicode="&#x646;" horiz-adv-x="678" arabic-form="final" 
d="M306 -191q-80 0 -136 30t-85 83.5t-29 125.5q0 29 7 67.5t16 61.5q7 17 13.5 23.5t16.5 3.5l16 -5q14 -4 16.5 -10t-0.5 -15q-12 -28 -17.5 -64.5t-5.5 -61.5q0 -82 53 -128t135 -46q110 0 164.5 60t48.5 157q-2 32 -10.5 64t-17.5 75q-6 24 14 29l17 5q13 4 18.5 -2
t9.5 -21q5 -22 11.5 -45t12.5 -53q9 -44 29 -61t71 -17h14q15 0 15 -15v-20q0 -30 -30 -30q-31 0 -55 5.5t-44 25.5q-8 -73 -48.5 -122.5t-98.5 -74.5t-121 -25zM328 353q-4 -4 -10 -3.5t-11 4.5l-32 32q-4 5 -4 11t4 10l32 32q5 5 10.5 5t9.5 -5l32 -32q12 -11 1 -22z" />
    <glyph glyph-name="uniFEEB" unicode="&#x647;" horiz-adv-x="659" arabic-form="initial" 
d="M450 -15q-49 0 -101 15t-96 43q-34 -15 -66 -24.5t-76 -14t-116 -4.5q-15 0 -15 15v20q0 30 30 30q72 0 113 5t71 12q-21 14 -42.5 34t-36 48t-15.5 65q0 48 25.5 82t66 52t83.5 18q11 0 23 -2t20 -6l-3 -18l-95 64q-6 5 -7 11.5t4 13.5l14 17q8 11 16 9t15 -7l242 -178
q57 -42 81.5 -76.5t24.5 -77.5q0 -42 -19.5 -75t-55.5 -52t-85 -19zM266 106q50 27 76 60.5t26 67.5q0 45 -27 71.5t-75 26.5q-40 0 -72.5 -25t-32.5 -70q0 -46 30 -75.5t75 -55.5zM456 42q46 0 70 24t24 64q0 32 -15.5 56t-49.5 47l-109 76l17 11q11 -19 18.5 -41.5
t7.5 -47.5q0 -49 -23.5 -84t-73.5 -73q24 -11 42.5 -18t40 -10.5t51.5 -3.5z" />
    <glyph glyph-name="uniFEEC" unicode="&#x647;" horiz-adv-x="460" arabic-form="medial" 
d="M281 -231q-43 0 -82 15.5t-69 49t-47 87t-17 129.5q0 52 15 111t41 113.5t58 91.5q7 8 14 11t17 3h22q11 0 17.5 -3.5t13.5 -9.5q41 -35 69 -75t29 -95q0 -42 -18.5 -80t-46.5 -55l2 -3q33 2 59 3.5t52 2t59 0.5q10 0 13 -4.5t3 -18.5v-21q0 -11 -7 -16t-26 -5h-85
l-30 20q56 -13 78 -41.5t22 -69.5q0 -45 -22 -76.5t-57.5 -47.5t-76.5 -16zM-8 0q-12 0 -12 19v25q0 13 6 17t19 4h74v-65h-87zM280 -172q50 0 75 21t25 58q0 44 -40 70.5t-120 26.5h-120v58h50q52 0 86.5 16t51.5 44t17 63q0 44 -25 80.5t-75 75.5l23 1
q-23 -32 -47.5 -75.5t-41 -95.5t-16.5 -110q0 -81 21 -132.5t56.5 -76t79.5 -24.5z" />
    <glyph glyph-name="uniFEEA" unicode="&#x647;" horiz-adv-x="508" arabic-form="final" 
d="M468 0q-67 0 -101 32t-39 109q-25 -34 -62.5 -52t-75.5 -18q-63 0 -99 35t-36 92q0 35 15.5 65.5t50 57t90.5 48.5l112 44v43q0 9 7.5 15t15.5 6h16q9 0 15 -6.5t6 -14.5v-296q0 -58 19.5 -76.5t68.5 -18.5h49q6 0 9.5 -6t3.5 -12v-23q0 -24 -28 -24h-37zM202 133
q38 0 65 17t41.5 43.5t14.5 52.5v106l-94 -34q-58 -21 -86 -49t-28 -63t24 -54t63 -19z" />
    <glyph glyph-name="uniFEEE" unicode="&#x648;" horiz-adv-x="488" arabic-form="final" 
d="M61 -245q-10 0 -15.5 5.5t-5.5 15.5v27q0 8 5.5 12.5t15.5 4.5h41q110 0 172.5 46t76.5 136h-66q-59 0 -102 17t-66 50.5t-23 82.5q0 32 10.5 59.5t30.5 49t49 33.5t65 12q85 0 122 -59.5t38 -181.5h89q15 0 15 -15v-20q0 -30 -30 -30h-77q-26 -133 -103 -189t-207 -56
h-35zM287 65h72q0 86 -26.5 133.5t-88.5 47.5q-36 0 -58 -14.5t-31.5 -35.5t-9.5 -42q0 -45 36.5 -67t105.5 -22z" />
    <glyph glyph-name="uniFEF0" unicode="&#x649;" horiz-adv-x="656" arabic-form="final" 
d="M339 -226q-70 0 -122.5 17.5t-87 49.5t-51.5 75t-17 94q0 39 15 86t51 98q5 8 12 8.5t14 -3.5l17 -11q7 -4 9 -11t-5 -17q-27 -40 -39 -72.5t-12 -73.5q0 -49 22 -89t69.5 -63t124.5 -23h94q74 0 122.5 22t48.5 71q0 31 -19 49.5t-50 18.5h-47q-20 0 -20 21v22
q0 22 20 22h179q14 0 14 -15v-24q0 -26 -28 -26h-35l-64 52q52 -21 78.5 -50t26.5 -70q0 -24 -10.5 -51t-36 -51.5t-69.5 -40t-111 -15.5h-93z" />
    <glyph glyph-name="uniFEF3" unicode="&#x64a;" horiz-adv-x="251" arabic-form="initial" 
d="M-5 0q-7 0 -11 6t-4 13v20q0 26 30 26h14q62 0 83.5 38.5t13.5 97.5q-3 25 -9.5 51t-12.5 54q-4 16 -1 23.5t13 9.5l22 5q14 3 19.5 -7t7.5 -21q4 -16 8 -33.5t7.5 -37.5t5.5 -44q6 -63 -8.5 -108t-57 -69t-120.5 -24zM50 -180q-4 -4 -10 -3.5t-11 4.5l-32 32
q-4 4 -4 10.5t4 10.5l32 32q5 5 10.5 5t10.5 -5l32 -32q5 -4 5.5 -10.5t-4.5 -11.5zM187 -180q-4 -4 -10 -3.5t-11 4.5l-33 32q-4 4 -4 10.5t4 10.5l33 32q5 5 10.5 5t9.5 -5l32 -32q5 -4 5.5 -10.5t-4.5 -11.5z" />
    <glyph glyph-name="uniFEF4" unicode="&#x64a;" horiz-adv-x="320" arabic-form="medial" 
d="M-5 0q-15 0 -15 16v19q0 30 30 30q66 0 93 25t27 92v103q0 20 20 20h20q20 0 20 -20v-103q0 -47 14 -72.5t44.5 -35t81.5 -9.5q15 0 15 -15v-20q0 -30 -30 -30q-46 0 -89 18t-70 69q-24 -51 -68 -69t-93 -18zM99 -176q-4 -4 -10 -3.5t-11 4.5l-32 32q-4 4 -4 10.5t4 10.5
l32 32q5 5 10.5 5t10.5 -5l32 -32q5 -4 5.5 -10.5t-4.5 -11.5zM236 -176q-4 -4 -10 -3.5t-11 4.5l-33 32q-4 4 -4 10.5t4 10.5l33 32q5 5 10.5 5t9.5 -5l32 -32q5 -4 5.5 -10.5t-4.5 -11.5z" />
    <glyph glyph-name="uniFEF2" unicode="&#x64a;" horiz-adv-x="656" arabic-form="final" 
d="M339 -226q-70 0 -122.5 17.5t-87 49.5t-51.5 75t-17 94q0 39 15 86t51 98q5 8 12 8.5t14 -3.5l17 -11q7 -4 9 -11t-5 -17q-27 -40 -39 -72.5t-12 -73.5q0 -49 22 -89t69.5 -63t124.5 -23h94q74 0 122.5 22t48.5 71q0 31 -19 49.5t-50 18.5h-47q-20 0 -20 21v22
q0 22 20 22h179q14 0 14 -15v-24q0 -26 -28 -26h-35l-64 52q52 -21 78.5 -50t26.5 -70q0 -24 -10.5 -51t-36 -51.5t-69.5 -40t-111 -15.5h-93zM339 -375q-4 -4 -10 -3.5t-11 4.5l-32 32q-4 4 -4 10.5t4 10.5l32 32q5 5 10.5 5t10.5 -5l32 -32q5 -4 5.5 -10.5t-4.5 -11.5z
M476 -375q-4 -4 -10 -3.5t-11 4.5l-33 32q-4 4 -4 10.5t4 10.5l33 32q5 5 10.5 5t9.5 -5l32 -32q5 -4 5.5 -10.5t-4.5 -11.5z" />
    <glyph glyph-name="uni066E.init" unicode="&#x66e;" horiz-adv-x="261" 
d="M-2 0q-10 0 -14 6.5t-4 13.5v25q0 14 8 17t22 3h14q54 0 76 28.5t22 85.5q0 20 -1.5 37t-6.5 36l-18 75q-2 9 2 14t13 7l20 5q18 4 22 -15l18 -81q5 -19 7.5 -45.5t2.5 -37.5q0 -78 -36.5 -126t-107.5 -48h-39z" />
    <glyph glyph-name="uni066E.medi" unicode="&#x66e;" horiz-adv-x="320" 
d="M-5 0q-15 0 -15 16v19q0 30 30 30h15q49 0 77 24t28 93v103q0 20 20 20h20q20 0 20 -20v-103q0 -70 31.5 -93.5t87.5 -23.5h21q15 0 15 -15v-20q0 -30 -30 -30q-49 0 -92 18t-70 69q-22 -51 -65.5 -69t-92.5 -18z" />
    <glyph glyph-name="uni066E.fina" unicode="&#x66e;" horiz-adv-x="953" 
d="M341 0q-97 0 -156.5 22t-87 65t-27.5 105q0 57 35 136q3 8 8 10.5t16 -2.5l21 -8q7 -2 9.5 -6.5t-1.5 -15.5q-10 -27 -19 -56t-9 -61q0 -70 57.5 -97t153.5 -27h227q104 0 149.5 30.5t45.5 110.5v79q0 20 20 20h20q20 0 20 -20v-79q0 -56 12.5 -86.5t38 -42.5t64.5 -12
h25q15 0 15 -15v-20q0 -30 -30 -30q-61 0 -100.5 22.5t-61.5 77.5q-15 -37 -45 -59t-74.5 -31.5t-103.5 -9.5h-222z" />
    <glyph glyph-name="uni066F.fina" unicode="&#x66f;" horiz-adv-x="814" 
d="M348 -245q-66 0 -119 16.5t-90.5 48t-57.5 78.5t-20 108q0 35 12 84t35 92q4 6 10 8.5t16 -1.5l21 -8q8 -3 7 -10.5t-6 -19.5q-17 -36 -27.5 -72.5t-10.5 -68.5q0 -59 27.5 -101.5t80.5 -65.5t127 -23h74q68 0 114 15.5t74 42t43.5 59t21.5 65.5h-69q-59 0 -102 17
t-66 50.5t-23 82.5q0 32 10.5 59.5t30.5 49t49 33.5t65 12q62 0 97 -31.5t49 -85.5t14 -124h89q15 0 15 -15v-20q0 -30 -30 -30h-79q-6 -42 -22.5 -85t-50 -79.5t-89.5 -58.5t-142 -22h-78zM613 65h72q0 86 -26.5 133.5t-88.5 47.5q-36 0 -58 -14.5t-31.5 -35.5t-9.5 -42
q0 -45 36.5 -67t105.5 -22z" />
    <glyph glyph-name="uniFB51" unicode="&#x671;" horiz-adv-x="300" arabic-form="final" 
d="M291 0q-57 0 -97.5 18t-62 64.5t-21.5 132.5v412q0 11 8 17t18 6h14q10 0 15 -6.5t5 -16.5v-432q0 -53 14 -81t44 -38.5t78 -10.5h4q15 0 15 -15v-20q0 -30 -30 -30h-4zM18 670q-8 0 -14 6t-6 17v21q0 29 16 43.5t44 14.5q10 0 22 -1t25 -3l46 -9q14 -3 25 -4t20 -1
q43 0 43 28q0 18 -12.5 26.5t-29.5 8.5q-35 0 -58 -17.5t-40 -52.5l-44 6q16 52 55.5 80.5t90.5 28.5q39 0 63 -20.5t24 -57.5q0 -39 -24.5 -59.5t-73.5 -20.5q-12 0 -25.5 1.5t-29.5 5.5l-46 11q-5 2 -10 3t-16 1q-19 0 -19 -19v-14q0 -23 -21 -23h-5z" />
    <glyph glyph-name="uni06A1.init" unicode="&#x6a1;" horiz-adv-x="450" 
d="M3 0q-14 0 -18.5 5t-4 11.5t0.5 11.5v16q0 15 3.5 18t18.5 3h223q54 0 85 18.5t43 63t9 122.5l14 -15q-25 -31 -64 -44t-73 -13q-48 0 -82.5 18.5t-52.5 52t-18 77.5q0 48 23 84t59.5 56t75.5 20q60 0 98.5 -30.5t57.5 -84.5t19 -124q0 -63 -9 -112.5t-31.5 -84
t-63.5 -52t-106 -17.5h-207zM239 262q32 0 66 12t58 34q-1 29 -14 60.5t-40 53.5t-70 22q-32 0 -54.5 -15t-33.5 -37t-11 -42q0 -43 29.5 -65.5t69.5 -22.5z" />
    <glyph glyph-name="uni06A1.medi" unicode="&#x6a1;" horiz-adv-x="527" 
d="M-5 0q-15 0 -15 15v20q0 14 8 22t22 8q48 0 81.5 2t58 6t44.5 9q-21 14 -42.5 34t-36 48t-15.5 65q0 53 25 90t64 56.5t81 19.5t77.5 -19.5t57.5 -55t22 -82.5q0 -49 -25 -85.5t-73 -71.5q38 -7 66 -10.5t60.5 -4.5t81.5 -1q7 0 11 -4t4 -11v-20q0 -30 -30 -30
q-52 0 -89.5 2.5t-66.5 7.5t-55.5 13t-57.5 20q-26 -11 -49.5 -19.5t-51.5 -13.5t-65.5 -7.5t-91.5 -2.5zM266 106q50 27 76 60.5t26 67.5q0 45 -27 71.5t-75 26.5q-40 0 -72.5 -25t-32.5 -70q0 -46 30 -75.5t75 -55.5z" />
    <glyph glyph-name="uni06A1.fina" unicode="&#x6a1;" horiz-adv-x="1080" 
d="M319 0q-63 0 -109.5 12.5t-77.5 36.5t-46.5 58t-15.5 77q0 30 9 63t24 67q6 14 13 19.5t17 0.5l18 -8q5 -2 11 -5.5t1 -14.5q-31 -66 -31 -112q0 -66 52 -97.5t146 -31.5h219q58 0 106.5 4.5t76.5 11.5q-29 20 -56.5 59t-28.5 93q0 53 24 90t62 56.5t80 19.5t77.5 -19.5
t57.5 -55t22 -82.5t-24 -86t-77 -75q31 -7 60 -10.5t67 -4.5t94 -1q7 0 11 -4t4 -11v-20q0 -30 -30 -30q-49 0 -89.5 2.5t-74.5 7.5t-63 13t-55 20q-32 -12 -59.5 -20.5t-56 -13.5t-63 -7t-80.5 -2h-215zM805 104q53 26 79 62t26 70q0 45 -27 71.5t-75 26.5q-40 0 -70.5 -25
t-30.5 -70q0 -44 24 -75.5t74 -59.5z" />
    <glyph glyph-name="uniFB6C" unicode="&#x6a4;" horiz-adv-x="450" arabic-form="initial" 
d="M3 0q-14 0 -18.5 5t-4 11.5t0.5 11.5v16q0 15 3.5 18t18.5 3h223q54 0 85 18.5t43 63t9 122.5l14 -15q-25 -31 -64 -44t-73 -13q-48 0 -82.5 18.5t-52.5 52t-18 77.5q0 48 23 84t59.5 56t75.5 20q60 0 98.5 -30.5t57.5 -84.5t19 -124q0 -63 -9 -112.5t-31.5 -84
t-63.5 -52t-106 -17.5h-207zM239 262q32 0 66 12t58 34q-1 29 -14 60.5t-40 53.5t-70 22q-32 0 -54.5 -15t-33.5 -37t-11 -42q0 -43 29.5 -65.5t69.5 -22.5zM254 753q-4 -4 -9 -3.5t-10 4.5l-30 30q-9 10 0 19l30 30q9 9 18 0l30 -30q11 -10 1 -20zM182 627q-4 -4 -10 -4
t-11 5l-31 32q-4 5 -4 10.5t4 10.5l31 32q10 11 21 0l32 -32q5 -4 5.5 -10.5t-4.5 -11.5zM329 627q-4 -5 -10 -4t-11 5l-33 32q-4 4 -4 10.5t4 10.5l33 32q10 10 20 0l32 -32q5 -4 5 -10.5t-5 -11.5z" />
    <glyph glyph-name="uniFB6D" unicode="&#x6a4;" horiz-adv-x="527" arabic-form="medial" 
d="M-5 0q-15 0 -15 15v20q0 14 8 22t22 8q48 0 81.5 2t58 6t44.5 9q-21 14 -42.5 34t-36 48t-15.5 65q0 53 25 90t64 56.5t81 19.5t77.5 -19.5t57.5 -55t22 -82.5q0 -49 -25 -85.5t-73 -71.5q38 -7 66 -10.5t60.5 -4.5t81.5 -1q7 0 11 -4t4 -11v-20q0 -30 -30 -30
q-52 0 -89.5 2.5t-66.5 7.5t-55.5 13t-57.5 20q-26 -11 -49.5 -19.5t-51.5 -13.5t-65.5 -7.5t-91.5 -2.5zM266 106q50 27 76 60.5t26 67.5q0 45 -27 71.5t-75 26.5q-40 0 -72.5 -25t-32.5 -70q0 -46 30 -75.5t75 -55.5zM280 630q-4 -4 -9 -3.5t-10 4.5l-30 30q-9 10 0 19
l30 30q9 9 18 0l30 -30q11 -10 1 -20zM208 504q-4 -4 -10 -4t-11 5l-31 32q-4 5 -4 10.5t4 10.5l31 32q10 11 21 0l32 -32q5 -4 5.5 -10.5t-4.5 -11.5zM355 504q-4 -5 -10 -4t-11 5l-33 32q-4 4 -4 10.5t4 10.5l33 32q10 10 20 0l32 -32q5 -4 5 -10.5t-5 -11.5z" />
    <glyph glyph-name="uniFB6B" unicode="&#x6a4;" horiz-adv-x="1080" arabic-form="final" 
d="M319 0q-63 0 -109.5 12.5t-77.5 36.5t-46.5 58t-15.5 77q0 30 9 63t24 67q6 14 13 19.5t17 0.5l18 -8q5 -2 11 -5.5t1 -14.5q-31 -66 -31 -112q0 -66 52 -97.5t146 -31.5h219q58 0 106.5 4.5t76.5 11.5q-29 20 -56.5 59t-28.5 93q0 53 24 90t62 56.5t80 19.5t77.5 -19.5
t57.5 -55t22 -82.5t-24 -86t-77 -75q31 -7 60 -10.5t67 -4.5t94 -1q7 0 11 -4t4 -11v-20q0 -30 -30 -30q-49 0 -89.5 2.5t-74.5 7.5t-63 13t-55 20q-32 -12 -59.5 -20.5t-56 -13.5t-63 -7t-80.5 -2h-215zM805 104q53 26 79 62t26 70q0 45 -27 71.5t-75 26.5q-40 0 -70.5 -25
t-30.5 -70q0 -44 24 -75.5t74 -59.5zM822 647q-4 -4 -9 -3.5t-10 4.5l-30 30q-9 10 0 19l30 30q9 9 18 0l30 -30q11 -10 1 -20zM750 521q-4 -4 -10 -4t-11 5l-31 32q-4 5 -4 10.5t4 10.5l31 32q10 11 21 0l32 -32q5 -4 5.5 -10.5t-4.5 -11.5zM897 521q-4 -5 -10 -4t-11 5
l-33 32q-4 4 -4 10.5t4 10.5l33 32q10 10 20 0l32 -32q5 -4 5 -10.5t-5 -11.5z" />
    <glyph glyph-name="uniFB57" unicode="&#x67e;" horiz-adv-x="953" arabic-form="final" 
d="M341 0q-97 0 -156.5 22t-87 65t-27.5 105q0 57 35 136q3 8 8 10.5t16 -2.5l21 -8q7 -2 9.5 -6.5t-1.5 -15.5q-10 -27 -19 -56t-9 -61q0 -70 57.5 -97t153.5 -27h227q104 0 149.5 30.5t45.5 110.5v79q0 20 20 20h20q20 0 20 -20v-79q0 -56 12.5 -86.5t38 -42.5t64.5 -12
h25q15 0 15 -15v-20q0 -30 -30 -30q-61 0 -100.5 22.5t-61.5 77.5q-15 -37 -45 -59t-74.5 -31.5t-103.5 -9.5h-222zM367 -169l-32 32q-4 5 -4.5 11.5t4.5 10.5l31 32q5 5 11 4.5t10 -5.5l33 -32q5 -4 5 -10t-5 -11l-33 -32q-4 -4 -9.5 -4t-10.5 4zM513 -169l-32 32
q-4 5 -4.5 11.5t3.5 10.5l33 32q5 5 10.5 4.5t10.5 -5.5l31 -32q5 -4 5 -10t-5 -11l-31 -32q-5 -4 -10.5 -4t-10.5 4zM442 -289l-30 30q-5 5 -5 10.5t4 9.5l30 30q4 5 9.5 4.5t9.5 -5.5l30 -30q5 -4 5 -9t-5 -10l-30 -30q-9 -11 -18 0z" />
    <glyph glyph-name="uniFB58" unicode="&#x67e;" horiz-adv-x="261" arabic-form="initial" 
d="M-2 0q-10 0 -14 6.5t-4 13.5v25q0 14 8 17t22 3h14q54 0 76 28.5t22 85.5q0 20 -1.5 37t-6.5 36l-18 75q-2 9 2 14t13 7l20 5q18 4 22 -15l18 -81q5 -19 7.5 -45.5t2.5 -37.5q0 -78 -36.5 -126t-107.5 -48h-39zM-7 -169l-32 32q-4 5 -4.5 11.5t4.5 10.5l31 32q5 5 11 4.5
t10 -5.5l33 -32q5 -4 5 -10t-5 -11l-33 -32q-4 -4 -9.5 -4t-10.5 4zM139 -169l-32 32q-4 5 -4.5 11.5t3.5 10.5l33 32q5 5 10.5 4.5t10.5 -5.5l31 -32q5 -4 5 -10t-5 -11l-31 -32q-5 -4 -10.5 -4t-10.5 4zM68 -289l-30 30q-5 5 -5 10.5t4 9.5l30 30q4 5 9.5 4.5t9.5 -5.5
l30 -30q5 -4 5 -9t-5 -10l-30 -30q-9 -11 -18 0z" />
    <glyph glyph-name="uniFB59" unicode="&#x67e;" horiz-adv-x="320" arabic-form="medial" 
d="M-5 0q-15 0 -15 16v19q0 30 30 30h15q49 0 77 24t28 93v103q0 20 20 20h20q20 0 20 -20v-103q0 -70 31.5 -93.5t87.5 -23.5h21q15 0 15 -15v-20q0 -30 -30 -30q-49 0 -92 18t-70 69q-22 -51 -65.5 -69t-92.5 -18zM77 -168l-32 32q-4 5 -4.5 11.5t4.5 10.5l31 32
q5 5 11 4.5t10 -5.5l33 -32q5 -4 5 -10t-5 -11l-33 -32q-4 -4 -9.5 -4t-10.5 4zM223 -168l-32 32q-4 5 -4.5 11.5t3.5 10.5l33 32q5 5 10.5 4.5t10.5 -5.5l31 -32q5 -4 5 -10t-5 -11l-31 -32q-5 -4 -10.5 -4t-10.5 4zM152 -288l-30 30q-5 5 -5 10.5t4 9.5l30 30q4 5 9.5 4.5
t9.5 -5.5l30 -30q5 -4 5 -9t-5 -10l-30 -30q-9 -11 -18 0z" />
    <glyph glyph-name="uniFB7B" unicode="&#x686;" horiz-adv-x="665" arabic-form="final" 
d="M356 -360q-70 0 -123.5 17t-90.5 49.5t-55.5 80.5t-17.5 110q1 60 35.5 119.5t96 111t142.5 86.5t174 46l21 -41q-123 -25 -203 -65.5t-126 -87.5t-65 -92t-19 -80q0 -56 21.5 -99.5t74 -67.5t143.5 -24h151q23 0 23 -23v-17q0 -23 -23 -23h-159zM580 0q-51 0 -89 16.5
t-62 58t-33 117.5l42 5q7 -47 22 -76.5t44 -42.5t78 -13h114q7 0 12.5 -4t5.5 -11l1 -21q2 -29 -27 -29h-108zM515 216v10q-48 -1 -83 8.5t-62 24t-51.5 29.5t-51.5 25.5t-62 10.5q-37 0 -54 -13.5t-27 -30.5q-4 -8 -9 -12.5t-17 -4.5h-12q-21 0 -21 20q0 13 7.5 30
t24.5 33.5t44.5 27t67.5 10.5q39 0 71 -10.5t61 -26t58.5 -31.5t63.5 -26.5t77 -10.5h29q14 0 18 -5.5t4 -19.5v-16q0 -10 -6 -16t-17 -6h-53zM254 -108l-28 29q-5 4 -5 10t5 10l27 29q10 8 19 -1l30 -29q4 -3 4 -9t-4 -10l-30 -29q-4 -4 -8.5 -4t-9.5 4zM386 -108l-29 29
q-4 4 -4.5 10t3.5 10l30 29q4 4 9 3.5t10 -4.5l28 -29q4 -3 4 -9t-4 -10l-28 -29q-11 -8 -19 0zM322 -216l-27 27q-5 5 -5 10t4 8l27 27q3 5 8.5 4.5t8.5 -5.5l27 -27q9 -7 0 -17l-27 -27q-8 -9 -16 0z" />
    <glyph glyph-name="uniFB7C" unicode="&#x686;" horiz-adv-x="684" arabic-form="initial" 
d="M-5 0q-15 0 -15 15v20q0 30 30 30h112q59 0 108 8.5t92.5 25.5t87.5 42l103 59l68 -21l-153 -88q-31 -18 -60.5 -34t-64.5 -29t-80.5 -20.5t-107.5 -7.5h-120zM566 176v3q-55 0 -96 10.5t-73 26t-60 31.5t-57 26.5t-65 10.5q-37 0 -54 -13.5t-27 -30.5q-4 -8 -9 -12.5
t-17 -4.5h-12q-21 0 -21 20q0 18 13.5 41.5t45.5 41.5t85 18q40 0 73 -10.5t63 -26t60.5 -31.5t65.5 -26.5t79 -10.5h52q14 0 18 -5.5t4 -19.5v-16q0 -10 -6 -16t-17 -6h-45zM377 -118l-32 32q-4 5 -4.5 11.5t4.5 10.5l31 32q5 5 11 4.5t10 -5.5l33 -32q5 -4 5 -10t-5 -11
l-33 -32q-4 -4 -9.5 -4t-10.5 4zM523 -118l-32 32q-4 5 -4.5 11.5t3.5 10.5l33 32q5 5 10.5 4.5t10.5 -5.5l31 -32q5 -4 5 -10t-5 -11l-31 -32q-5 -4 -10.5 -4t-10.5 4zM452 -238l-30 30q-5 5 -5 10.5t4 9.5l30 30q4 5 9.5 4.5t9.5 -5.5l30 -30q5 -4 5 -9t-5 -10l-30 -30
q-9 -11 -18 0z" />
    <glyph glyph-name="uniFB7D" unicode="&#x686;" horiz-adv-x="728" arabic-form="medial" 
d="M-5 0q-15 0 -15 15v20q0 30 30 30h112q89 0 155.5 19t132.5 57l103 59l68 -21l-153 -88q-41 -23 -81.5 -44t-94.5 -34t-137 -13h-120zM687 0q-49 0 -91.5 13.5t-68.5 49.5t-27 103l38 29q0 -47 12 -73.5t33 -38.5t49 -15t60 -3h46q9 0 12 -6.5t3 -13.5v-20
q0 -14 -8 -19.5t-22 -5.5h-36zM580 176l-14 3q-55 0 -96 10.5t-73 26t-60 31.5t-57 26.5t-65 10.5q-37 0 -54 -13.5t-27 -30.5q-4 -8 -9 -12.5t-17 -4.5h-12q-21 0 -21 20q0 13 7.5 30t24.5 33.5t44.5 27t67.5 10.5t73 -10.5t63 -26t60.5 -31.5t65.5 -26.5t79 -10.5h52
q14 0 18 -5.5t4 -19.5v-16q0 -10 -6 -16t-17 -6h-31zM348 -118l-32 32q-4 5 -4.5 11.5t4.5 10.5l31 32q5 5 11 4.5t10 -5.5l33 -32q5 -4 5 -10t-5 -11l-33 -32q-4 -4 -9.5 -4t-10.5 4zM494 -118l-32 32q-4 5 -4.5 11.5t3.5 10.5l33 32q5 5 10.5 4.5t10.5 -5.5l31 -32
q5 -4 5 -10t-5 -11l-31 -32q-5 -4 -10.5 -4t-10.5 4zM423 -238l-30 30q-5 5 -5 10.5t4 9.5l30 30q4 5 9.5 4.5t9.5 -5.5l30 -30q5 -4 5 -9t-5 -10l-30 -30q-9 -11 -18 0z" />
    <glyph glyph-name="uniFB8B" unicode="&#x698;" horiz-adv-x="400" arabic-form="final" 
d="M-30 -245q-10 0 -15 5.5t-5 16.5v23q0 10 5.5 15t16.5 5h38q103 0 151.5 60.5t48.5 163.5q0 33 -5.5 69.5t-15.5 76.5l-16 64q-2 9 0.5 16t13.5 10l19 5q9 2 13.5 1t7.5 -4.5t4 -9.5l29 -117q9 -35 30 -55t47 -27.5t50 -7.5h20q18 0 18 -15v-20q0 -30 -30 -30
q-47 0 -83 11t-49 26q-1 -50 -12.5 -100t-39.5 -91t-77 -66t-124 -25h-40zM166 511q-4 -4 -9 -3.5t-10 4.5l-30 30q-9 10 0 19l30 30q9 9 18 0l30 -30q11 -10 1 -20zM94 385q-4 -4 -10 -4t-11 5l-31 32q-4 5 -4 10.5t4 10.5l31 32q10 11 21 0l32 -32q5 -4 5.5 -10.5
t-4.5 -11.5zM241 385q-4 -5 -10 -4t-11 5l-33 32q-4 4 -4 10.5t4 10.5l33 32q10 10 20 0l32 -32q5 -4 5 -10.5t-5 -11.5z" />
    <glyph glyph-name="uniFB8F" unicode="&#x6a9;" horiz-adv-x="994" arabic-form="final" 
d="M319 0q-84 0 -139 22t-82.5 63t-27.5 99q0 30 9 63t24 67q12 28 30 20l18 -8q5 -2 11 -5.5t1 -14.5q-31 -66 -31 -112q0 -66 52 -97.5t146 -31.5h295q62 0 89.5 19t27.5 47q0 17 -7.5 36t-39.5 57l-195 236q-10 11 -14 21t-4 23v11q0 22 22 35l352 205q10 6 16 1.5
t5 -15.5l-1 -23q-1 -10 -4.5 -16.5t-14.5 -13.5l-318 -184l275 -333q27 -32 47 -53t40 -32.5t44.5 -16t58.5 -4.5q15 0 15 -15v-20q0 -30 -30 -30q-25 0 -50.5 6t-51.5 20.5t-51.5 38t-51.5 59.5q-1 -49 -25 -76t-62 -37.5t-83 -10.5h-295z" />
    <glyph glyph-name="uniFB90" unicode="&#x6a9;" horiz-adv-x="425" arabic-form="initial" 
d="M-5 0q-15 0 -15 15v20q0 30 30 30h181q63 0 93.5 28.5t30.5 71.5q0 28 -13.5 50.5t-39.5 44.5l-220 194q-11 11 -14.5 21t-3.5 23v17q0 12 5.5 20t16.5 15l352 205q10 6 16 1.5t5 -15.5l-1 -23q-1 -10 -4.5 -16.5t-14.5 -13.5l-321 -187l220 -196q23 -20 39 -42t25 -46
t9 -51q0 -56 -28 -93t-73 -55t-98 -18h-177z" />
    <glyph glyph-name="uniFB91" unicode="&#x6a9;" horiz-adv-x="526" arabic-form="medial" 
d="M-5 0q-15 0 -15 15v20q0 30 30 30h147q62 0 89.5 19t27.5 47q0 17 -7.5 36t-39.5 57l-195 236q-10 11 -14 21t-4 23v11q0 22 22 35l352 205q10 6 16 1.5t5 -15.5l-1 -23q-1 -10 -4.5 -16.5t-14.5 -13.5l-318 -184l275 -333q27 -32 47 -53t40 -32.5t44.5 -16t58.5 -4.5
q15 0 15 -15v-20q0 -30 -30 -30q-25 0 -50.5 6t-51.5 20.5t-51.5 38t-51.5 59.5q-1 -49 -25 -76t-62 -37.5t-83 -10.5h-151z" />
    <glyph glyph-name="uniFB93" unicode="&#x6af;" horiz-adv-x="994" arabic-form="final" 
d="M499 604q-10 -6 -16 -1.5t-5 15.5l1 8q2 11 5 17t14 13l354 206q10 6 16.5 1.5t4.5 -15.5l-1 -8q-1 -10 -4.5 -16.5t-14.5 -13.5zM319 0q-84 0 -139 22t-82.5 63t-27.5 99q0 30 9 63t24 67q12 28 30 20l18 -8q5 -2 11 -5.5t1 -14.5q-31 -66 -31 -112q0 -66 52 -97.5
t146 -31.5h295q62 0 89.5 19t27.5 47q0 17 -7.5 36t-39.5 57l-195 236q-10 11 -14 21t-4 23v11q0 22 22 35l352 205q10 6 16 1.5t5 -15.5l-1 -23q-1 -10 -4.5 -16.5t-14.5 -13.5l-318 -184l275 -333q27 -32 47 -53t40 -32.5t44.5 -16t58.5 -4.5q15 0 15 -15v-20
q0 -30 -30 -30q-25 0 -50.5 6t-51.5 20.5t-51.5 38t-51.5 59.5q-1 -49 -25 -76t-62 -37.5t-83 -10.5h-295z" />
    <glyph glyph-name="uniFB94" unicode="&#x6af;" horiz-adv-x="425" arabic-form="initial" 
d="M41 604q-10 -6 -16 -1.5t-5 15.5l1 8q2 11 5 17t14 13l354 206q10 6 16.5 1.5t4.5 -15.5l-1 -8q-1 -10 -4.5 -16.5t-14.5 -13.5zM-5 0q-15 0 -15 15v20q0 30 30 30h181q63 0 93.5 28.5t30.5 71.5q0 28 -13.5 50.5t-39.5 44.5l-220 194q-11 11 -14.5 21t-3.5 23v17
q0 12 5.5 20t16.5 15l352 205q10 6 16 1.5t5 -15.5l-1 -23q-1 -10 -4.5 -16.5t-14.5 -13.5l-321 -187l220 -196q23 -20 39 -42t25 -46t9 -51q0 -56 -28 -93t-73 -55t-98 -18h-177z" />
    <glyph glyph-name="uniFB95" unicode="&#x6af;" horiz-adv-x="526" arabic-form="medial" 
d="M31 604q-10 -6 -16 -1.5t-5 15.5l1 8q2 11 5 17t14 13l354 206q10 6 16.5 1.5t4.5 -15.5l-1 -8q-1 -10 -4.5 -16.5t-14.5 -13.5zM-5 0q-15 0 -15 15v20q0 30 30 30h147q62 0 89.5 19t27.5 47q0 17 -7.5 36t-39.5 57l-195 236q-10 11 -14 21t-4 23v11q0 22 22 35l352 205
q10 6 16 1.5t5 -15.5l-1 -23q-1 -10 -4.5 -16.5t-14.5 -13.5l-318 -184l275 -333q27 -32 47 -53t40 -32.5t44.5 -16t58.5 -4.5q15 0 15 -15v-20q0 -30 -30 -30q-25 0 -50.5 6t-51.5 20.5t-51.5 38t-51.5 59.5q-1 -49 -25 -76t-62 -37.5t-83 -10.5h-151z" />
    <glyph glyph-name="uniFB9F" unicode="&#x6ba;" horiz-adv-x="678" arabic-form="final" 
d="M306 -191q-80 0 -136 30t-85 83.5t-29 125.5q0 29 7 67.5t16 61.5q7 17 13.5 23.5t16.5 3.5l16 -5q14 -4 16.5 -10t-0.5 -15q-12 -28 -17.5 -64.5t-5.5 -61.5q0 -82 53 -128t135 -46q110 0 164.5 60t48.5 157q-2 32 -10.5 64t-17.5 75q-6 24 14 29l17 5q13 4 18.5 -2
t9.5 -21q5 -22 11.5 -45t12.5 -53q9 -44 29 -61t71 -17h14q15 0 15 -15v-20q0 -30 -30 -30q-31 0 -55 5.5t-44 25.5q-8 -73 -48.5 -122.5t-98.5 -74.5t-121 -25z" />
    <glyph glyph-name="uniFBFD" unicode="&#x6cc;" horiz-adv-x="656" arabic-form="final" 
d="M339 -226q-70 0 -122.5 17.5t-87 49.5t-51.5 75t-17 94q0 39 15 86t51 98q5 8 12 8.5t14 -3.5l17 -11q7 -4 9 -11t-5 -17q-27 -40 -39 -72.5t-12 -73.5q0 -49 22 -89t69.5 -63t124.5 -23h94q74 0 122.5 22t48.5 71q0 31 -19 49.5t-50 18.5h-47q-20 0 -20 21v22
q0 22 20 22h179q14 0 14 -15v-24q0 -26 -28 -26h-35l-64 52q52 -21 78.5 -50t26.5 -70q0 -24 -10.5 -51t-36 -51.5t-69.5 -40t-111 -15.5h-93z" />
    <glyph glyph-name="uniFBFE" unicode="&#x6cc;" horiz-adv-x="251" arabic-form="initial" 
d="M-5 0q-7 0 -11 6t-4 13v20q0 26 30 26h14q62 0 83.5 38.5t13.5 97.5q-3 25 -9.5 51t-12.5 54q-4 16 -1 23.5t13 9.5l22 5q14 3 19.5 -7t7.5 -21q4 -16 8 -33.5t7.5 -37.5t5.5 -44q6 -63 -8.5 -108t-57 -69t-120.5 -24zM50 -180q-4 -4 -10 -3.5t-11 4.5l-32 32
q-4 4 -4 10.5t4 10.5l32 32q5 5 10.5 5t10.5 -5l32 -32q5 -4 5.5 -10.5t-4.5 -11.5zM187 -180q-4 -4 -10 -3.5t-11 4.5l-33 32q-4 4 -4 10.5t4 10.5l33 32q5 5 10.5 5t9.5 -5l32 -32q5 -4 5.5 -10.5t-4.5 -11.5z" />
    <glyph glyph-name="uniFBFF" unicode="&#x6cc;" horiz-adv-x="320" arabic-form="medial" 
d="M-5 0q-15 0 -15 16v19q0 30 30 30q66 0 93 25t27 92v103q0 20 20 20h20q20 0 20 -20v-103q0 -47 14 -72.5t44.5 -35t81.5 -9.5q15 0 15 -15v-20q0 -30 -30 -30q-46 0 -89 18t-70 69q-24 -51 -68 -69t-93 -18zM99 -176q-4 -4 -10 -3.5t-11 4.5l-32 32q-4 4 -4 10.5t4 10.5
l32 32q5 5 10.5 5t10.5 -5l32 -32q5 -4 5.5 -10.5t-4.5 -11.5zM236 -176q-4 -4 -10 -3.5t-11 4.5l-33 32q-4 4 -4 10.5t4 10.5l33 32q5 5 10.5 5t9.5 -5l32 -32q5 -4 5.5 -10.5t-4.5 -11.5z" />
    <glyph glyph-name="uniFC03" unicode="&#xfc03;" horiz-adv-x="946" arabic-form="isolated" 
d="M680 505q-9 -2 -13 1.5t-4 11.5v13q0 13 4 17t14 7l31 9q-10 8 -17 21t-7 29q0 38 27 62t67 24q13 0 25 -2.5t19 -6.5q12 -7 12 -17v-20q0 -13 -11 -8t-23.5 7.5t-24.5 2.5q-20 0 -33 -9.5t-13 -25.5q0 -22 22 -32t59 -1l33 8q11 3 15 -0.5t4 -12.5v-15q0 -14 -13 -18z
M329 -152q-66 0 -116.5 17.5t-84 49t-50.5 74.5t-17 94q0 39 15 86t51 98q5 8 12 9t14 -4l17 -11q7 -4 9 -11t-5 -17q-27 -40 -39 -72.5t-12 -73.5q0 -49 21.5 -89t67 -63t117.5 -23h144q74 0 122.5 27.5t48.5 83.5q0 49 -26.5 69.5t-64.5 20.5h-55q-20 0 -20 21v22
q0 22 20 22h166q62 0 85.5 27.5t23.5 84.5q0 20 -1.5 37t-6.5 36l-15 63q-2 9 2 14t13 7l20 5q18 4 22 -15l15 -69q5 -19 7.5 -45.5t2.5 -37.5q0 -78 -38 -125t-117 -47h-35l15 11q22 -18 32 -40t10 -63q0 -44 -23.5 -84t-73.5 -64.5t-130 -24.5h-143z" />
    <glyph glyph-name="uniFC04" unicode="&#xfc04;" horiz-adv-x="946" arabic-form="isolated" 
d="M680 505q-9 -2 -13 1.5t-4 11.5v13q0 13 4 17t14 7l31 9q-10 8 -17 21t-7 29q0 38 27 62t67 24q13 0 25 -2.5t19 -6.5q12 -7 12 -17v-20q0 -13 -11 -8t-23.5 7.5t-24.5 2.5q-20 0 -33 -9.5t-13 -25.5q0 -22 22 -32t59 -1l33 8q11 3 15 -0.5t4 -12.5v-15q0 -14 -13 -18z
M341 -334q-4 -4 -10 -3.5t-11 4.5l-32 32q-4 4 -4 10.5t4 10.5l32 32q5 5 10.5 5t10.5 -5l32 -32q5 -4 5.5 -10.5t-4.5 -11.5zM478 -334q-4 -4 -10 -3.5t-11 4.5l-33 32q-4 4 -4 10.5t4 10.5l33 32q5 5 10.5 5t9.5 -5l32 -32q5 -4 5.5 -10.5t-4.5 -11.5zM329 -152
q-66 0 -116.5 17.5t-84 49t-50.5 74.5t-17 94q0 39 15 86t51 98q5 8 12 9t14 -4l17 -11q7 -4 9 -11t-5 -17q-27 -40 -39 -72.5t-12 -73.5q0 -49 21.5 -89t67 -63t117.5 -23h144q74 0 122.5 27.5t48.5 83.5q0 49 -26.5 69.5t-64.5 20.5h-55q-20 0 -20 21v22q0 22 20 22h166
q62 0 85.5 27.5t23.5 84.5q0 20 -1.5 37t-6.5 36l-15 63q-2 9 2 14t13 7l20 5q18 4 22 -15l15 -69q5 -19 7.5 -45.5t2.5 -37.5q0 -78 -38 -125t-117 -47h-35l15 11q22 -18 32 -40t10 -63q0 -44 -23.5 -84t-73.5 -64.5t-130 -24.5h-143z" />
    <glyph glyph-name="uniFC09" unicode="&#xfc09;" horiz-adv-x="906" arabic-form="isolated" 
d="M810 -22q-4 -4 -10 -3.5t-11 4.5l-32 32q-4 5 -4 11t4 10l32 32q5 5 10.5 5t9.5 -5l32 -32q5 -5 5.5 -11t-4.5 -11zM329 -152q-66 0 -116.5 17.5t-84 49t-50.5 74.5t-17 94q0 39 15 86t51 98q5 8 12 9t14 -4l17 -11q7 -4 9 -11t-5 -17q-27 -40 -39 -72.5t-12 -73.5
q0 -49 21.5 -89t67 -63t117.5 -23h144q74 0 122.5 27.5t48.5 83.5q0 49 -26.5 69.5t-64.5 20.5h-55q-20 0 -20 21v22q0 22 20 22h166q62 0 85.5 27.5t23.5 84.5q0 20 -1.5 37t-6.5 36l-15 63q-2 9 2 14t13 7l20 5q18 4 22 -15l15 -69q5 -19 7.5 -45.5t2.5 -37.5
q0 -78 -38 -125t-117 -47h-35l15 11q22 -18 32 -40t10 -63q0 -44 -23.5 -84t-73.5 -64.5t-130 -24.5h-143z" />
    <glyph glyph-name="uniFC0A" unicode="&#xfc0a;" horiz-adv-x="926" arabic-form="isolated" 
d="M341 -334q-4 -4 -10 -3.5t-11 4.5l-32 32q-4 4 -4 10.5t4 10.5l32 32q5 5 10.5 5t10.5 -5l32 -32q5 -4 5.5 -10.5t-4.5 -11.5zM478 -334q-4 -4 -10 -3.5t-11 4.5l-33 32q-4 4 -4 10.5t4 10.5l33 32q5 5 10.5 5t9.5 -5l32 -32q5 -4 5.5 -10.5t-4.5 -11.5zM329 -152
q-66 0 -116.5 17.5t-84 49t-50.5 74.5t-17 94q0 39 15 86t51 98q5 8 12 9t14 -4l17 -11q7 -4 9 -11t-5 -17q-27 -40 -39 -72.5t-12 -73.5q0 -49 21.5 -89t67 -63t117.5 -23h144q74 0 122.5 27.5t48.5 83.5q0 49 -26.5 69.5t-64.5 20.5h-55q-20 0 -20 21v22q0 22 20 22h166
q62 0 85.5 27.5t23.5 84.5q0 20 -1.5 37t-6.5 36l-15 63q-2 9 2 14t13 7l20 5q18 4 22 -15l15 -69q5 -19 7.5 -45.5t2.5 -37.5q0 -78 -38 -125t-117 -47h-35l15 11q22 -18 32 -40t10 -63q0 -44 -23.5 -84t-73.5 -64.5t-130 -24.5h-143zM810 -22q-4 -4 -10 -3.5t-11 4.5
l-32 32q-4 5 -4 11t4 10l32 32q5 5 10.5 5t9.5 -5l32 -32q5 -5 5.5 -11t-4.5 -11z" />
    <glyph glyph-name="uniFC0F" unicode="&#xfc0f;" horiz-adv-x="904" arabic-form="isolated" 
d="M329 -152q-66 0 -116.5 17.5t-84 49t-50.5 74.5t-17 94q0 39 15 86t51 98q5 8 12 9t14 -4l17 -11q7 -4 9 -11t-5 -17q-27 -40 -39 -72.5t-12 -73.5q0 -49 21.5 -89t67 -63t117.5 -23h144q74 0 122.5 27.5t48.5 83.5q0 49 -26.5 69.5t-64.5 20.5h-55q-20 0 -20 21v22
q0 22 20 22h137q77 0 102.5 27.5t25.5 84.5q0 20 -1.5 37t-6.5 36l-15 63q-2 9 2 14t13 7l20 5q18 4 22 -15l15 -69q5 -19 7.5 -45.5t2.5 -37.5q0 -78 -39.5 -125t-125.5 -47h-15l15 11q22 -18 32 -40t10 -63q0 -44 -23.5 -84t-73.5 -64.5t-130 -24.5h-143zM690 554
q-4 -4 -10 -4t-11 5l-31 32q-4 5 -4 10.5t4 10.5l31 32q5 5 11 5t10 -5l32 -32q5 -4 5.5 -10.5t-4.5 -11.5zM837 554q-4 -5 -10 -4t-11 5l-33 32q-4 4 -4 10.5t4 10.5l33 32q5 5 10 5t10 -5l32 -32q5 -4 5 -10.5t-5 -11.5z" />
    <glyph glyph-name="uniFC10" unicode="&#xfc10;" horiz-adv-x="904" arabic-form="isolated" 
d="M341 -334q-4 -4 -10 -3.5t-11 4.5l-32 32q-4 4 -4 10.5t4 10.5l32 32q5 5 10.5 5t10.5 -5l32 -32q5 -4 5.5 -10.5t-4.5 -11.5zM478 -334q-4 -4 -10 -3.5t-11 4.5l-33 32q-4 4 -4 10.5t4 10.5l33 32q5 5 10.5 5t9.5 -5l32 -32q5 -4 5.5 -10.5t-4.5 -11.5zM329 -152
q-66 0 -116.5 17.5t-84 49t-50.5 74.5t-17 94q0 39 15 86t51 98q5 8 12 9t14 -4l17 -11q7 -4 9 -11t-5 -17q-27 -40 -39 -72.5t-12 -73.5q0 -49 21.5 -89t67 -63t117.5 -23h144q74 0 122.5 27.5t48.5 83.5q0 49 -26.5 69.5t-64.5 20.5h-55q-20 0 -20 21v22q0 22 20 22h137
q77 0 102.5 27.5t25.5 84.5q0 20 -1.5 37t-6.5 36l-15 63q-2 9 2 14t13 7l20 5q18 4 22 -15l15 -69q5 -19 7.5 -45.5t2.5 -37.5q0 -78 -39.5 -125t-125.5 -47h-15l15 11q22 -18 32 -40t10 -63q0 -44 -23.5 -84t-73.5 -64.5t-130 -24.5h-143zM690 554q-4 -4 -10 -4t-11 5
l-31 32q-4 5 -4 10.5t4 10.5l31 32q5 5 11 5t10 -5l32 -32q5 -4 5.5 -10.5t-4.5 -11.5zM837 554q-4 -5 -10 -4t-11 5l-33 32q-4 4 -4 10.5t4 10.5l33 32q5 5 10 5t10 -5l32 -32q5 -4 5 -10.5t-5 -11.5z" />
    <glyph glyph-name="uniFC13" unicode="&#xfc13;" horiz-adv-x="900" arabic-form="isolated" 
d="M329 -152q-66 0 -116.5 17.5t-84 49t-50.5 74.5t-17 94q0 39 15 86t51 98q5 8 12 9t14 -4l17 -11q7 -4 9 -11t-5 -17q-27 -40 -39 -72.5t-12 -73.5q0 -49 21.5 -89t67 -63t117.5 -23h144q74 0 122.5 27.5t48.5 83.5q0 49 -26.5 69.5t-64.5 20.5h-55q-20 0 -20 21v22
q0 22 20 22h137q77 0 102.5 27.5t25.5 84.5q0 20 -1.5 37t-6.5 36l-15 63q-2 9 2 14t13 7l20 5q18 4 22 -15l15 -69q5 -19 7.5 -45.5t2.5 -37.5q0 -78 -39.5 -125t-125.5 -47h-15l15 11q22 -18 32 -40t10 -63q0 -44 -23.5 -84t-73.5 -64.5t-130 -24.5h-143zM758 675
q-4 -4 -9 -3.5t-10 4.5l-30 30q-4 5 -4 10t4 9l30 30q9 9 18 0l30 -30q5 -5 5.5 -10t-4.5 -10zM686 549q-4 -4 -10 -4t-11 5l-31 32q-4 5 -4 10.5t4 10.5l31 32q10 11 21 0l32 -32q5 -4 5.5 -10.5t-4.5 -11.5zM833 549q-4 -5 -10 -4t-11 5l-33 32q-4 4 -4 10.5t4 10.5l33 32
q10 10 20 0l32 -32q10 -10 0 -22z" />
    <glyph glyph-name="uniFC14" unicode="&#xfc14;" horiz-adv-x="900" arabic-form="isolated" 
d="M341 -334q-4 -4 -10 -3.5t-11 4.5l-32 32q-4 4 -4 10.5t4 10.5l32 32q5 5 10.5 5t10.5 -5l32 -32q5 -4 5.5 -10.5t-4.5 -11.5zM478 -334q-4 -4 -10 -3.5t-11 4.5l-33 32q-4 4 -4 10.5t4 10.5l33 32q5 5 10.5 5t9.5 -5l32 -32q5 -4 5.5 -10.5t-4.5 -11.5zM329 -152
q-66 0 -116.5 17.5t-84 49t-50.5 74.5t-17 94q0 39 15 86t51 98q5 8 12 9t14 -4l17 -11q7 -4 9 -11t-5 -17q-27 -40 -39 -72.5t-12 -73.5q0 -49 21.5 -89t67 -63t117.5 -23h144q74 0 122.5 27.5t48.5 83.5q0 49 -26.5 69.5t-64.5 20.5h-55q-20 0 -20 21v22q0 22 20 22h137
q77 0 102.5 27.5t25.5 84.5q0 20 -1.5 37t-6.5 36l-15 63q-2 9 2 14t13 7l20 5q18 4 22 -15l15 -69q5 -19 7.5 -45.5t2.5 -37.5q0 -78 -39.5 -125t-125.5 -47h-15l15 11q22 -18 32 -40t10 -63q0 -44 -23.5 -84t-73.5 -64.5t-130 -24.5h-143zM758 675q-4 -4 -9 -3.5t-10 4.5
l-30 30q-4 5 -4 10t4 9l30 30q9 9 18 0l30 -30q5 -5 5.5 -10t-4.5 -10zM686 549q-4 -4 -10 -4t-11 5l-31 32q-4 5 -4 10.5t4 10.5l31 32q10 11 21 0l32 -32q5 -4 5.5 -10.5t-4.5 -11.5zM833 549q-4 -5 -10 -4t-11 5l-33 32q-4 4 -4 10.5t4 10.5l33 32q10 10 20 0l32 -32
q10 -10 0 -22z" />
    <glyph glyph-name="uniFC31" unicode="&#xfc31;" horiz-adv-x="946" arabic-form="isolated" 
d="M659 0q-9 0 -13.5 2t-6.5 6.5t-2 11.5v24q0 15 3.5 18t18.5 3h63q54 0 85 18.5t43 63t9 122.5l14 -15q-25 -31 -64 -44t-73 -13q-48 0 -82.5 18.5t-52.5 52t-18 77.5q0 48 23 84t59.5 56t75.5 20q60 0 98.5 -30.5t57.5 -84.5t19 -124q0 -63 -9 -112.5t-31.5 -84
t-63.5 -52t-106 -17.5h-47zM735 262q32 0 66 12t58 34q-1 29 -14 60.5t-40 53.5t-70 22q-32 0 -54.5 -15t-33.5 -37t-11 -42q0 -43 29.5 -65.5t69.5 -22.5zM751 621q-4 -4 -10 -3.5t-11 4.5l-32 32q-4 5 -4 11t4 10l32 32q5 5 10.5 5t9.5 -5l32 -32q12 -11 1 -22zM339 -226
q-70 0 -122.5 17.5t-87 49.5t-51.5 75t-17 94q0 39 15 86t51 98q5 8 12 8.5t14 -3.5l17 -11q7 -4 9 -11t-5 -17q-27 -40 -39 -72.5t-12 -73.5q0 -49 22 -89t69.5 -63t124.5 -23h94q74 0 122.5 22t48.5 71q0 31 -19 49.5t-50 18.5h-47q-20 0 -20 21v22q0 22 20 22h179
q14 0 14 -15v-24q0 -26 -28 -26h-35l-64 52q52 -21 78.5 -50t26.5 -70q0 -24 -10.5 -51t-36 -51.5t-69.5 -40t-111 -15.5h-93z" />
    <glyph glyph-name="uniFC32" unicode="&#xfc32;" horiz-adv-x="946" arabic-form="isolated" 
d="M659 0q-9 0 -13.5 2t-6.5 6.5t-2 11.5v24q0 15 3.5 18t18.5 3h63q54 0 85 18.5t43 63t9 122.5l14 -15q-25 -31 -64 -44t-73 -13q-48 0 -82.5 18.5t-52.5 52t-18 77.5q0 48 23 84t59.5 56t75.5 20q60 0 98.5 -30.5t57.5 -84.5t19 -124q0 -63 -9 -112.5t-31.5 -84
t-63.5 -52t-106 -17.5h-47zM735 262q32 0 66 12t58 34q-1 29 -14 60.5t-40 53.5t-70 22q-32 0 -54.5 -15t-33.5 -37t-11 -42q0 -43 29.5 -65.5t69.5 -22.5zM751 621q-4 -4 -10 -3.5t-11 4.5l-32 32q-4 5 -4 11t4 10l32 32q5 5 10.5 5t9.5 -5l32 -32q12 -11 1 -22zM339 -226
q-70 0 -122.5 17.5t-87 49.5t-51.5 75t-17 94q0 39 15 86t51 98q5 8 12 8.5t14 -3.5l17 -11q7 -4 9 -11t-5 -17q-27 -40 -39 -72.5t-12 -73.5q0 -49 22 -89t69.5 -63t124.5 -23h94q74 0 122.5 22t48.5 71q0 31 -19 49.5t-50 18.5h-47q-20 0 -20 21v22q0 22 20 22h179
q14 0 14 -15v-24q0 -26 -28 -26h-35l-64 52q52 -21 78.5 -50t26.5 -70q0 -24 -10.5 -51t-36 -51.5t-69.5 -40t-111 -15.5h-93zM339 -375q-4 -4 -10 -3.5t-11 4.5l-32 32q-4 4 -4 10.5t4 10.5l32 32q5 5 10.5 5t10.5 -5l32 -32q5 -4 5.5 -10.5t-4.5 -11.5zM476 -375
q-4 -4 -10 -3.5t-11 4.5l-33 32q-4 4 -4 10.5t4 10.5l33 32q5 5 10.5 5t9.5 -5l32 -32q5 -4 5.5 -10.5t-4.5 -11.5z" />
    <glyph glyph-name="uniFC35" unicode="&#xfc35;" horiz-adv-x="946" arabic-form="isolated" 
d="M659 0q-9 0 -13.5 2t-6.5 6.5t-2 11.5v24q0 15 3.5 18t18.5 3h63q54 0 85 18.5t43 63t9 122.5l14 -15q-25 -31 -64 -44t-73 -13q-48 0 -82.5 18.5t-52.5 52t-18 77.5q0 48 23 84t59.5 56t75.5 20q60 0 98.5 -30.5t57.5 -84.5t19 -124q0 -63 -9 -112.5t-31.5 -84
t-63.5 -52t-106 -17.5h-47zM735 262q32 0 66 12t58 34q-1 29 -14 60.5t-40 53.5t-70 22q-32 0 -54.5 -15t-33.5 -37t-11 -42q0 -43 29.5 -65.5t69.5 -22.5zM678 621q-4 -4 -10 -4t-11 5l-31 32q-4 5 -4 10.5t4 10.5l31 32q5 5 11 5t10 -5l32 -32q5 -4 5.5 -10.5t-4.5 -11.5z
M825 621q-4 -5 -10 -4t-11 5l-33 32q-4 4 -4 10.5t4 10.5l33 32q5 5 10 5t10 -5l32 -32q5 -4 5 -10.5t-5 -11.5zM339 -226q-70 0 -122.5 17.5t-87 49.5t-51.5 75t-17 94q0 39 15 86t51 98q5 8 12 8.5t14 -3.5l17 -11q7 -4 9 -11t-5 -17q-27 -40 -39 -72.5t-12 -73.5
q0 -49 22 -89t69.5 -63t124.5 -23h94q74 0 122.5 22t48.5 71q0 31 -19 49.5t-50 18.5h-47q-20 0 -20 21v22q0 22 20 22h179q14 0 14 -15v-24q0 -26 -28 -26h-35l-64 52q52 -21 78.5 -50t26.5 -70q0 -24 -10.5 -51t-36 -51.5t-69.5 -40t-111 -15.5h-93z" />
    <glyph glyph-name="uniFC36" unicode="&#xfc36;" horiz-adv-x="946" arabic-form="isolated" 
d="M659 0q-9 0 -13.5 2t-6.5 6.5t-2 11.5v24q0 15 3.5 18t18.5 3h63q54 0 85 18.5t43 63t9 122.5l14 -15q-25 -31 -64 -44t-73 -13q-48 0 -82.5 18.5t-52.5 52t-18 77.5q0 48 23 84t59.5 56t75.5 20q60 0 98.5 -30.5t57.5 -84.5t19 -124q0 -63 -9 -112.5t-31.5 -84
t-63.5 -52t-106 -17.5h-47zM735 262q32 0 66 12t58 34q-1 29 -14 60.5t-40 53.5t-70 22q-32 0 -54.5 -15t-33.5 -37t-11 -42q0 -43 29.5 -65.5t69.5 -22.5zM678 621q-4 -4 -10 -4t-11 5l-31 32q-4 5 -4 10.5t4 10.5l31 32q5 5 11 5t10 -5l32 -32q5 -4 5.5 -10.5t-4.5 -11.5z
M825 621q-4 -5 -10 -4t-11 5l-33 32q-4 4 -4 10.5t4 10.5l33 32q5 5 10 5t10 -5l32 -32q5 -4 5 -10.5t-5 -11.5zM339 -226q-70 0 -122.5 17.5t-87 49.5t-51.5 75t-17 94q0 39 15 86t51 98q5 8 12 8.5t14 -3.5l17 -11q7 -4 9 -11t-5 -17q-27 -40 -39 -72.5t-12 -73.5
q0 -49 22 -89t69.5 -63t124.5 -23h94q74 0 122.5 22t48.5 71q0 31 -19 49.5t-50 18.5h-47q-20 0 -20 21v22q0 22 20 22h179q14 0 14 -15v-24q0 -26 -28 -26h-35l-64 52q52 -21 78.5 -50t26.5 -70q0 -24 -10.5 -51t-36 -51.5t-69.5 -40t-111 -15.5h-93zM339 -375
q-4 -4 -10 -3.5t-11 4.5l-32 32q-4 4 -4 10.5t4 10.5l32 32q5 5 10.5 5t10.5 -5l32 -32q5 -4 5.5 -10.5t-4.5 -11.5zM476 -375q-4 -4 -10 -3.5t-11 4.5l-33 32q-4 4 -4 10.5t4 10.5l33 32q5 5 10.5 5t9.5 -5l32 -32q5 -4 5.5 -10.5t-4.5 -11.5z" />
    <glyph glyph-name="uniFC3D" unicode="&#xfc3d;" horiz-adv-x="920" arabic-form="isolated" 
d="M339 -226q-70 0 -122.5 17.5t-87 49.5t-51.5 75t-17 94q0 39 15 86t51 98q5 8 12 9t14 -4l17 -11q7 -4 9 -11t-5 -17q-27 -40 -39 -72.5t-12 -73.5q0 -49 22 -89t69.5 -63t124.5 -23h94q74 0 122.5 22t48.5 71q0 31 -19 49.5t-50 18.5h-47q-20 0 -20 21v22q0 22 20 22
h198q63 0 93.5 28.5t30.5 71.5q0 28 -13.5 50.5t-39.5 44.5l-220 194q-11 11 -14.5 21t-3.5 23v17q0 12 5.5 20t16.5 15l352 205q10 6 16 1.5t5 -15.5l-1 -23q-1 -10 -4.5 -16.5t-14.5 -13.5l-321 -187l220 -196q23 -20 39 -42t25 -46t9 -51q0 -56 -28 -93t-73 -55t-98 -18
h-61l-52 52q26 -10 45.5 -22.5t33 -27.5t20 -32.5t6.5 -37.5q0 -24 -10.5 -51t-36 -51.5t-69.5 -40t-111 -15.5h-93z" />
    <glyph glyph-name="uniFC3E" unicode="&#xfc3e;" horiz-adv-x="920" arabic-form="isolated" 
d="M341 -394q-4 -4 -10 -3.5t-11 4.5l-32 32q-4 4 -4 10.5t4 10.5l32 32q5 5 10.5 5t10.5 -5l32 -32q5 -4 5.5 -10.5t-4.5 -11.5zM478 -394q-4 -4 -10 -3.5t-11 4.5l-33 32q-4 4 -4 10.5t4 10.5l33 32q5 5 10.5 5t9.5 -5l32 -32q5 -4 5.5 -10.5t-4.5 -11.5zM339 -226
q-70 0 -122.5 17.5t-87 49.5t-51.5 75t-17 94q0 39 15 86t51 98q5 8 12 9t14 -4l17 -11q7 -4 9 -11t-5 -17q-27 -40 -39 -72.5t-12 -73.5q0 -49 22 -89t69.5 -63t124.5 -23h94q74 0 122.5 22t48.5 71q0 31 -19 49.5t-50 18.5h-47q-20 0 -20 21v22q0 22 20 22h198
q63 0 93.5 28.5t30.5 71.5q0 28 -13.5 50.5t-39.5 44.5l-220 194q-11 11 -14.5 21t-3.5 23v17q0 12 5.5 20t16.5 15l352 205q10 6 16 1.5t5 -15.5l-1 -23q-1 -10 -4.5 -16.5t-14.5 -13.5l-321 -187l220 -196q23 -20 39 -42t25 -46t9 -51q0 -56 -28 -93t-73 -55t-98 -18h-61
l-52 52q26 -10 45.5 -22.5t33 -27.5t20 -32.5t6.5 -37.5q0 -24 -10.5 -51t-36 -51.5t-69.5 -40t-111 -15.5h-93z" />
    <glyph glyph-name="uniFC43" unicode="&#xfc43;" horiz-adv-x="928" arabic-form="isolated" 
d="M329 -152q-66 0 -116.5 17.5t-84 49t-50.5 74.5t-17 94q0 39 15 86t51 98q5 8 12 9t14 -4l17 -11q7 -4 9 -11t-5 -17q-27 -40 -39 -72.5t-12 -73.5q0 -49 21.5 -89t67 -63t117.5 -23h144q74 0 122.5 27.5t48.5 83.5q0 49 -26.5 69.5t-64.5 20.5h-55q-20 0 -20 21v22
q0 22 20 22h166q56 0 77.5 29.5t21.5 80.5v439q0 10 6.5 16.5t16.5 6.5h14q11 0 17 -6.5t6 -16.5v-439q0 -76 -38 -123.5t-118 -47.5h-25l14 12q23 -22 33 -44.5t10 -63.5q0 -44 -23.5 -84t-73.5 -64.5t-130 -24.5h-143z" />
    <glyph glyph-name="uniFC44" unicode="&#xfc44;" horiz-adv-x="928" arabic-form="isolated" 
d="M341 -334q-4 -4 -10 -3.5t-11 4.5l-32 32q-4 4 -4 10.5t4 10.5l32 32q5 5 10.5 5t10.5 -5l32 -32q5 -4 5.5 -10.5t-4.5 -11.5zM478 -334q-4 -4 -10 -3.5t-11 4.5l-33 32q-4 4 -4 10.5t4 10.5l33 32q5 5 10.5 5t9.5 -5l32 -32q5 -4 5.5 -10.5t-4.5 -11.5zM329 -152
q-66 0 -116.5 17.5t-84 49t-50.5 74.5t-17 94q0 39 15 86t51 98q5 8 12 9t14 -4l17 -11q7 -4 9 -11t-5 -17q-27 -40 -39 -72.5t-12 -73.5q0 -49 21.5 -89t67 -63t117.5 -23h144q74 0 122.5 27.5t48.5 83.5q0 49 -26.5 69.5t-64.5 20.5h-55q-20 0 -20 21v22q0 22 20 22h166
q56 0 77.5 29.5t21.5 80.5v439q0 10 6.5 16.5t16.5 6.5h14q11 0 17 -6.5t6 -16.5v-439q0 -76 -38 -123.5t-118 -47.5h-25l14 12q23 -22 33 -44.5t10 -63.5q0 -44 -23.5 -84t-73.5 -64.5t-130 -24.5h-143z" />
    <glyph glyph-name="uniFC4F" unicode="&#xfc4f;" horiz-adv-x="897" arabic-form="isolated" 
d="M329 -152q-66 0 -116.5 17.5t-84 49t-50.5 74.5t-17 94q0 39 15 86t51 98q5 8 12 9t14 -4l17 -11q7 -4 9 -11t-5 -17q-27 -40 -39 -72.5t-12 -73.5q0 -49 21.5 -89t67 -63t117.5 -23h144q74 0 122.5 27.5t48.5 83.5q0 49 -26.5 69.5t-64.5 20.5h-55q-20 0 -20 21v22
q0 22 20 22h151q62 0 85.5 27.5t23.5 84.5q0 20 -1.5 37t-6.5 36l-15 63q-2 9 2 14t13 7l20 5q18 4 22 -15l15 -69q5 -19 7.5 -45.5t2.5 -37.5q0 -77 -38 -124t-117 -47h-20l15 10q22 -18 32 -40t10 -63q0 -44 -23.5 -84t-73.5 -64.5t-130 -24.5h-143zM745 553
q-4 -4 -10 -3.5t-11 4.5l-32 32q-4 5 -4 11t4 10l32 32q5 5 10.5 5t9.5 -5l32 -32q12 -11 1 -22z" />
    <glyph glyph-name="uniFC50" unicode="&#xfc50;" horiz-adv-x="897" arabic-form="isolated" 
d="M341 -334q-4 -4 -10 -3.5t-11 4.5l-32 32q-4 4 -4 10.5t4 10.5l32 32q5 5 10.5 5t10.5 -5l32 -32q5 -4 5.5 -10.5t-4.5 -11.5zM478 -334q-4 -4 -10 -3.5t-11 4.5l-33 32q-4 4 -4 10.5t4 10.5l33 32q5 5 10.5 5t9.5 -5l32 -32q5 -4 5.5 -10.5t-4.5 -11.5zM329 -152
q-66 0 -116.5 17.5t-84 49t-50.5 74.5t-17 94q0 39 15 86t51 98q5 8 12 9t14 -4l17 -11q7 -4 9 -11t-5 -17q-27 -40 -39 -72.5t-12 -73.5q0 -49 21.5 -89t67 -63t117.5 -23h144q74 0 122.5 27.5t48.5 83.5q0 49 -26.5 69.5t-64.5 20.5h-55q-20 0 -20 21v22q0 22 20 22h151
q62 0 85.5 27.5t23.5 84.5q0 20 -1.5 37t-6.5 36l-15 63q-2 9 2 14t13 7l20 5q18 4 22 -15l15 -69q5 -19 7.5 -45.5t2.5 -37.5q0 -77 -38 -124t-117 -47h-20l15 10q22 -18 32 -40t10 -63q0 -44 -23.5 -84t-73.5 -64.5t-130 -24.5h-143zM745 553q-4 -4 -10 -3.5t-11 4.5
l-32 32q-4 5 -4 11t4 10l32 32q5 5 10.5 5t9.5 -5l32 -32q12 -11 1 -22z" />
    <glyph glyph-name="uniFC64" unicode="&#xfc64;" horiz-adv-x="630" arabic-form="final" 
d="M402 373q-9 -2 -13 1.5t-4 11.5v13q0 13 4 17t14 7l31 9q-10 8 -17 21t-7 29q0 38 27 62t67 24q13 0 25 -2.5t19 -6.5q12 -7 12 -17v-20q0 -13 -11 -8t-23.5 7.5t-24.5 2.5q-20 0 -33 -9.5t-13 -25.5q0 -22 22 -32t59 -1l33 8q11 3 15 -0.5t4 -12.5v-15q0 -14 -13 -18z
M-30 -235q-10 0 -15 5.5t-5 16.5v23q0 10 5.5 15t16.5 5h45q70 0 112 30t60.5 83t18.5 122q0 52 -9.5 91t-23.5 87q-4 16 -2.5 25t14.5 13l21 6q10 3 15.5 -2t12.5 -27q10 -29 17 -65.5t11.5 -73t4.5 -65.5q0 -79 -25 -145t-78.5 -105t-139.5 -39h-56zM244 114v65h240v-65
h-240zM620 0q-25 0 -53 7.5t-52 26t-39.5 51t-15.5 83.5v117q0 20 20 20h20q20 0 20 -20v-117q0 -60 27 -81.5t73 -21.5h20q15 0 15 -15v-20q0 -30 -30 -30h-5z" />
    <glyph glyph-name="uniFC65" unicode="&#xfc65;" horiz-adv-x="630" arabic-form="final" 
d="M402 373q-9 -2 -13 1.5t-4 11.5v13q0 13 4 17t14 7l31 9q-10 8 -17 21t-7 29q0 38 27 62t67 24q13 0 25 -2.5t19 -6.5q12 -7 12 -17v-20q0 -13 -11 -8t-23.5 7.5t-24.5 2.5q-20 0 -33 -9.5t-13 -25.5q0 -22 22 -32t59 -1l33 8q11 3 15 -0.5t4 -12.5v-15q0 -14 -13 -18z
M187 379q-4 -4 -10 -3.5t-11 4.5l-32 32q-4 5 -4 11t4 10l32 32q5 5 10.5 5t9.5 -5l32 -32q12 -11 1 -22zM-30 -235q-10 0 -15 5.5t-5 16.5v23q0 10 5.5 15t16.5 5h45q70 0 112 30t60.5 83t18.5 122q0 52 -9.5 91t-23.5 87q-4 16 -2.5 25t14.5 13l21 6q10 3 15.5 -2
t12.5 -27q10 -29 17 -65.5t11.5 -73t4.5 -65.5q0 -79 -25 -145t-78.5 -105t-139.5 -39h-56zM244 114v65h240v-65h-240zM620 0q-25 0 -53 7.5t-52 26t-39.5 51t-15.5 83.5v117q0 20 20 20h20q20 0 20 -20v-117q0 -60 27 -81.5t73 -21.5h20q15 0 15 -15v-20q0 -30 -30 -30h-5z
" />
    <glyph glyph-name="uniFC67" unicode="&#xfc67;" horiz-adv-x="930" arabic-form="final" 
d="M328 389q-4 -4 -10 -3.5t-11 4.5l-32 32q-4 5 -4 11t4 10l32 32q5 5 10.5 5t9.5 -5l32 -32q12 -11 1 -22zM707 373q-9 -2 -13 1.5t-4 11.5v13q0 13 4 17t14 7l31 9q-10 8 -17 21t-7 29q0 38 27 62t67 24q13 0 25 -2.5t19 -6.5q12 -7 12 -17v-20q0 -13 -11 -8t-23.5 7.5
t-24.5 2.5q-20 0 -33 -9.5t-13 -25.5q0 -22 22 -32t59 -1l33 8q11 3 15 -0.5t4 -12.5v-15q0 -14 -13 -18zM312 -153q-81 0 -138 30t-87.5 86.5t-30.5 133.5q0 29 7 67.5t16 61.5q7 17 13.5 23.5t16.5 3.5l16 -5q14 -4 16.5 -10t-0.5 -15q-12 -28 -17.5 -64.5t-5.5 -61.5
q0 -90 54.5 -137.5t139.5 -47.5q59 0 108.5 20t79 66t29.5 124q0 36 -8.5 74t-20.5 87q-5 20 16 26l14 4q14 4 20.5 -2t10.5 -22q12 -44 19.5 -85t7.5 -82q0 -67 -21 -118t-59 -86t-88 -53t-108 -18zM570 114v65h214v-65h-214zM920 0q-25 0 -53 7.5t-52 26t-39.5 51
t-15.5 83.5v117q0 20 20 20h20q20 0 20 -20v-117q0 -60 27 -81.5t73 -21.5h20q15 0 15 -15v-20q0 -30 -30 -30h-5z" />
    <glyph glyph-name="uniFC68" unicode="&#xfc68;" horiz-adv-x="974" arabic-form="final" 
d="M665 487q-7 -2 -11 1t-4 10v11q0 11 3.5 14.5t12.5 6.5l27 8q-8 7 -14.5 18.5t-6.5 24.5q0 34 24 54.5t58 20.5q11 0 21 -2t17 -6q11 -5 11 -14v-18q0 -10 -10 -7q-10 5 -20.5 7t-21.5 2q-17 0 -28.5 -8t-11.5 -22q0 -20 19.5 -28.5t51.5 -0.5l28 7q11 2 14 -1t3 -11v-13
q0 -12 -11 -15zM358 -152q-88 0 -155 30.5t-104.5 84t-37.5 121.5q0 22 3 45.5t10.5 48t20.5 47.5q10 19 15.5 21.5t17.5 -3.5l22 -11q5 -2 8 -6t-4 -16q-16 -27 -23.5 -58t-7.5 -64q0 -49 29 -89t81.5 -63t124.5 -23h84q57 0 104.5 13.5t76.5 38t29 58.5t-20.5 51t-82.5 31
q-69 16 -106.5 46t-37.5 82q0 38 19 69.5t51.5 54.5t72 36t80.5 13q50 0 87.5 -16.5t66.5 -59t52 -120.5q19 -61 37 -92t41 -42t56 -11h16q9 0 12 -6.5t3 -13.5v-20q0 -14 -8 -19.5t-22 -5.5h-12q-26 0 -50.5 9.5t-47 31t-42.5 58t-36 91.5q-19 67 -41.5 101t-50.5 46
t-64 12q-47 0 -83.5 -15t-56.5 -40.5t-20 -55.5q0 -17 10 -31t37 -25t78 -22q44 -9 70.5 -26.5t39 -44t12.5 -63.5q0 -41 -23.5 -74t-63 -56t-87.5 -35.5t-97 -12.5h-83z" />
    <glyph glyph-name="uniFC69" unicode="&#xfc69;" horiz-adv-x="974" arabic-form="final" 
d="M343 -306q-4 -4 -10 -3.5t-11 4.5l-32 32q-4 4 -4 10.5t4 10.5l32 32q5 5 10.5 5t10.5 -5l32 -32q5 -4 5.5 -10.5t-4.5 -11.5zM480 -306q-4 -4 -10 -3.5t-11 4.5l-33 32q-4 4 -4 10.5t4 10.5l33 32q5 5 10.5 5t9.5 -5l32 -32q5 -4 5.5 -10.5t-4.5 -11.5zM665 487
q-7 -2 -11 1t-4 10v11q0 11 3.5 14.5t12.5 6.5l27 8q-8 7 -14.5 18.5t-6.5 24.5q0 34 24 54.5t58 20.5q11 0 21 -2t17 -6q11 -5 11 -14v-18q0 -10 -10 -7q-10 5 -20.5 7t-21.5 2q-17 0 -28.5 -8t-11.5 -22q0 -20 19.5 -28.5t51.5 -0.5l28 7q11 2 14 -1t3 -11v-13
q0 -12 -11 -15zM358 -152q-88 0 -155 30.5t-104.5 84t-37.5 121.5q0 22 3 45.5t10.5 48t20.5 47.5q10 19 15.5 21.5t17.5 -3.5l22 -11q5 -2 8 -6t-4 -16q-16 -27 -23.5 -58t-7.5 -64q0 -49 29 -89t81.5 -63t124.5 -23h84q57 0 104.5 13.5t76.5 38t29 58.5t-20.5 51t-82.5 31
q-69 16 -106.5 46t-37.5 82q0 38 19 69.5t51.5 54.5t72 36t80.5 13q50 0 87.5 -16.5t66.5 -59t52 -120.5q19 -61 37 -92t41 -42t56 -11h16q9 0 12 -6.5t3 -13.5v-20q0 -14 -8 -19.5t-22 -5.5h-12q-26 0 -50.5 9.5t-47 31t-42.5 58t-36 91.5q-19 67 -41.5 101t-50.5 46
t-64 12q-47 0 -83.5 -15t-56.5 -40.5t-20 -55.5q0 -17 10 -31t37 -25t78 -22q44 -9 70.5 -26.5t39 -44t12.5 -63.5q0 -41 -23.5 -74t-63 -56t-87.5 -35.5t-97 -12.5h-83z" />
    <glyph glyph-name="uniFC6A" unicode="&#xfc6a;" horiz-adv-x="630" arabic-form="final" 
d="M510 -194q-4 -4 -10 -3.5t-11 4.5l-32 32q-4 4 -4 10.5t4 10.5l32 32q5 5 10.5 5t9.5 -5l32 -32q5 -4 5.5 -10.5t-4.5 -11.5zM-30 -235q-10 0 -15 5.5t-5 16.5v23q0 10 5.5 15t16.5 5h45q70 0 112 30t60.5 83t18.5 122q0 52 -9.5 91t-23.5 87q-4 16 -2.5 25t14.5 13l21 6
q10 3 15.5 -2t12.5 -27q10 -29 17 -65.5t11.5 -73t4.5 -65.5q0 -79 -25 -145t-78.5 -105t-139.5 -39h-56zM244 114v65h240v-65h-240zM620 0q-25 0 -53 7.5t-52 26t-39.5 51t-15.5 83.5v117q0 20 20 20h20q20 0 20 -20v-117q0 -60 27 -81.5t73 -21.5h20q15 0 15 -15v-20
q0 -30 -30 -30h-5z" />
    <glyph glyph-name="uniFC6B" unicode="&#xfc6b;" horiz-adv-x="630" arabic-form="final" 
d="M510 -194q-4 -4 -10 -3.5t-11 4.5l-32 32q-4 4 -4 10.5t4 10.5l32 32q5 5 10.5 5t9.5 -5l32 -32q5 -4 5.5 -10.5t-4.5 -11.5zM187 379q-4 -4 -10 -3.5t-11 4.5l-32 32q-4 5 -4 11t4 10l32 32q5 5 10.5 5t9.5 -5l32 -32q12 -11 1 -22zM-30 -235q-10 0 -15 5.5t-5 16.5v23
q0 10 5.5 15t16.5 5h45q70 0 112 30t60.5 83t18.5 122q0 52 -9.5 91t-23.5 87q-4 16 -2.5 25t14.5 13l21 6q10 3 15.5 -2t12.5 -27q10 -29 17 -65.5t11.5 -73t4.5 -65.5q0 -79 -25 -145t-78.5 -105t-139.5 -39h-56zM244 114v65h240v-65h-240zM620 0q-25 0 -53 7.5t-52 26
t-39.5 51t-15.5 83.5v117q0 20 20 20h20q20 0 20 -20v-117q0 -60 27 -81.5t73 -21.5h20q15 0 15 -15v-20q0 -30 -30 -30h-5z" />
    <glyph glyph-name="uniFC6D" unicode="&#xfc6d;" horiz-adv-x="930" arabic-form="final" 
d="M328 389q-4 -4 -10 -3.5t-11 4.5l-32 32q-10 11 0 21l32 32q5 5 10.5 5t9.5 -5l32 -32q5 -5 5.5 -11t-4.5 -11zM825 -194q-4 -4 -10 -3.5t-11 4.5l-32 32q-4 4 -4 10.5t4 10.5l32 32q5 5 10.5 5t9.5 -5l32 -32q5 -4 5.5 -10.5t-4.5 -11.5zM312 -153q-81 0 -138 30
t-87.5 86.5t-30.5 133.5q0 29 7 67.5t16 61.5q7 17 13.5 23.5t16.5 3.5l16 -5q14 -4 16.5 -10t-0.5 -15q-12 -28 -17.5 -64.5t-5.5 -61.5q0 -90 54.5 -137.5t139.5 -47.5q59 0 108.5 20t79 66t29.5 124q0 36 -8.5 74t-20.5 87q-5 20 16 26l14 4q14 4 20.5 -2t10.5 -22
q12 -44 19.5 -85t7.5 -82q0 -67 -21 -118t-59 -86t-88 -53t-108 -18zM570 114v65h214v-65h-214zM920 0q-25 0 -53 7.5t-52 26t-39.5 51t-15.5 83.5v117q0 20 20 20h20q20 0 20 -20v-117q0 -60 27 -81.5t73 -21.5h20q15 0 15 -15v-20q0 -30 -30 -30h-5z" />
    <glyph glyph-name="uniFC6E" unicode="&#xfc6e;" horiz-adv-x="974" arabic-form="final" 
d="M850 -144q-4 -4 -10 -3.5t-11 4.5l-32 32q-4 4 -4 10.5t4 10.5l32 32q5 5 10.5 5t9.5 -5l32 -32q5 -4 5.5 -10.5t-4.5 -11.5zM358 -152q-88 0 -155 30.5t-104.5 84t-37.5 121.5q0 22 3 45.5t10.5 48t20.5 47.5q10 19 15.5 21.5t17.5 -3.5l22 -11q5 -2 8 -6t-4 -16
q-16 -27 -23.5 -58t-7.5 -64q0 -49 29 -89t81.5 -63t124.5 -23h84q57 0 104.5 13.5t76.5 38t29 58.5t-20.5 51t-82.5 31q-69 16 -106.5 46t-37.5 82q0 38 19 69.5t51.5 54.5t72 36t80.5 13q50 0 87.5 -16.5t66.5 -59t52 -120.5q19 -61 37 -92t41 -42t56 -11h16q9 0 12 -6.5
t3 -13.5v-20q0 -14 -8 -19.5t-22 -5.5h-12q-26 0 -50.5 9.5t-47 31t-42.5 58t-36 91.5q-19 67 -41.5 101t-50.5 46t-64 12q-47 0 -83.5 -15t-56.5 -40.5t-20 -55.5q0 -17 10 -31t37 -25t78 -22q44 -9 70.5 -26.5t39 -44t12.5 -63.5q0 -41 -23.5 -74t-63 -56t-87.5 -35.5
t-97 -12.5h-83z" />
    <glyph glyph-name="uniFC6F" unicode="&#xfc6f;" horiz-adv-x="974" arabic-form="final" 
d="M850 -144q-4 -4 -10 -3.5t-11 4.5l-32 32q-4 4 -4 10.5t4 10.5l32 32q5 5 10.5 5t9.5 -5l32 -32q5 -4 5.5 -10.5t-4.5 -11.5zM343 -306q-4 -4 -10 -3.5t-11 4.5l-32 32q-4 4 -4 10.5t4 10.5l32 32q5 5 10.5 5t10.5 -5l32 -32q5 -4 5.5 -10.5t-4.5 -11.5zM480 -306
q-4 -4 -10 -3.5t-11 4.5l-33 32q-4 4 -4 10.5t4 10.5l33 32q5 5 10.5 5t9.5 -5l32 -32q5 -4 5.5 -10.5t-4.5 -11.5zM358 -152q-88 0 -155 30.5t-104.5 84t-37.5 121.5q0 22 3 45.5t10.5 48t20.5 47.5q10 19 15.5 21.5t17.5 -3.5l22 -11q5 -2 8 -6t-4 -16q-16 -27 -23.5 -58
t-7.5 -64q0 -49 29 -89t81.5 -63t124.5 -23h84q57 0 104.5 13.5t76.5 38t29 58.5t-20.5 51t-82.5 31q-69 16 -106.5 46t-37.5 82q0 38 19 69.5t51.5 54.5t72 36t80.5 13q50 0 87.5 -16.5t66.5 -59t52 -120.5q19 -61 37 -92t41 -42t56 -11h16q9 0 12 -6.5t3 -13.5v-20
q0 -14 -8 -19.5t-22 -5.5h-12q-26 0 -50.5 9.5t-47 31t-42.5 58t-36 91.5q-19 67 -41.5 101t-50.5 46t-64 12q-47 0 -83.5 -15t-56.5 -40.5t-20 -55.5q0 -17 10 -31t37 -25t78 -22q44 -9 70.5 -26.5t39 -44t12.5 -63.5q0 -41 -23.5 -74t-63 -56t-87.5 -35.5t-97 -12.5h-83z
" />
    <glyph glyph-name="uniFC70" unicode="&#xfc70;" horiz-adv-x="630" arabic-form="final" 
d="M432 409q-4 -4 -10 -4t-11 5l-31 32q-4 5 -4 10.5t4 10.5l31 32q5 5 11 5t10 -5l32 -32q5 -4 5.5 -10.5t-4.5 -11.5zM579 409q-4 -5 -10 -4t-11 5l-33 32q-4 4 -4 10.5t4 10.5l33 32q5 5 10 5t10 -5l32 -32q5 -4 5 -10.5t-5 -11.5zM-30 -235q-10 0 -15 5.5t-5 16.5v23
q0 10 5.5 15t16.5 5h45q70 0 112 30t60.5 83t18.5 122q0 52 -9.5 91t-23.5 87q-4 16 -2.5 25t14.5 13l21 6q10 3 15.5 -2t12.5 -27q10 -29 17 -65.5t11.5 -73t4.5 -65.5q0 -79 -25 -145t-78.5 -105t-139.5 -39h-56zM244 114v65h240v-65h-240zM620 0q-25 0 -53 7.5t-52 26
t-39.5 51t-15.5 83.5v117q0 20 20 20h20q20 0 20 -20v-117q0 -60 27 -81.5t73 -21.5h20q15 0 15 -15v-20q0 -30 -30 -30h-5z" />
    <glyph glyph-name="uniFC71" unicode="&#xfc71;" horiz-adv-x="630" arabic-form="final" 
d="M432 409q-4 -4 -10 -4t-11 5l-31 32q-4 5 -4 10.5t4 10.5l31 32q5 5 11 5t10 -5l32 -32q5 -4 5.5 -10.5t-4.5 -11.5zM579 409q-4 -5 -10 -4t-11 5l-33 32q-4 4 -4 10.5t4 10.5l33 32q5 5 10 5t10 -5l32 -32q5 -4 5 -10.5t-5 -11.5zM187 379q-4 -4 -10 -3.5t-11 4.5
l-32 32q-4 5 -4 11t4 10l32 32q5 5 10.5 5t9.5 -5l32 -32q12 -11 1 -22zM-30 -235q-10 0 -15 5.5t-5 16.5v23q0 10 5.5 15t16.5 5h45q70 0 112 30t60.5 83t18.5 122q0 52 -9.5 91t-23.5 87q-4 16 -2.5 25t14.5 13l21 6q10 3 15.5 -2t12.5 -27q10 -29 17 -65.5t11.5 -73
t4.5 -65.5q0 -79 -25 -145t-78.5 -105t-139.5 -39h-56zM244 114v65h240v-65h-240zM620 0q-25 0 -53 7.5t-52 26t-39.5 51t-15.5 83.5v117q0 20 20 20h20q20 0 20 -20v-117q0 -60 27 -81.5t73 -21.5h20q15 0 15 -15v-20q0 -30 -30 -30h-5z" />
    <glyph glyph-name="uniFC74" unicode="&#xfc74;" horiz-adv-x="974" arabic-form="final" 
d="M646 510q-4 -4 -10 -4t-11 5l-31 32q-4 5 -4 10.5t4 10.5l31 32q5 5 11 5t10 -5l32 -32q5 -4 5.5 -10.5t-4.5 -11.5zM793 510q-4 -5 -10 -4t-11 5l-33 32q-4 4 -4 10.5t4 10.5l33 32q5 5 10 5t10 -5l32 -32q5 -4 5 -10.5t-5 -11.5zM358 -152q-88 0 -155 30.5t-104.5 84
t-37.5 121.5q0 22 3 45.5t10.5 48t20.5 47.5q10 19 15.5 21.5t17.5 -3.5l22 -11q5 -2 8 -6t-4 -16q-16 -27 -23.5 -58t-7.5 -64q0 -49 29 -89t81.5 -63t124.5 -23h84q57 0 104.5 13.5t76.5 38t29 58.5t-20.5 51t-82.5 31q-69 16 -106.5 46t-37.5 82q0 38 19 69.5t51.5 54.5
t72 36t80.5 13q50 0 87.5 -16.5t66.5 -59t52 -120.5q19 -61 37 -92t41 -42t56 -11h16q9 0 12 -6.5t3 -13.5v-20q0 -14 -8 -19.5t-22 -5.5h-12q-26 0 -50.5 9.5t-47 31t-42.5 58t-36 91.5q-19 67 -41.5 101t-50.5 46t-64 12q-47 0 -83.5 -15t-56.5 -40.5t-20 -55.5
q0 -17 10 -31t37 -25t78 -22q44 -9 70.5 -26.5t39 -44t12.5 -63.5q0 -41 -23.5 -74t-63 -56t-87.5 -35.5t-97 -12.5h-83z" />
    <glyph glyph-name="uniFC75" unicode="&#xfc75;" horiz-adv-x="974" arabic-form="final" 
d="M646 510q-4 -4 -10 -4t-11 5l-31 32q-4 5 -4 10.5t4 10.5l31 32q5 5 11 5t10 -5l32 -32q5 -4 5.5 -10.5t-4.5 -11.5zM793 510q-4 -5 -10 -4t-11 5l-33 32q-4 4 -4 10.5t4 10.5l33 32q5 5 10 5t10 -5l32 -32q5 -4 5 -10.5t-5 -11.5zM343 -306q-4 -4 -10 -3.5t-11 4.5
l-32 32q-4 4 -4 10.5t4 10.5l32 32q5 5 10.5 5t10.5 -5l32 -32q5 -4 5.5 -10.5t-4.5 -11.5zM480 -306q-4 -4 -10 -3.5t-11 4.5l-33 32q-4 4 -4 10.5t4 10.5l33 32q5 5 10.5 5t9.5 -5l32 -32q5 -4 5.5 -10.5t-4.5 -11.5zM358 -152q-88 0 -155 30.5t-104.5 84t-37.5 121.5
q0 22 3 45.5t10.5 48t20.5 47.5q10 19 15.5 21.5t17.5 -3.5l22 -11q5 -2 8 -6t-4 -16q-16 -27 -23.5 -58t-7.5 -64q0 -49 29 -89t81.5 -63t124.5 -23h84q57 0 104.5 13.5t76.5 38t29 58.5t-20.5 51t-82.5 31q-69 16 -106.5 46t-37.5 82q0 38 19 69.5t51.5 54.5t72 36
t80.5 13q50 0 87.5 -16.5t66.5 -59t52 -120.5q19 -61 37 -92t41 -42t56 -11h16q9 0 12 -6.5t3 -13.5v-20q0 -14 -8 -19.5t-22 -5.5h-12q-26 0 -50.5 9.5t-47 31t-42.5 58t-36 91.5q-19 67 -41.5 101t-50.5 46t-64 12q-47 0 -83.5 -15t-56.5 -40.5t-20 -55.5q0 -17 10 -31
t37 -25t78 -22q44 -9 70.5 -26.5t39 -44t12.5 -63.5q0 -41 -23.5 -74t-63 -56t-87.5 -35.5t-97 -12.5h-83z" />
    <glyph glyph-name="uniFC76" unicode="&#xfc76;" horiz-adv-x="630" arabic-form="final" 
d="M504 535q-4 -4 -9 -3.5t-10 4.5l-30 30q-9 10 0 19l30 30q9 9 18 0l30 -30q11 -10 1 -20zM432 409q-4 -4 -10 -4t-11 5l-31 32q-4 5 -4 10.5t4 10.5l31 32q10 11 21 0l32 -32q5 -4 5.5 -10.5t-4.5 -11.5zM579 409q-4 -5 -10 -4t-11 5l-33 32q-4 4 -4 10.5t4 10.5l33 32
q10 10 20 0l32 -32q5 -4 5 -10.5t-5 -11.5zM-30 -235q-10 0 -15 5.5t-5 16.5v23q0 10 5.5 15t16.5 5h45q70 0 112 30t60.5 83t18.5 122q0 52 -9.5 91t-23.5 87q-4 16 -2.5 25t14.5 13l21 6q10 3 15.5 -2t12.5 -27q10 -29 17 -65.5t11.5 -73t4.5 -65.5q0 -79 -25 -145
t-78.5 -105t-139.5 -39h-56zM244 114v65h240v-65h-240zM620 0q-25 0 -53 7.5t-52 26t-39.5 51t-15.5 83.5v117q0 20 20 20h20q20 0 20 -20v-117q0 -60 27 -81.5t73 -21.5h20q15 0 15 -15v-20q0 -30 -30 -30h-5z" />
    <glyph glyph-name="uniFC77" unicode="&#xfc77;" horiz-adv-x="630" arabic-form="final" 
d="M504 535q-4 -4 -9 -3.5t-10 4.5l-30 30q-9 10 0 19l30 30q9 9 18 0l30 -30q11 -10 1 -20zM432 409q-4 -4 -10 -4t-11 5l-31 32q-4 5 -4 10.5t4 10.5l31 32q10 11 21 0l32 -32q5 -4 5.5 -10.5t-4.5 -11.5zM579 409q-4 -5 -10 -4t-11 5l-33 32q-4 4 -4 10.5t4 10.5l33 32
q10 10 20 0l32 -32q5 -4 5 -10.5t-5 -11.5zM187 379q-4 -4 -10 -3.5t-11 4.5l-32 32q-4 5 -4 11t4 10l32 32q5 5 10.5 5t9.5 -5l32 -32q12 -11 1 -22zM-30 -235q-10 0 -15 5.5t-5 16.5v23q0 10 5.5 15t16.5 5h45q70 0 112 30t60.5 83t18.5 122q0 52 -9.5 91t-23.5 87
q-4 16 -2.5 25t14.5 13l21 6q10 3 15.5 -2t12.5 -27q10 -29 17 -65.5t11.5 -73t4.5 -65.5q0 -79 -25 -145t-78.5 -105t-139.5 -39h-56zM244 114v65h240v-65h-240zM620 0q-25 0 -53 7.5t-52 26t-39.5 51t-15.5 83.5v117q0 20 20 20h20q20 0 20 -20v-117q0 -60 27 -81.5
t73 -21.5h20q15 0 15 -15v-20q0 -30 -30 -30h-5z" />
    <glyph glyph-name="uniFC79" unicode="&#xfc79;" horiz-adv-x="930" arabic-form="final" 
d="M328 389q-4 -4 -10 -3.5t-11 4.5l-32 32q-4 5 -4 11t4 10l32 32q5 5 10.5 5t9.5 -5l32 -32q12 -11 1 -22zM804 535q-4 -4 -9 -3.5t-10 4.5l-30 30q-9 10 0 19l30 30q9 9 18 0l30 -30q11 -10 1 -20zM732 409q-4 -4 -10 -4t-11 5l-31 32q-4 5 -4 10.5t4 10.5l31 32
q10 11 21 0l32 -32q5 -4 5.5 -10.5t-4.5 -11.5zM879 409q-4 -5 -10 -4t-11 5l-33 32q-4 4 -4 10.5t4 10.5l33 32q10 10 20 0l32 -32q5 -4 5 -10.5t-5 -11.5zM312 -153q-81 0 -138 30t-87.5 86.5t-30.5 133.5q0 29 7 67.5t16 61.5q7 17 13.5 23.5t16.5 3.5l16 -5
q14 -4 16.5 -10t-0.5 -15q-12 -28 -17.5 -64.5t-5.5 -61.5q0 -90 54.5 -137.5t139.5 -47.5q59 0 108.5 20t79 66t29.5 124q0 36 -8.5 74t-20.5 87q-5 20 16 26l14 4q14 4 20.5 -2t10.5 -22q12 -44 19.5 -85t7.5 -82q0 -67 -21 -118t-59 -86t-88 -53t-108 -18zM570 114v65
h214v-65h-214zM920 0q-25 0 -53 7.5t-52 26t-39.5 51t-15.5 83.5v117q0 20 20 20h20q20 0 20 -20v-117q0 -60 27 -81.5t73 -21.5h20q15 0 15 -15v-20q0 -30 -30 -30h-5z" />
    <glyph glyph-name="uniFC7A" unicode="&#xfc7a;" horiz-adv-x="974" arabic-form="final" 
d="M793 510q-4 -5 -10 -4t-11 5l-33 32q-4 4 -4 10.5t4 10.5l33 32q10 10 20 0l32 -32q5 -4 5 -10.5t-5 -11.5zM646 510q-4 -4 -10 -4t-11 5l-31 32q-4 5 -4 10.5t4 10.5l31 32q5 5 11 5t10 -5l32 -32q5 -4 5.5 -10.5t-4.5 -11.5zM718 636q-4 -4 -9 -3.5t-10 4.5l-30 30
q-9 10 0 19l30 30q9 9 18 0l30 -30q11 -10 1 -20zM358 -152q-88 0 -155 30.5t-104.5 84t-37.5 121.5q0 22 3 45.5t10.5 48t20.5 47.5q10 19 15.5 21.5t17.5 -3.5l22 -11q5 -2 8 -6t-4 -16q-16 -27 -23.5 -58t-7.5 -64q0 -49 29 -89t81.5 -63t124.5 -23h84q57 0 104.5 13.5
t76.5 38t29 58.5t-20.5 51t-82.5 31q-69 16 -106.5 46t-37.5 82q0 38 19 69.5t51.5 54.5t72 36t80.5 13q50 0 87.5 -16.5t66.5 -59t52 -120.5q19 -61 37 -92t41 -42t56 -11h16q9 0 12 -6.5t3 -13.5v-20q0 -14 -8 -19.5t-22 -5.5h-12q-26 0 -50.5 9.5t-47 31t-42.5 58
t-36 91.5q-19 67 -41.5 101t-50.5 46t-64 12q-47 0 -83.5 -15t-56.5 -40.5t-20 -55.5q0 -17 10 -31t37 -25t78 -22q44 -9 70.5 -26.5t39 -44t12.5 -63.5q0 -41 -23.5 -74t-63 -56t-87.5 -35.5t-97 -12.5h-83z" />
    <glyph glyph-name="uniFC7B" unicode="&#xfc7b;" horiz-adv-x="974" arabic-form="final" 
d="M793 510q-4 -5 -10 -4t-11 5l-33 32q-4 4 -4 10.5t4 10.5l33 32q5 5 10 5t10 -5l32 -32q5 -4 5 -10.5t-5 -11.5zM343 -306q-4 -4 -10 -3.5t-11 4.5l-32 32q-4 4 -4 10.5t4 10.5l32 32q5 5 10.5 5t10.5 -5l32 -32q5 -4 5.5 -10.5t-4.5 -11.5zM480 -306q-4 -4 -10 -3.5
t-11 4.5l-33 32q-4 4 -4 10.5t4 10.5l33 32q5 5 10.5 5t9.5 -5l32 -32q5 -4 5.5 -10.5t-4.5 -11.5zM646 510q-4 -4 -10 -4t-11 5l-31 32q-4 5 -4 10.5t4 10.5l31 32q5 5 11 5t10 -5l32 -32q5 -4 5.5 -10.5t-4.5 -11.5zM718 636q-4 -4 -9 -3.5t-10 4.5l-30 30q-9 10 0 19
l30 30q9 9 18 0l30 -30q11 -10 1 -20zM358 -152q-88 0 -155 30.5t-104.5 84t-37.5 121.5q0 22 3 45.5t10.5 48t20.5 47.5q10 19 15.5 21.5t17.5 -3.5l22 -11q5 -2 8 -6t-4 -16q-16 -27 -23.5 -58t-7.5 -64q0 -49 29 -89t81.5 -63t124.5 -23h84q57 0 104.5 13.5t76.5 38
t29 58.5t-20.5 51t-82.5 31q-69 16 -106.5 46t-37.5 82q0 38 19 69.5t51.5 54.5t72 36t80.5 13q50 0 87.5 -16.5t66.5 -59t52 -120.5q19 -61 37 -92t41 -42t56 -11h16q9 0 12 -6.5t3 -13.5v-20q0 -14 -8 -19.5t-22 -5.5h-12q-26 0 -50.5 9.5t-47 31t-42.5 58t-36 91.5
q-19 67 -41.5 101t-50.5 46t-64 12q-47 0 -83.5 -15t-56.5 -40.5t-20 -55.5q0 -17 10 -31t37 -25t78 -22q44 -9 70.5 -26.5t39 -44t12.5 -63.5q0 -41 -23.5 -74t-63 -56t-87.5 -35.5t-97 -12.5h-83z" />
    <glyph glyph-name="uniFC83" unicode="&#xfc83;" horiz-adv-x="1031" arabic-form="final" 
d="M339 -226q-70 0 -122.5 17.5t-87 49.5t-51.5 75t-17 94q0 39 15 86t51 98q5 8 12 9t14 -4l17 -11q7 -4 9 -11t-5 -17q-27 -40 -39 -72.5t-12 -73.5q0 -49 22 -89t69.5 -63t124.5 -23h94q74 0 122.5 22t48.5 71q0 31 -19 49.5t-50 18.5h-47q-20 0 -20 21v22q0 22 20 22
h174q62 0 89.5 19t27.5 47q0 17 -7.5 36t-39.5 57l-195 236q-10 11 -14 21t-4 23v11q0 22 22 35l352 205q10 6 16 1.5t5 -15.5l-1 -23q-1 -10 -4.5 -16.5t-14.5 -13.5l-318 -184l275 -333q27 -32 47 -53t40 -32.5t44.5 -16t58.5 -4.5q15 0 15 -15v-20q0 -30 -30 -30
q-25 0 -50.5 6t-51.5 20.5t-51.5 38t-51.5 59.5q-1 -49 -25 -76t-62 -37.5t-83 -10.5h-45l-52 52q52 -21 78.5 -50t26.5 -70q0 -24 -10.5 -51t-36 -51.5t-69.5 -40t-111 -15.5h-93z" />
    <glyph glyph-name="uniFC84" unicode="&#xfc84;" horiz-adv-x="1031" arabic-form="final" 
d="M341 -394q-4 -4 -10 -3.5t-11 4.5l-32 32q-4 4 -4 10.5t4 10.5l32 32q5 5 10.5 5t10.5 -5l32 -32q5 -4 5.5 -10.5t-4.5 -11.5zM478 -394q-4 -4 -10 -3.5t-11 4.5l-33 32q-4 4 -4 10.5t4 10.5l33 32q5 5 10.5 5t9.5 -5l32 -32q5 -4 5.5 -10.5t-4.5 -11.5zM339 -226
q-70 0 -122.5 17.5t-87 49.5t-51.5 75t-17 94q0 39 15 86t51 98q5 8 12 9t14 -4l17 -11q7 -4 9 -11t-5 -17q-27 -40 -39 -72.5t-12 -73.5q0 -49 22 -89t69.5 -63t124.5 -23h94q74 0 122.5 22t48.5 71q0 31 -19 49.5t-50 18.5h-47q-20 0 -20 21v22q0 22 20 22h174
q62 0 89.5 19t27.5 47q0 17 -7.5 36t-39.5 57l-195 236q-10 11 -14 21t-4 23v11q0 22 22 35l352 205q10 6 16 1.5t5 -15.5l-1 -23q-1 -10 -4.5 -16.5t-14.5 -13.5l-318 -184l275 -333q27 -32 47 -53t40 -32.5t44.5 -16t58.5 -4.5q15 0 15 -15v-20q0 -30 -30 -30
q-25 0 -50.5 6t-51.5 20.5t-51.5 38t-51.5 59.5q-1 -49 -25 -76t-62 -37.5t-83 -10.5h-45l-52 52q52 -21 78.5 -50t26.5 -70q0 -24 -10.5 -51t-36 -51.5t-69.5 -40t-111 -15.5h-93z" />
    <glyph glyph-name="uniFC86" unicode="&#xfc86;" horiz-adv-x="963" arabic-form="final" 
d="M329 -152q-66 0 -116.5 17.5t-84 49t-50.5 74.5t-17 94q0 39 15 86t51 98q5 8 12 9t14 -4l17 -11q7 -4 9 -11t-5 -17q-27 -40 -39 -72.5t-12 -73.5q0 -49 21.5 -89t67 -63t117.5 -23h144q74 0 122.5 27.5t48.5 83.5q0 49 -26.5 69.5t-64.5 20.5h-55q-20 0 -20 21v22
q0 22 20 22h166q56 0 77.5 29.5t21.5 80.5v439q0 10 6.5 16.5t16.5 6.5h14q11 0 17 -6.5t6 -16.5v-500q0 -64 15.5 -97.5t48 -46.5t82.5 -18h4q15 0 15 -15v-20q0 -30 -30 -30h-4q-59 1 -102 22.5t-66 63.5t-23 102h25q-9 -28 -38 -50.5t-83 -22.5h-25l14 12q23 -21 33 -43
t10 -63q0 -44 -23.5 -84t-73.5 -64.5t-130 -24.5h-143z" />
    <glyph glyph-name="uniFC87" unicode="&#xfc87;" horiz-adv-x="963" arabic-form="final" 
d="M341 -334q-4 -4 -10 -3.5t-11 4.5l-32 32q-4 4 -4 10.5t4 10.5l32 32q5 5 10.5 5t10.5 -5l32 -32q5 -4 5.5 -10.5t-4.5 -11.5zM478 -334q-4 -4 -10 -3.5t-11 4.5l-33 32q-4 4 -4 10.5t4 10.5l33 32q5 5 10.5 5t9.5 -5l32 -32q5 -4 5.5 -10.5t-4.5 -11.5zM329 -152
q-66 0 -116.5 17.5t-84 49t-50.5 74.5t-17 94q0 39 15 86t51 98q5 8 12 9t14 -4l17 -11q7 -4 9 -11t-5 -17q-27 -40 -39 -72.5t-12 -73.5q0 -49 21.5 -89t67 -63t117.5 -23h144q74 0 122.5 27.5t48.5 83.5q0 49 -26.5 69.5t-64.5 20.5h-55q-20 0 -20 21v22q0 22 20 22h166
q56 0 77.5 29.5t21.5 80.5v439q0 10 6.5 16.5t16.5 6.5h14q11 0 17 -6.5t6 -16.5v-500q0 -64 15.5 -97.5t48 -46.5t82.5 -18h4q15 0 15 -15v-20q0 -30 -30 -30h-4q-59 1 -102 22.5t-66 63.5t-23 102h25q-9 -28 -38 -50.5t-83 -22.5h-25l14 12q23 -21 33 -43t10 -63
q0 -44 -23.5 -84t-73.5 -64.5t-130 -24.5h-143z" />
    <glyph glyph-name="uniFC8A" unicode="&#xfc8a;" horiz-adv-x="630" arabic-form="final" 
d="M498 409q-4 -4 -10 -3.5t-11 4.5l-32 32q-4 5 -4 11t4 10l32 32q5 5 10.5 5t9.5 -5l32 -32q12 -11 1 -22zM-30 -235q-10 0 -15 5.5t-5 16.5v23q0 10 5.5 15t16.5 5h45q70 0 112 30t60.5 83t18.5 122q0 52 -9.5 91t-23.5 87q-4 16 -2.5 25t14.5 13l21 6q10 3 15.5 -2
t12.5 -27q10 -29 17 -65.5t11.5 -73t4.5 -65.5q0 -79 -25 -145t-78.5 -105t-139.5 -39h-56zM244 114v65h240v-65h-240zM620 0q-25 0 -53 7.5t-52 26t-39.5 51t-15.5 83.5v117q0 20 20 20h20q20 0 20 -20v-117q0 -60 27 -81.5t73 -21.5h20q15 0 15 -15v-20q0 -30 -30 -30h-5z
" />
    <glyph glyph-name="uniFC8B" unicode="&#xfc8b;" horiz-adv-x="630" arabic-form="final" 
d="M187 379q-4 -4 -10 -3.5t-11 4.5l-32 32q-4 5 -4 11t4 10l32 32q5 5 10.5 5t9.5 -5l32 -32q12 -11 1 -22zM498 409q-4 -4 -10 -3.5t-11 4.5l-32 32q-4 5 -4 11t4 10l32 32q5 5 10.5 5t9.5 -5l32 -32q12 -11 1 -22zM-30 -235q-10 0 -15 5.5t-5 16.5v23q0 10 5.5 15t16.5 5
h45q70 0 112 30t60.5 83t18.5 122q0 52 -9.5 91t-23.5 87q-4 16 -2.5 25t14.5 13l21 6q10 3 15.5 -2t12.5 -27q10 -29 17 -65.5t11.5 -73t4.5 -65.5q0 -79 -25 -145t-78.5 -105t-139.5 -39h-56zM244 114v65h240v-65h-240zM620 0q-25 0 -53 7.5t-52 26t-39.5 51t-15.5 83.5
v117q0 20 20 20h20q20 0 20 -20v-117q0 -60 27 -81.5t73 -21.5h20q15 0 15 -15v-20q0 -30 -30 -30h-5z" />
    <glyph glyph-name="uniFC8D" unicode="&#xfc8d;" horiz-adv-x="930" arabic-form="final" 
d="M328 389q-4 -4 -10 -3.5t-11 4.5l-32 32q-4 5 -4 11t4 10l32 32q5 5 10.5 5t9.5 -5l32 -32q12 -11 1 -22zM799 409q-4 -4 -10 -3.5t-11 4.5l-32 32q-4 5 -4 11t4 10l32 32q5 5 10.5 5t9.5 -5l32 -32q12 -11 1 -22zM312 -153q-81 0 -138 30t-87.5 86.5t-30.5 133.5
q0 29 7 67.5t16 61.5q7 17 13.5 23.5t16.5 3.5l16 -5q14 -4 16.5 -10t-0.5 -15q-12 -28 -17.5 -64.5t-5.5 -61.5q0 -90 54.5 -137.5t139.5 -47.5q59 0 108.5 20t79 66t29.5 124q0 36 -8.5 74t-20.5 87q-5 20 16 26l14 4q14 4 20.5 -2t10.5 -22q12 -44 19.5 -85t7.5 -82
q0 -67 -21 -118t-59 -86t-88 -53t-108 -18zM570 114v65h214v-65h-214zM920 0q-25 0 -53 7.5t-52 26t-39.5 51t-15.5 83.5v117q0 20 20 20h20q20 0 20 -20v-117q0 -60 27 -81.5t73 -21.5h20q15 0 15 -15v-20q0 -30 -30 -30h-5z" />
    <glyph glyph-name="uniFC8E" unicode="&#xfc8e;" horiz-adv-x="974" arabic-form="final" 
d="M719 510q-4 -4 -10 -4t-11 5l-31 32q-4 5 -4 10.5t4 10.5l31 32q5 5 11 5t10 -5l32 -32q5 -4 5.5 -10.5t-4.5 -11.5zM358 -152q-88 0 -155 30.5t-104.5 84t-37.5 121.5q0 22 3 45.5t10.5 48t20.5 47.5q10 19 15.5 21.5t17.5 -3.5l22 -11q5 -2 8 -6t-4 -16
q-16 -27 -23.5 -58t-7.5 -64q0 -49 29 -89t81.5 -63t124.5 -23h84q57 0 104.5 13.5t76.5 38t29 58.5t-20.5 51t-82.5 31q-69 16 -106.5 46t-37.5 82q0 38 19 69.5t51.5 54.5t72 36t80.5 13q50 0 87.5 -16.5t66.5 -59t52 -120.5q19 -61 37 -92t41 -42t56 -11h16q9 0 12 -6.5
t3 -13.5v-20q0 -14 -8 -19.5t-22 -5.5h-12q-26 0 -50.5 9.5t-47 31t-42.5 58t-36 91.5q-19 67 -41.5 101t-50.5 46t-64 12q-47 0 -83.5 -15t-56.5 -40.5t-20 -55.5q0 -17 10 -31t37 -25t78 -22q44 -9 70.5 -26.5t39 -44t12.5 -63.5q0 -41 -23.5 -74t-63 -56t-87.5 -35.5
t-97 -12.5h-83z" />
    <glyph glyph-name="uniFC8F" unicode="&#xfc8f;" horiz-adv-x="974" arabic-form="final" 
d="M719 510q-4 -4 -10 -4t-11 5l-31 32q-4 5 -4 10.5t4 10.5l31 32q5 5 11 5t10 -5l32 -32q5 -4 5.5 -10.5t-4.5 -11.5zM343 -306q-4 -4 -10 -3.5t-11 4.5l-32 32q-4 4 -4 10.5t4 10.5l32 32q5 5 10.5 5t10.5 -5l32 -32q5 -4 5.5 -10.5t-4.5 -11.5zM480 -306q-4 -4 -10 -3.5
t-11 4.5l-33 32q-4 4 -4 10.5t4 10.5l33 32q5 5 10.5 5t9.5 -5l32 -32q5 -4 5.5 -10.5t-4.5 -11.5zM358 -152q-88 0 -155 30.5t-104.5 84t-37.5 121.5q0 22 3 45.5t10.5 48t20.5 47.5q10 19 15.5 21.5t17.5 -3.5l22 -11q5 -2 8 -6t-4 -16q-16 -27 -23.5 -58t-7.5 -64
q0 -49 29 -89t81.5 -63t124.5 -23h84q57 0 104.5 13.5t76.5 38t29 58.5t-20.5 51t-82.5 31q-69 16 -106.5 46t-37.5 82q0 38 19 69.5t51.5 54.5t72 36t80.5 13q50 0 87.5 -16.5t66.5 -59t52 -120.5q19 -61 37 -92t41 -42t56 -11h16q9 0 12 -6.5t3 -13.5v-20q0 -14 -8 -19.5
t-22 -5.5h-12q-26 0 -50.5 9.5t-47 31t-42.5 58t-36 91.5q-19 67 -41.5 101t-50.5 46t-64 12q-47 0 -83.5 -15t-56.5 -40.5t-20 -55.5q0 -17 10 -31t37 -25t78 -22q44 -9 70.5 -26.5t39 -44t12.5 -63.5q0 -41 -23.5 -74t-63 -56t-87.5 -35.5t-97 -12.5h-83z" />
    <glyph glyph-name="uniFC91" unicode="&#xfc91;" horiz-adv-x="630" arabic-form="final" 
d="M433 -173q-4 -4 -10 -3.5t-11 4.5l-32 32q-4 4 -4 10.5t4 10.5l32 32q5 5 10.5 5t10.5 -5l32 -32q5 -4 5.5 -10.5t-4.5 -11.5zM570 -173q-4 -4 -10 -3.5t-11 4.5l-33 32q-4 4 -4 10.5t4 10.5l33 32q5 5 10.5 5t9.5 -5l32 -32q5 -4 5.5 -10.5t-4.5 -11.5zM-30 -235
q-10 0 -15 5.5t-5 16.5v23q0 10 5.5 15t16.5 5h45q70 0 112 30t60.5 83t18.5 122q0 52 -9.5 91t-23.5 87q-4 16 -2.5 25t14.5 13l21 6q10 3 15.5 -2t12.5 -27q10 -29 17 -65.5t11.5 -73t4.5 -65.5q0 -79 -25 -145t-78.5 -105t-139.5 -39h-56zM244 114v65h240v-65h-240z
M620 0q-25 0 -53 7.5t-52 26t-39.5 51t-15.5 83.5v117q0 20 20 20h20q20 0 20 -20v-117q0 -60 27 -81.5t73 -21.5h20q15 0 15 -15v-20q0 -30 -30 -30h-5z" />
    <glyph glyph-name="uniFC92" unicode="&#xfc92;" horiz-adv-x="630" arabic-form="final" 
d="M433 -173q-4 -4 -10 -3.5t-11 4.5l-32 32q-4 4 -4 10.5t4 10.5l32 32q5 5 10.5 5t10.5 -5l32 -32q5 -4 5.5 -10.5t-4.5 -11.5zM570 -173q-4 -4 -10 -3.5t-11 4.5l-33 32q-4 4 -4 10.5t4 10.5l33 32q5 5 10.5 5t9.5 -5l32 -32q5 -4 5.5 -10.5t-4.5 -11.5zM187 379
q-4 -4 -10 -3.5t-11 4.5l-32 32q-4 5 -4 11t4 10l32 32q5 5 10.5 5t9.5 -5l32 -32q12 -11 1 -22zM-30 -235q-10 0 -15 5.5t-5 16.5v23q0 10 5.5 15t16.5 5h45q70 0 112 30t60.5 83t18.5 122q0 52 -9.5 91t-23.5 87q-4 16 -2.5 25t14.5 13l21 6q10 3 15.5 -2t12.5 -27
q10 -29 17 -65.5t11.5 -73t4.5 -65.5q0 -79 -25 -145t-78.5 -105t-139.5 -39h-56zM244 114v65h240v-65h-240zM620 0q-25 0 -53 7.5t-52 26t-39.5 51t-15.5 83.5v117q0 20 20 20h20q20 0 20 -20v-117q0 -60 27 -81.5t73 -21.5h20q15 0 15 -15v-20q0 -30 -30 -30h-5z" />
    <glyph glyph-name="uniFC94" unicode="&#xfc94;" horiz-adv-x="930" arabic-form="final" 
d="M328 389q-4 -4 -10 -3.5t-11 4.5l-32 32q-4 5 -4 11t4 10l32 32q5 5 10.5 5t9.5 -5l32 -32q12 -11 1 -22zM736 -173q-4 -4 -10 -3.5t-11 4.5l-32 32q-4 4 -4 10.5t4 10.5l32 32q5 5 10.5 5t10.5 -5l32 -32q5 -4 5.5 -10.5t-4.5 -11.5zM873 -173q-4 -4 -10 -3.5t-11 4.5
l-33 32q-4 4 -4 10.5t4 10.5l33 32q5 5 10.5 5t9.5 -5l32 -32q5 -4 5.5 -10.5t-4.5 -11.5zM312 -153q-81 0 -138 30t-87.5 86.5t-30.5 133.5q0 29 7 67.5t16 61.5q7 17 13.5 23.5t16.5 3.5l16 -5q14 -4 16.5 -10t-0.5 -15q-12 -28 -17.5 -64.5t-5.5 -61.5q0 -90 54.5 -137.5
t139.5 -47.5q59 0 108.5 20t79 66t29.5 124q0 36 -8.5 74t-20.5 87q-5 20 16 26l14 4q14 4 20.5 -2t10.5 -22q12 -44 19.5 -85t7.5 -82q0 -67 -21 -118t-59 -86t-88 -53t-108 -18zM570 114v65h214v-65h-214zM920 0q-25 0 -53 7.5t-52 26t-39.5 51t-15.5 83.5v117q0 20 20 20
h20q20 0 20 -20v-117q0 -60 27 -81.5t73 -21.5h20q15 0 15 -15v-20q0 -30 -30 -30h-5z" />
    <glyph glyph-name="uniFC95" unicode="&#xfc95;" horiz-adv-x="1014" arabic-form="final" 
d="M358 -152q-88 0 -155 30.5t-104.5 84t-37.5 121.5q0 22 3 45.5t10.5 48t20.5 47.5q10 19 15.5 21.5t17.5 -3.5l22 -11q5 -2 8 -6t-4 -16q-16 -27 -23.5 -58t-7.5 -64q0 -49 29 -89t81.5 -63t124.5 -23h84q57 0 104.5 13.5t76.5 38t29 58.5t-20.5 51t-82.5 31
q-69 16 -106.5 46t-37.5 82q0 38 19 69.5t51.5 54.5t72 36t80.5 13q50 0 87.5 -16.5t66.5 -59t52 -120.5q19 -61 38 -92t46 -42t70 -11h36q9 0 12 -6.5t3 -13.5v-20q0 -14 -8 -19.5t-22 -5.5h-32q-33 0 -62 9.5t-53.5 31t-44.5 58t-36 91.5q-19 67 -41.5 101t-50.5 46
t-64 12q-47 0 -83.5 -15t-56.5 -40.5t-20 -55.5q0 -17 10 -31t37 -25t78 -22q44 -9 70.5 -26.5t39 -44t12.5 -63.5q0 -41 -23.5 -74t-63 -56t-87.5 -35.5t-97 -12.5h-83zM768 -168l-32 32q-4 5 -4 11t4 11l31 32q5 5 11 4.5t10 -5.5l33 -32q5 -4 5 -10t-5 -11l-33 -32
q-4 -4 -9.5 -4.5t-10.5 4.5zM914 -168l-32 32q-4 5 -4.5 11.5t3.5 10.5l33 32q5 5 11 4.5t10 -5.5l31 -32q4 -4 4.5 -10t-4.5 -11l-31 -32q-4 -5 -10 -4.5t-11 4.5z" />
    <glyph glyph-name="uniFC96" unicode="&#xfc96;" horiz-adv-x="1014" arabic-form="final" 
d="M343 -306q-4 -4 -10 -3.5t-11 4.5l-32 32q-4 4 -4 10.5t4 10.5l32 32q5 5 10.5 5t10.5 -5l32 -32q5 -4 5.5 -10.5t-4.5 -11.5zM480 -306q-4 -4 -10 -3.5t-11 4.5l-33 32q-4 4 -4 10.5t4 10.5l33 32q5 5 10.5 5t9.5 -5l32 -32q5 -4 5.5 -10.5t-4.5 -11.5zM358 -152
q-88 0 -155 30.5t-104.5 84t-37.5 121.5q0 22 3 45.5t10.5 48t20.5 47.5q10 19 15.5 21.5t17.5 -3.5l22 -11q5 -2 8 -6t-4 -16q-16 -27 -23.5 -58t-7.5 -64q0 -49 29 -89t81.5 -63t124.5 -23h84q57 0 104.5 13.5t76.5 38t29 58.5t-20.5 51t-82.5 31q-69 16 -106.5 46
t-37.5 82q0 38 19 69.5t51.5 54.5t72 36t80.5 13q50 0 87.5 -16.5t66.5 -59t52 -120.5q19 -61 38 -92t46 -42t70 -11h36q9 0 12 -6.5t3 -13.5v-20q0 -14 -8 -19.5t-22 -5.5h-32q-33 0 -62 9.5t-53.5 31t-44.5 58t-36 91.5q-19 67 -41.5 101t-50.5 46t-64 12q-47 0 -83.5 -15
t-56.5 -40.5t-20 -55.5q0 -17 10 -31t37 -25t78 -22q44 -9 70.5 -26.5t39 -44t12.5 -63.5q0 -41 -23.5 -74t-63 -56t-87.5 -35.5t-97 -12.5h-83zM768 -168l-32 32q-4 5 -4 11t4 11l31 32q5 5 11 4.5t10 -5.5l33 -32q5 -4 5 -10t-5 -11l-33 -32q-4 -4 -9.5 -4.5t-10.5 4.5z
M914 -168l-32 32q-4 5 -4.5 11.5t3.5 10.5l33 32q5 5 11 4.5t10 -5.5l31 -32q4 -4 4.5 -10t-4.5 -11l-31 -32q-4 -5 -10 -4.5t-11 4.5z" />
    <glyph glyph-name="uniFCFB" unicode="&#xfcfb;" horiz-adv-x="1485" arabic-form="isolated" 
d="M358 -152q-88 0 -155 30.5t-104.5 84t-37.5 121.5q0 22 3 45.5t10.5 48t20.5 47.5q10 19 15.5 21.5t17.5 -3.5l22 -11q5 -2 8 -6t-4 -16q-16 -27 -23.5 -58t-7.5 -64q0 -49 29 -89t81.5 -63t124.5 -23h84q58 0 106.5 12.5t77.5 36t29 57.5t-20.5 51t-82.5 31
q-69 16 -106.5 46t-37.5 82q0 38 19 69.5t51.5 54.5t72 36t80.5 13q50 0 87.5 -16.5t66.5 -59t52 -120.5q19 -61 37 -92t41 -42t56 -11q59 0 85 29t26 80v82q0 10 5 16.5t15 6.5h19q10 0 15 -6.5t5 -16.5v-82q0 -61 27.5 -85.5t84.5 -24.5q53 0 72.5 29t19.5 74
q0 16 -1.5 32t-6.5 33l-18 64q-3 10 -2.5 18.5t13.5 12.5l18 5q21 6 28 -21l17 -65q6 -24 9 -47t3 -40q0 -40 -14 -77t-48 -60t-94 -23q-52 0 -88 17t-54 52q-9 -23 -29.5 -38.5t-48 -23t-58.5 -7.5q-40 1 -74.5 18t-62.5 58.5t-50 114.5q-19 67 -41.5 101t-50.5 46t-64 12
q-47 0 -83.5 -15t-56.5 -40.5t-20 -55.5q0 -17 10 -31t37 -25t78 -22q44 -9 70.5 -26.5t39 -44t12.5 -63.5q0 -41 -23.5 -73t-63 -54.5t-88.5 -34.5t-99 -12h-83z" />
    <glyph glyph-name="uniFCFC" unicode="&#xfcfc;" horiz-adv-x="1485" arabic-form="isolated" 
d="M343 -306q-4 -4 -10 -3.5t-11 4.5l-32 32q-4 4 -4 10.5t4 10.5l32 32q5 5 10.5 5t10.5 -5l32 -32q5 -4 5.5 -10.5t-4.5 -11.5zM480 -306q-4 -4 -10 -3.5t-11 4.5l-33 32q-4 4 -4 10.5t4 10.5l33 32q5 5 10.5 5t9.5 -5l32 -32q5 -4 5.5 -10.5t-4.5 -11.5zM358 -152
q-88 0 -155 30.5t-104.5 84t-37.5 121.5q0 22 3 45.5t10.5 48t20.5 47.5q10 19 15.5 21.5t17.5 -3.5l22 -11q5 -2 8 -6t-4 -16q-16 -27 -23.5 -58t-7.5 -64q0 -49 29 -89t81.5 -63t124.5 -23h84q58 0 106.5 12.5t77.5 36t29 57.5t-20.5 51t-82.5 31q-69 16 -106.5 46
t-37.5 82q0 38 19 69.5t51.5 54.5t72 36t80.5 13q50 0 87.5 -16.5t66.5 -59t52 -120.5q19 -61 37 -92t41 -42t56 -11q59 0 85 29t26 80v82q0 10 5 16.5t15 6.5h19q10 0 15 -6.5t5 -16.5v-82q0 -61 27.5 -85.5t84.5 -24.5q53 0 72.5 29t19.5 74q0 16 -1.5 32t-6.5 33l-18 64
q-3 10 -2.5 18.5t13.5 12.5l18 5q21 6 28 -21l17 -65q6 -24 9 -47t3 -40q0 -40 -14 -77t-48 -60t-94 -23q-52 0 -88 17t-54 52q-9 -23 -29.5 -38.5t-48 -23t-58.5 -7.5q-40 1 -74.5 18t-62.5 58.5t-50 114.5q-19 67 -41.5 101t-50.5 46t-64 12q-47 0 -83.5 -15t-56.5 -40.5
t-20 -55.5q0 -17 10 -31t37 -25t78 -22q44 -9 70.5 -26.5t39 -44t12.5 -63.5q0 -41 -23.5 -73t-63 -54.5t-88.5 -34.5t-99 -12h-83z" />
    <glyph glyph-name="uniFCFD" unicode="&#xfcfd;" horiz-adv-x="1485" arabic-form="isolated" 
d="M1120 524q-4 -4 -9 -3.5t-10 4.5l-30 30q-9 10 0 19l30 30q9 9 18 0l30 -30q11 -10 1 -20zM1048 398q-4 -4 -10 -4t-11 5l-31 32q-4 5 -4 10.5t4 10.5l31 32q10 11 21 0l32 -32q5 -4 5.5 -10.5t-4.5 -11.5zM1195 398q-4 -5 -10 -4t-11 5l-33 32q-4 4 -4 10.5t4 10.5
l33 32q10 10 20 0l32 -32q5 -4 5 -10.5t-5 -11.5zM358 -152q-88 0 -155 30.5t-104.5 84t-37.5 121.5q0 22 3 45.5t10.5 48t20.5 47.5q10 19 15.5 21.5t17.5 -3.5l22 -11q5 -2 8 -6t-4 -16q-16 -27 -23.5 -58t-7.5 -64q0 -49 29 -89t81.5 -63t124.5 -23h84q58 0 106.5 12.5
t77.5 36t29 57.5t-20.5 51t-82.5 31q-69 16 -106.5 46t-37.5 82q0 38 19 69.5t51.5 54.5t72 36t80.5 13q50 0 87.5 -16.5t66.5 -59t52 -120.5q19 -61 37 -92t41 -42t56 -11q59 0 85 29t26 80v82q0 10 5 16.5t15 6.5h19q10 0 15 -6.5t5 -16.5v-82q0 -61 27.5 -85.5
t84.5 -24.5q53 0 72.5 29t19.5 74q0 16 -1.5 32t-6.5 33l-18 64q-3 10 -2.5 18.5t13.5 12.5l18 5q21 6 28 -21l17 -65q6 -24 9 -47t3 -40q0 -40 -14 -77t-48 -60t-94 -23q-52 0 -88 17t-54 52q-9 -23 -29.5 -38.5t-48 -23t-58.5 -7.5q-40 1 -74.5 18t-62.5 58.5t-50 114.5
q-19 67 -41.5 101t-50.5 46t-64 12q-47 0 -83.5 -15t-56.5 -40.5t-20 -55.5q0 -17 10 -31t37 -25t78 -22q44 -9 70.5 -26.5t39 -44t12.5 -63.5q0 -41 -23.5 -73t-63 -54.5t-88.5 -34.5t-99 -12h-83z" />
    <glyph glyph-name="uniFCFE" unicode="&#xfcfe;" horiz-adv-x="1485" arabic-form="isolated" 
d="M343 -306q-4 -4 -10 -3.5t-11 4.5l-32 32q-4 4 -4 10.5t4 10.5l32 32q5 5 10.5 5t10.5 -5l32 -32q5 -4 5.5 -10.5t-4.5 -11.5zM480 -306q-4 -4 -10 -3.5t-11 4.5l-33 32q-4 4 -4 10.5t4 10.5l33 32q5 5 10.5 5t9.5 -5l32 -32q5 -4 5.5 -10.5t-4.5 -11.5zM1120 524
q-4 -4 -9 -3.5t-10 4.5l-30 30q-9 10 0 19l30 30q9 9 18 0l30 -30q11 -10 1 -20zM1048 398q-4 -4 -10 -4t-11 5l-31 32q-4 5 -4 10.5t4 10.5l31 32q10 11 21 0l32 -32q5 -4 5.5 -10.5t-4.5 -11.5zM1195 398q-4 -5 -10 -4t-11 5l-33 32q-4 4 -4 10.5t4 10.5l33 32q10 10 20 0
l32 -32q5 -4 5 -10.5t-5 -11.5zM358 -152q-88 0 -155 30.5t-104.5 84t-37.5 121.5q0 22 3 45.5t10.5 48t20.5 47.5q10 19 15.5 21.5t17.5 -3.5l22 -11q5 -2 8 -6t-4 -16q-16 -27 -23.5 -58t-7.5 -64q0 -49 29 -89t81.5 -63t124.5 -23h84q58 0 106.5 12.5t77.5 36t29 57.5
t-20.5 51t-82.5 31q-69 16 -106.5 46t-37.5 82q0 38 19 69.5t51.5 54.5t72 36t80.5 13q50 0 87.5 -16.5t66.5 -59t52 -120.5q19 -61 37 -92t41 -42t56 -11q59 0 85 29t26 80v82q0 10 5 16.5t15 6.5h19q10 0 15 -6.5t5 -16.5v-82q0 -61 27.5 -85.5t84.5 -24.5q53 0 72.5 29
t19.5 74q0 16 -1.5 32t-6.5 33l-18 64q-3 10 -2.5 18.5t13.5 12.5l18 5q21 6 28 -21l17 -65q6 -24 9 -47t3 -40q0 -40 -14 -77t-48 -60t-94 -23q-52 0 -88 17t-54 52q-9 -23 -29.5 -38.5t-48 -23t-58.5 -7.5q-40 1 -74.5 18t-62.5 58.5t-50 114.5q-19 67 -41.5 101t-50.5 46
t-64 12q-47 0 -83.5 -15t-56.5 -40.5t-20 -55.5q0 -17 10 -31t37 -25t78 -22q44 -9 70.5 -26.5t39 -44t12.5 -63.5q0 -41 -23.5 -73t-63 -54.5t-88.5 -34.5t-99 -12h-83z" />
    <glyph glyph-name="uniFCFF" unicode="&#xfcff;" horiz-adv-x="1158" arabic-form="isolated" 
d="M339 -225q-70 0 -122.5 17.5t-87 49t-51.5 74t-17 93.5q0 39 15 89.5t51 101.5q5 8 12 9t14 -4l17 -11q7 -4 9 -11t-5 -17q-27 -40 -39 -76t-12 -77q0 -49 22 -88t69.5 -62t124.5 -23h94q74 0 122.5 22t48.5 70q0 31 -19 49.5t-50 18.5h-97q-20 0 -20 21v22q0 22 20 22
h153q59 0 109 8.5t95 25.5t89 42l103 59l68 -21l-153 -88q-30 -17 -59.5 -33.5t-64 -29.5t-78 -20.5t-101.5 -7.5h-15l23 23q25 -16 38.5 -38t13.5 -53q0 -24 -10.5 -51t-36 -51t-69.5 -39.5t-111 -15.5h-93zM1040 176v3q-55 0 -96 10.5t-73 26t-60 31.5t-57 26.5t-65 10.5
q-37 0 -54 -13.5t-27 -30.5q-4 -8 -9 -12.5t-17 -4.5h-12q-21 0 -21 20q0 18 13.5 41.5t45.5 41.5t85 18q40 0 73 -10.5t63 -26t60.5 -31.5t65.5 -26.5t79 -10.5h52q14 0 18 -5.5t4 -19.5v-16q0 -10 -6 -16t-17 -6h-45z" />
    <glyph glyph-name="uniFD00" unicode="&#xfd00;" horiz-adv-x="1158" arabic-form="isolated" 
d="M339 -375q-4 -4 -10 -3.5t-11 4.5l-32 32q-4 4 -4 10.5t4 10.5l32 32q5 5 10.5 5t10.5 -5l32 -32q5 -4 5.5 -10.5t-4.5 -11.5zM476 -375q-4 -4 -10 -3.5t-11 4.5l-33 32q-4 4 -4 10.5t4 10.5l33 32q5 5 10.5 5t9.5 -5l32 -32q5 -4 5.5 -10.5t-4.5 -11.5zM339 -225
q-70 0 -122.5 17.5t-87 49t-51.5 74t-17 93.5q0 39 15 89.5t51 101.5q5 8 12 9t14 -4l17 -11q7 -4 9 -11t-5 -17q-27 -40 -39 -76t-12 -77q0 -49 22 -88t69.5 -62t124.5 -23h94q74 0 122.5 22t48.5 70q0 31 -19 49.5t-50 18.5h-97q-20 0 -20 21v22q0 22 20 22h153
q59 0 109 8.5t95 25.5t89 42l103 59l68 -21l-153 -88q-30 -17 -59.5 -33.5t-64 -29.5t-78 -20.5t-101.5 -7.5h-15l23 23q25 -16 38.5 -38t13.5 -53q0 -24 -10.5 -51t-36 -51t-69.5 -39.5t-111 -15.5h-93zM1040 176v3q-55 0 -96 10.5t-73 26t-60 31.5t-57 26.5t-65 10.5
q-37 0 -54 -13.5t-27 -30.5q-4 -8 -9 -12.5t-17 -4.5h-12q-21 0 -21 20q0 18 13.5 41.5t45.5 41.5t85 18q40 0 73 -10.5t63 -26t60.5 -31.5t65.5 -26.5t79 -10.5h52q14 0 18 -5.5t4 -19.5v-16q0 -10 -6 -16t-17 -6h-45z" />
    <glyph glyph-name="uniFD01" unicode="&#xfd01;" horiz-adv-x="1158" arabic-form="isolated" 
d="M943 -119q-4 -4 -10 -3.5t-11 4.5l-32 32q-4 5 -4 11t4 10l32 32q5 5 10.5 5t9.5 -5l32 -32q5 -5 5.5 -11t-4.5 -11zM339 -225q-70 0 -122.5 17.5t-87 49t-51.5 74t-17 93.5q0 39 15 89.5t51 101.5q5 8 12 9t14 -4l17 -11q7 -4 9 -11t-5 -17q-27 -40 -39 -76t-12 -77
q0 -49 22 -88t69.5 -62t124.5 -23h94q74 0 122.5 22t48.5 70q0 31 -19 49.5t-50 18.5h-97q-20 0 -20 21v22q0 22 20 22h153q59 0 109 8.5t95 25.5t89 42l103 59l68 -21l-153 -88q-30 -17 -59.5 -33.5t-64 -29.5t-78 -20.5t-101.5 -7.5h-15l23 23q25 -16 38.5 -38t13.5 -53
q0 -24 -10.5 -51t-36 -51t-69.5 -39.5t-111 -15.5h-93zM1040 176v3q-55 0 -96 10.5t-73 26t-60 31.5t-57 26.5t-65 10.5q-37 0 -54 -13.5t-27 -30.5q-4 -8 -9 -12.5t-17 -4.5h-12q-21 0 -21 20q0 18 13.5 41.5t45.5 41.5t85 18q40 0 73 -10.5t63 -26t60.5 -31.5t65.5 -26.5
t79 -10.5h52q14 0 18 -5.5t4 -19.5v-16q0 -10 -6 -16t-17 -6h-45z" />
    <glyph glyph-name="uniFD02" unicode="&#xfd02;" horiz-adv-x="1158" arabic-form="isolated" 
d="M339 -375q-4 -4 -10 -3.5t-11 4.5l-32 32q-4 4 -4 10.5t4 10.5l32 32q5 5 10.5 5t10.5 -5l32 -32q5 -4 5.5 -10.5t-4.5 -11.5zM476 -375q-4 -4 -10 -3.5t-11 4.5l-33 32q-4 4 -4 10.5t4 10.5l33 32q5 5 10.5 5t9.5 -5l32 -32q5 -4 5.5 -10.5t-4.5 -11.5zM943 -119
q-4 -4 -10 -3.5t-11 4.5l-32 32q-4 5 -4 11t4 10l32 32q5 5 10.5 5t9.5 -5l32 -32q5 -5 5.5 -11t-4.5 -11zM339 -225q-70 0 -122.5 17.5t-87 49t-51.5 74t-17 93.5q0 39 15 89.5t51 101.5q5 8 12 9t14 -4l17 -11q7 -4 9 -11t-5 -17q-27 -40 -39 -76t-12 -77q0 -49 22 -88
t69.5 -62t124.5 -23h94q74 0 122.5 22t48.5 70q0 31 -19 49.5t-50 18.5h-97q-20 0 -20 21v22q0 22 20 22h153q59 0 109 8.5t95 25.5t89 42l103 59l68 -21l-153 -88q-30 -17 -59.5 -33.5t-64 -29.5t-78 -20.5t-101.5 -7.5h-15l23 23q25 -16 38.5 -38t13.5 -53
q0 -24 -10.5 -51t-36 -51t-69.5 -39.5t-111 -15.5h-93zM1040 176v3q-55 0 -96 10.5t-73 26t-60 31.5t-57 26.5t-65 10.5q-37 0 -54 -13.5t-27 -30.5q-4 -8 -9 -12.5t-17 -4.5h-12q-21 0 -21 20q0 18 13.5 41.5t45.5 41.5t85 18q40 0 73 -10.5t63 -26t60.5 -31.5t65.5 -26.5
t79 -10.5h52q14 0 18 -5.5t4 -19.5v-16q0 -10 -6 -16t-17 -6h-45z" />
    <glyph glyph-name="uniFD03" unicode="&#xfd03;" horiz-adv-x="1158" arabic-form="isolated" 
d="M733 460q-4 -4 -10 -3.5t-11 4.5l-32 32q-4 5 -4 11t4 10l32 32q5 5 10.5 5t9.5 -5l32 -32q12 -11 1 -22zM339 -225q-70 0 -122.5 17.5t-87 49t-51.5 74t-17 93.5q0 39 15 89.5t51 101.5q5 8 12 9t14 -4l17 -11q7 -4 9 -11t-5 -17q-27 -40 -39 -76t-12 -77q0 -49 22 -88
t69.5 -62t124.5 -23h94q74 0 122.5 22t48.5 70q0 31 -19 49.5t-50 18.5h-97q-20 0 -20 21v22q0 22 20 22h153q59 0 109 8.5t95 25.5t89 42l103 59l68 -21l-153 -88q-30 -17 -59.5 -33.5t-64 -29.5t-78 -20.5t-101.5 -7.5h-15l23 23q25 -16 38.5 -38t13.5 -53
q0 -24 -10.5 -51t-36 -51t-69.5 -39.5t-111 -15.5h-93zM1040 176v3q-55 0 -96 10.5t-73 26t-60 31.5t-57 26.5t-65 10.5q-37 0 -54 -13.5t-27 -30.5q-4 -8 -9 -12.5t-17 -4.5h-12q-21 0 -21 20q0 18 13.5 41.5t45.5 41.5t85 18q40 0 73 -10.5t63 -26t60.5 -31.5t65.5 -26.5
t79 -10.5h52q14 0 18 -5.5t4 -19.5v-16q0 -10 -6 -16t-17 -6h-45z" />
    <glyph glyph-name="uniFD04" unicode="&#xfd04;" horiz-adv-x="1158" arabic-form="isolated" 
d="M733 460q-4 -4 -10 -3.5t-11 4.5l-32 32q-4 5 -4 11t4 10l32 32q5 5 10.5 5t9.5 -5l32 -32q12 -11 1 -22zM339 -375q-4 -4 -10 -3.5t-11 4.5l-32 32q-4 4 -4 10.5t4 10.5l32 32q5 5 10.5 5t10.5 -5l32 -32q5 -4 5.5 -10.5t-4.5 -11.5zM476 -375q-4 -4 -10 -3.5t-11 4.5
l-33 32q-4 4 -4 10.5t4 10.5l33 32q5 5 10.5 5t9.5 -5l32 -32q5 -4 5.5 -10.5t-4.5 -11.5zM339 -225q-70 0 -122.5 17.5t-87 49t-51.5 74t-17 93.5q0 39 15 89.5t51 101.5q5 8 12 9t14 -4l17 -11q7 -4 9 -11t-5 -17q-27 -40 -39 -76t-12 -77q0 -49 22 -88t69.5 -62
t124.5 -23h94q74 0 122.5 22t48.5 70q0 31 -19 49.5t-50 18.5h-97q-20 0 -20 21v22q0 22 20 22h153q59 0 109 8.5t95 25.5t89 42l103 59l68 -21l-153 -88q-30 -17 -59.5 -33.5t-64 -29.5t-78 -20.5t-101.5 -7.5h-15l23 23q25 -16 38.5 -38t13.5 -53q0 -24 -10.5 -51t-36 -51
t-69.5 -39.5t-111 -15.5h-93zM1040 176v3q-55 0 -96 10.5t-73 26t-60 31.5t-57 26.5t-65 10.5q-37 0 -54 -13.5t-27 -30.5q-4 -8 -9 -12.5t-17 -4.5h-12q-21 0 -21 20q0 18 13.5 41.5t45.5 41.5t85 18q40 0 73 -10.5t63 -26t60.5 -31.5t65.5 -26.5t79 -10.5h52q14 0 18 -5.5
t4 -19.5v-16q0 -10 -6 -16t-17 -6h-45z" />
    <glyph glyph-name="uniFD05" unicode="&#xfd05;" horiz-adv-x="1530" arabic-form="isolated" 
d="M999 0q-64 0 -103.5 16t-64.5 56.5t-47 113.5q-19 67 -41.5 101t-50.5 46t-64 12q-47 0 -83.5 -15t-56.5 -40.5t-20 -55.5q0 -17 10 -31t37 -25t78 -22q44 -9 70.5 -26.5t39 -44t12.5 -63.5q0 -41 -23.5 -73t-63 -54.5t-88.5 -34.5t-99 -12h-83q-88 0 -155 30.5
t-104.5 84t-37.5 121.5q0 22 3 45.5t10.5 48t20.5 47.5q10 19 15.5 21.5t17.5 -3.5l22 -11q5 -2 8 -6t-4 -16q-16 -27 -23.5 -58t-7.5 -64q0 -49 29 -89t81.5 -63t124.5 -23h84q58 0 106.5 12.5t77.5 36t29 57.5t-20.5 51t-82.5 31q-69 16 -106.5 46t-37.5 82q0 38 19 69.5
t51.5 54.5t72 36t80.5 13q50 0 87.5 -16.5t66.5 -59t52 -120.5q15 -48 27 -76t27.5 -42t41 -18.5t66.5 -4.5h194q103 0 160 32t57 93q0 47 -33.5 81t-98.5 34q-61 0 -115 -33.5t-96.5 -91t-71.5 -131.5l-54 10q39 106 94.5 174t121.5 101t136 33q57 0 96.5 -23t60 -61
t20.5 -83q0 -75 -37 -118.5t-103 -62.5t-152 -19h-179z" />
    <glyph glyph-name="uniFD06" unicode="&#xfd06;" horiz-adv-x="1530" arabic-form="isolated" 
d="M343 -306q-4 -4 -10 -3.5t-11 4.5l-32 32q-4 4 -4 10.5t4 10.5l32 32q5 5 10.5 5t10.5 -5l32 -32q5 -4 5.5 -10.5t-4.5 -11.5zM480 -306q-4 -4 -10 -3.5t-11 4.5l-33 32q-4 4 -4 10.5t4 10.5l33 32q5 5 10.5 5t9.5 -5l32 -32q5 -4 5.5 -10.5t-4.5 -11.5zM999 0
q-64 0 -103.5 16t-64.5 56.5t-47 113.5q-19 67 -41.5 101t-50.5 46t-64 12q-47 0 -83.5 -15t-56.5 -40.5t-20 -55.5q0 -17 10 -31t37 -25t78 -22q44 -9 70.5 -26.5t39 -44t12.5 -63.5q0 -41 -23.5 -73t-63 -54.5t-88.5 -34.5t-99 -12h-83q-88 0 -155 30.5t-104.5 84
t-37.5 121.5q0 22 3 45.5t10.5 48t20.5 47.5q10 19 15.5 21.5t17.5 -3.5l22 -11q5 -2 8 -6t-4 -16q-16 -27 -23.5 -58t-7.5 -64q0 -49 29 -89t81.5 -63t124.5 -23h84q58 0 106.5 12.5t77.5 36t29 57.5t-20.5 51t-82.5 31q-69 16 -106.5 46t-37.5 82q0 38 19 69.5t51.5 54.5
t72 36t80.5 13q50 0 87.5 -16.5t66.5 -59t52 -120.5q15 -48 27 -76t27.5 -42t41 -18.5t66.5 -4.5h194q103 0 160 32t57 93q0 47 -33.5 81t-98.5 34q-61 0 -115 -33.5t-96.5 -91t-71.5 -131.5l-54 10q39 106 94.5 174t121.5 101t136 33q57 0 96.5 -23t60 -61t20.5 -83
q0 -75 -37 -118.5t-103 -62.5t-152 -19h-179z" />
    <glyph glyph-name="uniFD07" unicode="&#xfd07;" horiz-adv-x="1530" arabic-form="isolated" 
d="M1265 461q-4 -4 -10 -3.5t-11 4.5l-32 32q-4 5 -4 11t4 10l32 32q5 5 10.5 5t9.5 -5l32 -32q12 -11 1 -22zM999 0q-64 0 -103.5 16t-64.5 56.5t-47 113.5q-19 67 -41.5 101t-50.5 46t-64 12q-47 0 -83.5 -15t-56.5 -40.5t-20 -55.5q0 -17 10 -31t37 -25t78 -22
q44 -9 70.5 -26.5t39 -44t12.5 -63.5q0 -41 -23.5 -73t-63 -54.5t-88.5 -34.5t-99 -12h-83q-88 0 -155 30.5t-104.5 84t-37.5 121.5q0 22 3 45.5t10.5 48t20.5 47.5q10 19 15.5 21.5t17.5 -3.5l22 -11q5 -2 8 -6t-4 -16q-16 -27 -23.5 -58t-7.5 -64q0 -49 29 -89t81.5 -63
t124.5 -23h84q58 0 106.5 12.5t77.5 36t29 57.5t-20.5 51t-82.5 31q-69 16 -106.5 46t-37.5 82q0 38 19 69.5t51.5 54.5t72 36t80.5 13q50 0 87.5 -16.5t66.5 -59t52 -120.5q15 -48 27 -76t27.5 -42t41 -18.5t66.5 -4.5h194q103 0 160 32t57 93q0 47 -33.5 81t-98.5 34
q-61 0 -115 -33.5t-96.5 -91t-71.5 -131.5l-54 10q39 106 94.5 174t121.5 101t136 33q57 0 96.5 -23t60 -61t20.5 -83q0 -75 -37 -118.5t-103 -62.5t-152 -19h-179z" />
    <glyph glyph-name="uniFD08" unicode="&#xfd08;" horiz-adv-x="1530" arabic-form="isolated" 
d="M343 -306q-4 -4 -10 -3.5t-11 4.5l-32 32q-4 4 -4 10.5t4 10.5l32 32q5 5 10.5 5t10.5 -5l32 -32q5 -4 5.5 -10.5t-4.5 -11.5zM480 -306q-4 -4 -10 -3.5t-11 4.5l-33 32q-4 4 -4 10.5t4 10.5l33 32q5 5 10.5 5t9.5 -5l32 -32q5 -4 5.5 -10.5t-4.5 -11.5zM1265 461
q-4 -4 -10 -3.5t-11 4.5l-32 32q-4 5 -4 11t4 10l32 32q5 5 10.5 5t9.5 -5l32 -32q12 -11 1 -22zM999 0q-64 0 -103.5 16t-64.5 56.5t-47 113.5q-19 67 -41.5 101t-50.5 46t-64 12q-47 0 -83.5 -15t-56.5 -40.5t-20 -55.5q0 -17 10 -31t37 -25t78 -22q44 -9 70.5 -26.5
t39 -44t12.5 -63.5q0 -41 -23.5 -73t-63 -54.5t-88.5 -34.5t-99 -12h-83q-88 0 -155 30.5t-104.5 84t-37.5 121.5q0 22 3 45.5t10.5 48t20.5 47.5q10 19 15.5 21.5t17.5 -3.5l22 -11q5 -2 8 -6t-4 -16q-16 -27 -23.5 -58t-7.5 -64q0 -49 29 -89t81.5 -63t124.5 -23h84
q58 0 106.5 12.5t77.5 36t29 57.5t-20.5 51t-82.5 31q-69 16 -106.5 46t-37.5 82q0 38 19 69.5t51.5 54.5t72 36t80.5 13q50 0 87.5 -16.5t66.5 -59t52 -120.5q15 -48 27 -76t27.5 -42t41 -18.5t66.5 -4.5h194q103 0 160 32t57 93q0 47 -33.5 81t-98.5 34q-61 0 -115 -33.5
t-96.5 -91t-71.5 -131.5l-54 10q39 106 94.5 174t121.5 101t136 33q57 0 96.5 -23t60 -61t20.5 -83q0 -75 -37 -118.5t-103 -62.5t-152 -19h-179z" />
    <glyph glyph-name="uniFD0D" unicode="&#xfd0d;" horiz-adv-x="1146" arabic-form="isolated" 
d="M780 523q-4 -4 -9 -3.5t-10 4.5l-30 30q-9 10 0 19l30 30q9 9 18 0l30 -30q11 -10 1 -20zM708 397q-4 -4 -10 -4t-11 5l-31 32q-4 5 -4 10.5t4 10.5l31 32q10 11 21 0l32 -32q5 -4 5.5 -10.5t-4.5 -11.5zM855 397q-4 -5 -10 -4t-11 5l-33 32q-4 4 -4 10.5t4 10.5l33 32
q10 10 20 0l32 -32q5 -4 5 -10.5t-5 -11.5zM622 -5q-44 0 -80 16.5t-57 56.5t-21 108v79q0 10 5 15t15 5h20q20 0 20 -20v-79q0 -46 13.5 -71t38.5 -34.5t57 -9.5q65 0 87.5 29t22.5 80v82q0 10 5 16.5t15 6.5h19q10 0 15 -6.5t5 -16.5v-82q0 -61 27.5 -85.5t84.5 -24.5
q53 0 72.5 29t19.5 74q0 16 -1.5 32t-6.5 33l-18 64q-3 10 -2 19t13 12l18 5q14 4 19.5 -2.5t8.5 -18.5l17 -65q6 -24 9 -47t3 -40q0 -40 -14 -77t-48 -60t-94 -23q-52 0 -88 17t-54 52q-11 -29 -34.5 -44t-53 -20t-58.5 -5zM-30 -235q-10 0 -15 5.5t-5 16.5v23q0 10 5.5 15
t16.5 5h45q70 0 112 30t60.5 83t18.5 122q0 52 -9.5 91t-23.5 87q-4 16 -2.5 25t14.5 13l21 6q10 3 15.5 -2t12.5 -27q10 -29 17 -65.5t11.5 -73t4.5 -65.5q0 -79 -25 -145t-78.5 -105t-139.5 -39h-56zM244 114v65h240v-65h-240z" />
    <glyph glyph-name="uniFD0E" unicode="&#xfd0e;" horiz-adv-x="1146" arabic-form="isolated" 
d="M622 -5q-44 0 -80 16.5t-57 56.5t-21 108v79q0 10 5 15t15 5h20q20 0 20 -20v-79q0 -46 13.5 -71t38.5 -34.5t57 -9.5q65 0 87.5 29t22.5 80v82q0 10 5 16.5t15 6.5h19q10 0 15 -6.5t5 -16.5v-82q0 -61 27.5 -85.5t84.5 -24.5q53 0 72.5 29t19.5 74q0 16 -1.5 32t-6.5 33
l-18 64q-3 10 -2 19t13 12l18 5q14 4 19.5 -2.5t8.5 -18.5l17 -65q6 -24 9 -47t3 -40q0 -40 -14 -77t-48 -60t-94 -23q-52 0 -88 17t-54 52q-11 -29 -34.5 -44t-53 -20t-58.5 -5zM-30 -235q-10 0 -15 5.5t-5 16.5v23q0 10 5.5 15t16.5 5h45q70 0 112 30t60.5 83t18.5 122
q0 52 -9.5 91t-23.5 87q-4 16 -2.5 25t14.5 13l21 6q10 3 15.5 -2t12.5 -27q10 -29 17 -65.5t11.5 -73t4.5 -65.5q0 -79 -25 -145t-78.5 -105t-139.5 -39h-56zM244 114v65h240v-65h-240z" />
    <glyph glyph-name="uniFD0F" unicode="&#xfd0f;" horiz-adv-x="1166" arabic-form="isolated" 
d="M615 0q-43 0 -77.5 17t-54 57t-19.5 108v73q0 20 20 20h20q20 0 20 -20v-73q0 -46 9.5 -71.5t39 -35.5t89.5 -10h167q103 0 160 32t57 93q0 47 -33.5 81t-98.5 34q-61 0 -115 -33.5t-96.5 -91t-71.5 -131.5l-54 10q39 106 94.5 174t121.5 101t136 33q57 0 96.5 -23
t60 -61t20.5 -83q0 -75 -37 -118.5t-103 -62.5t-152 -19h-199zM-30 -235q-10 0 -15 5.5t-5 16.5v23q0 10 5.5 15t16.5 5h45q70 0 112 30t60.5 83t18.5 122q0 52 -9.5 91t-23.5 87q-4 16 -2.5 25t14.5 13l21 6q10 3 15.5 -2t12.5 -27q10 -29 17 -65.5t11.5 -73t4.5 -65.5
q0 -79 -25 -145t-78.5 -105t-139.5 -39h-56zM244 114v65h240v-65h-240z" />
    <glyph glyph-name="uniFD10" unicode="&#xfd10;" horiz-adv-x="1166" arabic-form="isolated" 
d="M864 458q-4 -4 -10 -3.5t-11 4.5l-32 32q-4 5 -4 11t4 10l32 32q5 5 10.5 5t9.5 -5l32 -32q12 -11 1 -22zM615 0q-43 0 -77.5 17t-54 57t-19.5 108v73q0 20 20 20h20q20 0 20 -20v-73q0 -46 9.5 -71.5t39 -35.5t89.5 -10h167q103 0 160 32t57 93q0 47 -33.5 81t-98.5 34
q-61 0 -115 -33.5t-96.5 -91t-71.5 -131.5l-54 10q39 106 94.5 174t121.5 101t136 33q57 0 96.5 -23t60 -61t20.5 -83q0 -75 -37 -118.5t-103 -62.5t-152 -19h-199zM-30 -235q-10 0 -15 5.5t-5 16.5v23q0 10 5.5 15t16.5 5h45q70 0 112 30t60.5 83t18.5 122q0 52 -9.5 91
t-23.5 87q-4 16 -2.5 25t14.5 13l21 6q10 3 15.5 -2t12.5 -27q10 -29 17 -65.5t11.5 -73t4.5 -65.5q0 -79 -25 -145t-78.5 -105t-139.5 -39h-56zM244 114v65h240v-65h-240z" />
    <glyph glyph-name="uniFD17" unicode="&#xfd17;" horiz-adv-x="1550" arabic-form="final" 
d="M358 -152q-88 0 -155 30.5t-104.5 84t-37.5 121.5q0 22 3 45.5t10.5 48t20.5 47.5q10 19 15.5 21.5t17.5 -3.5l22 -11q5 -2 8 -6t-4 -16q-16 -27 -23.5 -58t-7.5 -64q0 -49 29 -89t81.5 -63t124.5 -23h84q58 0 106.5 12.5t77.5 36t29 57.5t-20.5 51t-82.5 31
q-69 16 -106.5 46t-37.5 82q0 38 19 69.5t51.5 54.5t72 36t80.5 13q50 0 87.5 -16.5t66.5 -59t52 -120.5q19 -61 37 -92t41 -42t56 -11q59 0 85 29t26 80v82q0 10 5 16.5t15 6.5h19q10 0 15 -6.5t5 -16.5v-82q0 -61 27.5 -85.5t84.5 -24.5t77 28t20 82v82q0 10 5 16.5
t15 6.5h20q10 0 15 -6.5t5 -16.5v-82q0 -58 29 -81.5t100 -23.5h21q15 0 15 -15v-20q0 -30 -30 -30q-64 0 -105.5 15.5t-64.5 48.5q-14 -35 -48 -52t-78 -17q-52 0 -88 17t-54 52q-9 -23 -29.5 -38.5t-48 -23t-58.5 -7.5q-40 1 -74.5 18t-62.5 58.5t-50 114.5
q-19 67 -41.5 101t-50.5 46t-64 12q-47 0 -83.5 -15t-56.5 -40.5t-20 -55.5q0 -17 10 -31t37 -25t78 -22q44 -9 70.5 -26.5t39 -44t12.5 -63.5q0 -41 -23.5 -73t-63 -54.5t-88.5 -34.5t-99 -12h-83z" />
    <glyph glyph-name="uniFD18" unicode="&#xfd18;" horiz-adv-x="1550" arabic-form="final" 
d="M343 -306q-4 -4 -10 -3.5t-11 4.5l-32 32q-4 4 -4 10.5t4 10.5l32 32q5 5 10.5 5t10.5 -5l32 -32q5 -4 5.5 -10.5t-4.5 -11.5zM480 -306q-4 -4 -10 -3.5t-11 4.5l-33 32q-4 4 -4 10.5t4 10.5l33 32q5 5 10.5 5t9.5 -5l32 -32q5 -4 5.5 -10.5t-4.5 -11.5zM358 -152
q-88 0 -155 30.5t-104.5 84t-37.5 121.5q0 22 3 45.5t10.5 48t20.5 47.5q10 19 15.5 21.5t17.5 -3.5l22 -11q5 -2 8 -6t-4 -16q-16 -27 -23.5 -58t-7.5 -64q0 -49 29 -89t81.5 -63t124.5 -23h84q58 0 106.5 12.5t77.5 36t29 57.5t-20.5 51t-82.5 31q-69 16 -106.5 46
t-37.5 82q0 38 19 69.5t51.5 54.5t72 36t80.5 13q50 0 87.5 -16.5t66.5 -59t52 -120.5q19 -61 37 -92t41 -42t56 -11q59 0 85 29t26 80v82q0 10 5 16.5t15 6.5h19q10 0 15 -6.5t5 -16.5v-82q0 -61 27.5 -85.5t84.5 -24.5t77 28t20 82v82q0 10 5 16.5t15 6.5h20q10 0 15 -6.5
t5 -16.5v-82q0 -58 29 -81.5t100 -23.5h21q15 0 15 -15v-20q0 -30 -30 -30q-64 0 -105.5 15.5t-64.5 48.5q-14 -35 -48 -52t-78 -17q-52 0 -88 17t-54 52q-9 -23 -29.5 -38.5t-48 -23t-58.5 -7.5q-40 1 -74.5 18t-62.5 58.5t-50 114.5q-19 67 -41.5 101t-50.5 46t-64 12
q-47 0 -83.5 -15t-56.5 -40.5t-20 -55.5q0 -17 10 -31t37 -25t78 -22q44 -9 70.5 -26.5t39 -44t12.5 -63.5q0 -41 -23.5 -73t-63 -54.5t-88.5 -34.5t-99 -12h-83z" />
    <glyph glyph-name="uniFD19" unicode="&#xfd19;" horiz-adv-x="1550" arabic-form="final" 
d="M1120 524q-4 -4 -9 -3.5t-10 4.5l-30 30q-9 10 0 19l30 30q9 9 18 0l30 -30q11 -10 1 -20zM1048 398q-4 -4 -10 -4t-11 5l-31 32q-4 5 -4 10.5t4 10.5l31 32q10 11 21 0l32 -32q5 -4 5.5 -10.5t-4.5 -11.5zM1195 398q-4 -5 -10 -4t-11 5l-33 32q-4 4 -4 10.5t4 10.5
l33 32q10 10 20 0l32 -32q5 -4 5 -10.5t-5 -11.5zM358 -152q-88 0 -155 30.5t-104.5 84t-37.5 121.5q0 22 3 45.5t10.5 48t20.5 47.5q10 19 15.5 21.5t17.5 -3.5l22 -11q5 -2 8 -6t-4 -16q-16 -27 -23.5 -58t-7.5 -64q0 -49 29 -89t81.5 -63t124.5 -23h84q58 0 106.5 12.5
t77.5 36t29 57.5t-20.5 51t-82.5 31q-69 16 -106.5 46t-37.5 82q0 38 19 69.5t51.5 54.5t72 36t80.5 13q50 0 87.5 -16.5t66.5 -59t52 -120.5q19 -61 37 -92t41 -42t56 -11q59 0 85 29t26 80v82q0 10 5 16.5t15 6.5h19q10 0 15 -6.5t5 -16.5v-82q0 -61 27.5 -85.5
t84.5 -24.5t77 28t20 82v82q0 10 5 16.5t15 6.5h20q10 0 15 -6.5t5 -16.5v-82q0 -58 29 -81.5t100 -23.5h21q15 0 15 -15v-20q0 -30 -30 -30q-64 0 -105.5 15.5t-64.5 48.5q-14 -35 -48 -52t-78 -17q-52 0 -88 17t-54 52q-9 -23 -29.5 -38.5t-48 -23t-58.5 -7.5
q-40 1 -74.5 18t-62.5 58.5t-50 114.5q-19 67 -41.5 101t-50.5 46t-64 12q-47 0 -83.5 -15t-56.5 -40.5t-20 -55.5q0 -17 10 -31t37 -25t78 -22q44 -9 70.5 -26.5t39 -44t12.5 -63.5q0 -41 -23.5 -73t-63 -54.5t-88.5 -34.5t-99 -12h-83z" />
    <glyph glyph-name="uniFD1A" unicode="&#xfd1a;" horiz-adv-x="1550" arabic-form="final" 
d="M343 -306q-4 -4 -10 -3.5t-11 4.5l-32 32q-4 4 -4 10.5t4 10.5l32 32q5 5 10.5 5t10.5 -5l32 -32q5 -4 5.5 -10.5t-4.5 -11.5zM480 -306q-4 -4 -10 -3.5t-11 4.5l-33 32q-4 4 -4 10.5t4 10.5l33 32q5 5 10.5 5t9.5 -5l32 -32q5 -4 5.5 -10.5t-4.5 -11.5zM1120 524
q-4 -4 -9 -3.5t-10 4.5l-30 30q-9 10 0 19l30 30q9 9 18 0l30 -30q11 -10 1 -20zM1048 398q-4 -4 -10 -4t-11 5l-31 32q-4 5 -4 10.5t4 10.5l31 32q10 11 21 0l32 -32q5 -4 5.5 -10.5t-4.5 -11.5zM1195 398q-4 -5 -10 -4t-11 5l-33 32q-4 4 -4 10.5t4 10.5l33 32q10 10 20 0
l32 -32q5 -4 5 -10.5t-5 -11.5zM358 -152q-88 0 -155 30.5t-104.5 84t-37.5 121.5q0 22 3 45.5t10.5 48t20.5 47.5q10 19 15.5 21.5t17.5 -3.5l22 -11q5 -2 8 -6t-4 -16q-16 -27 -23.5 -58t-7.5 -64q0 -49 29 -89t81.5 -63t124.5 -23h84q58 0 106.5 12.5t77.5 36t29 57.5
t-20.5 51t-82.5 31q-69 16 -106.5 46t-37.5 82q0 38 19 69.5t51.5 54.5t72 36t80.5 13q50 0 87.5 -16.5t66.5 -59t52 -120.5q19 -61 37 -92t41 -42t56 -11q59 0 85 29t26 80v82q0 10 5 16.5t15 6.5h19q10 0 15 -6.5t5 -16.5v-82q0 -61 27.5 -85.5t84.5 -24.5t77 28t20 82v82
q0 10 5 16.5t15 6.5h20q10 0 15 -6.5t5 -16.5v-82q0 -58 29 -81.5t100 -23.5h21q15 0 15 -15v-20q0 -30 -30 -30q-64 0 -105.5 15.5t-64.5 48.5q-14 -35 -48 -52t-78 -17q-52 0 -88 17t-54 52q-9 -23 -29.5 -38.5t-48 -23t-58.5 -7.5q-40 1 -74.5 18t-62.5 58.5t-50 114.5
q-19 67 -41.5 101t-50.5 46t-64 12q-47 0 -83.5 -15t-56.5 -40.5t-20 -55.5q0 -17 10 -31t37 -25t78 -22q44 -9 70.5 -26.5t39 -44t12.5 -63.5q0 -41 -23.5 -73t-63 -54.5t-88.5 -34.5t-99 -12h-83z" />
    <glyph glyph-name="uniFD1B" unicode="&#xfd1b;" horiz-adv-x="1202" arabic-form="final" 
d="M339 -225q-70 0 -122.5 17.5t-87 49t-51.5 74t-17 93.5q0 39 15 89.5t51 101.5q5 8 12 9t14 -4l17 -11q7 -4 9 -11t-5 -17q-27 -40 -39 -76t-12 -77q0 -49 22 -88t69.5 -62t124.5 -23h94q74 0 122.5 22t48.5 70q0 31 -19 49.5t-50 18.5h-97q-20 0 -20 21v22q0 22 20 22
h153q89 0 158 19t135 57l103 59l68 -21l-153 -88q-39 -23 -79.5 -44t-93.5 -34t-130 -13h-15l23 23q25 -16 38.5 -38t13.5 -53q0 -24 -10.5 -51t-36 -51t-69.5 -39.5t-111 -15.5h-93zM1040 176v3q-55 0 -96 10.5t-73 26t-60 31.5t-57 26.5t-65 10.5q-37 0 -54 -13.5
t-27 -30.5q-4 -8 -9 -12.5t-17 -4.5h-12q-21 0 -21 20q0 13 7.5 30t24.5 33.5t44.5 27t67.5 10.5t73 -10.5t63 -26t60.5 -31.5t65.5 -26.5t79 -10.5h52q14 0 18 -5.5t4 -19.5v-16q0 -10 -6 -16t-17 -6h-45zM1161 0q-49 0 -91.5 13.5t-68.5 49.5t-27 103l38 29
q0 -47 12 -73.5t33 -38.5t49 -15t60 -3h46q9 0 12 -6.5t3 -13.5v-20q0 -14 -8 -19.5t-22 -5.5h-36z" />
    <glyph glyph-name="uniFD1C" unicode="&#xfd1c;" horiz-adv-x="1202" arabic-form="final" 
d="M339 -375q-4 -4 -10 -3.5t-11 4.5l-32 32q-4 4 -4 10.5t4 10.5l32 32q5 5 10.5 5t10.5 -5l32 -32q5 -4 5.5 -10.5t-4.5 -11.5zM476 -375q-4 -4 -10 -3.5t-11 4.5l-33 32q-4 4 -4 10.5t4 10.5l33 32q5 5 10.5 5t9.5 -5l32 -32q5 -4 5.5 -10.5t-4.5 -11.5zM339 -225
q-70 0 -122.5 17.5t-87 49t-51.5 74t-17 93.5q0 39 15 89.5t51 101.5q5 8 12 9t14 -4l17 -11q7 -4 9 -11t-5 -17q-27 -40 -39 -76t-12 -77q0 -49 22 -88t69.5 -62t124.5 -23h94q74 0 122.5 22t48.5 70q0 31 -19 49.5t-50 18.5h-97q-20 0 -20 21v22q0 22 20 22h153
q89 0 158 19t135 57l103 59l68 -21l-153 -88q-39 -23 -79.5 -44t-93.5 -34t-130 -13h-15l23 23q25 -16 38.5 -38t13.5 -53q0 -24 -10.5 -51t-36 -51t-69.5 -39.5t-111 -15.5h-93zM1040 176v3q-55 0 -96 10.5t-73 26t-60 31.5t-57 26.5t-65 10.5q-37 0 -54 -13.5t-27 -30.5
q-4 -8 -9 -12.5t-17 -4.5h-12q-21 0 -21 20q0 13 7.5 30t24.5 33.5t44.5 27t67.5 10.5t73 -10.5t63 -26t60.5 -31.5t65.5 -26.5t79 -10.5h52q14 0 18 -5.5t4 -19.5v-16q0 -10 -6 -16t-17 -6h-45zM1161 0q-49 0 -91.5 13.5t-68.5 49.5t-27 103l38 29q0 -47 12 -73.5t33 -38.5
t49 -15t60 -3h46q9 0 12 -6.5t3 -13.5v-20q0 -14 -8 -19.5t-22 -5.5h-36z" />
    <glyph glyph-name="uniFD1D" unicode="&#xfd1d;" horiz-adv-x="1202" arabic-form="final" 
d="M915 -119q-4 -4 -10 -3.5t-11 4.5l-32 32q-4 5 -4 11t4 10l32 32q5 5 10.5 5t9.5 -5l32 -32q5 -5 5.5 -11t-4.5 -11zM339 -225q-70 0 -122.5 17.5t-87 49t-51.5 74t-17 93.5q0 39 15 89.5t51 101.5q5 8 12 9t14 -4l17 -11q7 -4 9 -11t-5 -17q-27 -40 -39 -76t-12 -77
q0 -49 22 -88t69.5 -62t124.5 -23h94q74 0 122.5 22t48.5 70q0 31 -19 49.5t-50 18.5h-97q-20 0 -20 21v22q0 22 20 22h153q89 0 158 19t135 57l103 59l68 -21l-153 -88q-39 -23 -79.5 -44t-93.5 -34t-130 -13h-15l23 23q25 -16 38.5 -38t13.5 -53q0 -24 -10.5 -51t-36 -51
t-69.5 -39.5t-111 -15.5h-93zM1040 176v3q-55 0 -96 10.5t-73 26t-60 31.5t-57 26.5t-65 10.5q-37 0 -54 -13.5t-27 -30.5q-4 -8 -9 -12.5t-17 -4.5h-12q-21 0 -21 20q0 13 7.5 30t24.5 33.5t44.5 27t67.5 10.5t73 -10.5t63 -26t60.5 -31.5t65.5 -26.5t79 -10.5h52
q14 0 18 -5.5t4 -19.5v-16q0 -10 -6 -16t-17 -6h-45zM1161 0q-49 0 -91.5 13.5t-68.5 49.5t-27 103l38 29q0 -47 12 -73.5t33 -38.5t49 -15t60 -3h46q9 0 12 -6.5t3 -13.5v-20q0 -14 -8 -19.5t-22 -5.5h-36z" />
    <glyph glyph-name="uniFD1E" unicode="&#xfd1e;" horiz-adv-x="1202" arabic-form="final" 
d="M915 -119q-4 -4 -10 -3.5t-11 4.5l-32 32q-4 5 -4 11t4 10l32 32q5 5 10.5 5t9.5 -5l32 -32q5 -5 5.5 -11t-4.5 -11zM339 -375q-4 -4 -10 -3.5t-11 4.5l-32 32q-4 4 -4 10.5t4 10.5l32 32q5 5 10.5 5t10.5 -5l32 -32q5 -4 5.5 -10.5t-4.5 -11.5zM476 -375q-4 -4 -10 -3.5
t-11 4.5l-33 32q-4 4 -4 10.5t4 10.5l33 32q5 5 10.5 5t9.5 -5l32 -32q5 -4 5.5 -10.5t-4.5 -11.5zM339 -225q-70 0 -122.5 17.5t-87 49t-51.5 74t-17 93.5q0 39 15 89.5t51 101.5q5 8 12 9t14 -4l17 -11q7 -4 9 -11t-5 -17q-27 -40 -39 -76t-12 -77q0 -49 22 -88t69.5 -62
t124.5 -23h94q74 0 122.5 22t48.5 70q0 31 -19 49.5t-50 18.5h-97q-20 0 -20 21v22q0 22 20 22h153q89 0 158 19t135 57l103 59l68 -21l-153 -88q-39 -23 -79.5 -44t-93.5 -34t-130 -13h-15l23 23q25 -16 38.5 -38t13.5 -53q0 -24 -10.5 -51t-36 -51t-69.5 -39.5t-111 -15.5
h-93zM1040 176v3q-55 0 -96 10.5t-73 26t-60 31.5t-57 26.5t-65 10.5q-37 0 -54 -13.5t-27 -30.5q-4 -8 -9 -12.5t-17 -4.5h-12q-21 0 -21 20q0 13 7.5 30t24.5 33.5t44.5 27t67.5 10.5t73 -10.5t63 -26t60.5 -31.5t65.5 -26.5t79 -10.5h52q14 0 18 -5.5t4 -19.5v-16
q0 -10 -6 -16t-17 -6h-45zM1161 0q-49 0 -91.5 13.5t-68.5 49.5t-27 103l38 29q0 -47 12 -73.5t33 -38.5t49 -15t60 -3h46q9 0 12 -6.5t3 -13.5v-20q0 -14 -8 -19.5t-22 -5.5h-36z" />
    <glyph glyph-name="uniFD1F" unicode="&#xfd1f;" horiz-adv-x="1202" arabic-form="final" 
d="M733 460q-4 -4 -10 -3.5t-11 4.5l-32 32q-4 5 -4 11t4 10l32 32q5 5 10.5 5t9.5 -5l32 -32q12 -11 1 -22zM339 -225q-70 0 -122.5 17.5t-87 49t-51.5 74t-17 93.5q0 39 15 89.5t51 101.5q5 8 12 9t14 -4l17 -11q7 -4 9 -11t-5 -17q-27 -40 -39 -76t-12 -77q0 -49 22 -88
t69.5 -62t124.5 -23h94q74 0 122.5 22t48.5 70q0 31 -19 49.5t-50 18.5h-97q-20 0 -20 21v22q0 22 20 22h153q89 0 158 19t135 57l103 59l68 -21l-153 -88q-39 -23 -79.5 -44t-93.5 -34t-130 -13h-15l23 23q25 -16 38.5 -38t13.5 -53q0 -24 -10.5 -51t-36 -51t-69.5 -39.5
t-111 -15.5h-93zM1040 176v3q-55 0 -96 10.5t-73 26t-60 31.5t-57 26.5t-65 10.5q-37 0 -54 -13.5t-27 -30.5q-4 -8 -9 -12.5t-17 -4.5h-12q-21 0 -21 20q0 13 7.5 30t24.5 33.5t44.5 27t67.5 10.5t73 -10.5t63 -26t60.5 -31.5t65.5 -26.5t79 -10.5h52q14 0 18 -5.5t4 -19.5
v-16q0 -10 -6 -16t-17 -6h-45zM1161 0q-49 0 -91.5 13.5t-68.5 49.5t-27 103l38 29q0 -47 12 -73.5t33 -38.5t49 -15t60 -3h46q9 0 12 -6.5t3 -13.5v-20q0 -14 -8 -19.5t-22 -5.5h-36z" />
    <glyph glyph-name="uniFD20" unicode="&#xfd20;" horiz-adv-x="1202" arabic-form="final" 
d="M733 460q-4 -4 -10 -3.5t-11 4.5l-32 32q-4 5 -4 11t4 10l32 32q5 5 10.5 5t9.5 -5l32 -32q12 -11 1 -22zM339 -375q-4 -4 -10 -3.5t-11 4.5l-32 32q-4 4 -4 10.5t4 10.5l32 32q5 5 10.5 5t10.5 -5l32 -32q5 -4 5.5 -10.5t-4.5 -11.5zM476 -375q-4 -4 -10 -3.5t-11 4.5
l-33 32q-4 4 -4 10.5t4 10.5l33 32q5 5 10.5 5t9.5 -5l32 -32q5 -4 5.5 -10.5t-4.5 -11.5zM339 -225q-70 0 -122.5 17.5t-87 49t-51.5 74t-17 93.5q0 39 15 89.5t51 101.5q5 8 12 9t14 -4l17 -11q7 -4 9 -11t-5 -17q-27 -40 -39 -76t-12 -77q0 -49 22 -88t69.5 -62
t124.5 -23h94q74 0 122.5 22t48.5 70q0 31 -19 49.5t-50 18.5h-97q-20 0 -20 21v22q0 22 20 22h153q89 0 158 19t135 57l103 59l68 -21l-153 -88q-39 -23 -79.5 -44t-93.5 -34t-130 -13h-15l23 23q25 -16 38.5 -38t13.5 -53q0 -24 -10.5 -51t-36 -51t-69.5 -39.5t-111 -15.5
h-93zM1040 176v3q-55 0 -96 10.5t-73 26t-60 31.5t-57 26.5t-65 10.5q-37 0 -54 -13.5t-27 -30.5q-4 -8 -9 -12.5t-17 -4.5h-12q-21 0 -21 20q0 13 7.5 30t24.5 33.5t44.5 27t67.5 10.5t73 -10.5t63 -26t60.5 -31.5t65.5 -26.5t79 -10.5h52q14 0 18 -5.5t4 -19.5v-16
q0 -10 -6 -16t-17 -6h-45zM1161 0q-49 0 -91.5 13.5t-68.5 49.5t-27 103l38 29q0 -47 12 -73.5t33 -38.5t49 -15t60 -3h46q9 0 12 -6.5t3 -13.5v-20q0 -14 -8 -19.5t-22 -5.5h-36z" />
    <glyph glyph-name="uniFD21" unicode="&#xfd21;" horiz-adv-x="1570" arabic-form="final" 
d="M1565 0q-76 0 -125.5 9.5t-91.5 27.5l63 47q22 -7 44 -11t51.5 -6t73.5 -2q15 0 15 -15v-20q0 -30 -30 -30zM999 0q-64 0 -103.5 16t-64.5 56.5t-47 113.5q-19 67 -41.5 101t-50.5 46t-64 12q-47 0 -83.5 -15t-56.5 -40.5t-20 -55.5q0 -17 10 -31t37 -25t78 -22
q44 -9 70.5 -26.5t39 -44t12.5 -63.5q0 -41 -23.5 -73t-63 -54.5t-88.5 -34.5t-99 -12h-83q-88 0 -155 30.5t-104.5 84t-37.5 121.5q0 22 3 45.5t10.5 48t20.5 47.5q10 19 15.5 21.5t17.5 -3.5l22 -11q5 -2 8 -6t-4 -16q-16 -27 -23.5 -58t-7.5 -64q0 -49 29 -89t81.5 -63
t124.5 -23h84q58 0 106.5 12.5t77.5 36t29 57.5t-20.5 51t-82.5 31q-69 16 -106.5 46t-37.5 82q0 38 19 69.5t51.5 54.5t72 36t80.5 13q50 0 87.5 -16.5t66.5 -59t52 -120.5q15 -48 27 -76t27.5 -42t41 -18.5t66.5 -4.5h194q103 0 160 32t57 93q0 47 -33.5 81t-98.5 34
q-61 0 -115 -33.5t-96.5 -91t-71.5 -131.5l-54 10q39 106 94.5 174t121.5 101t136 33q57 0 96.5 -23t60 -61t20.5 -83q0 -75 -37 -118.5t-103 -62.5t-152 -19h-179z" />
    <glyph glyph-name="uniFD22" unicode="&#xfd22;" horiz-adv-x="1570" arabic-form="final" 
d="M343 -306q-4 -4 -10 -3.5t-11 4.5l-32 32q-4 4 -4 10.5t4 10.5l32 32q5 5 10.5 5t10.5 -5l32 -32q5 -4 5.5 -10.5t-4.5 -11.5zM480 -306q-4 -4 -10 -3.5t-11 4.5l-33 32q-4 4 -4 10.5t4 10.5l33 32q5 5 10.5 5t9.5 -5l32 -32q5 -4 5.5 -10.5t-4.5 -11.5zM999 0
q-64 0 -103.5 16t-64.5 56.5t-47 113.5q-19 67 -41.5 101t-50.5 46t-64 12q-47 0 -83.5 -15t-56.5 -40.5t-20 -55.5q0 -17 10 -31t37 -25t78 -22q44 -9 70.5 -26.5t39 -44t12.5 -63.5q0 -41 -23.5 -73t-63 -54.5t-88.5 -34.5t-99 -12h-83q-88 0 -155 30.5t-104.5 84
t-37.5 121.5q0 22 3 45.5t10.5 48t20.5 47.5q10 19 15.5 21.5t17.5 -3.5l22 -11q5 -2 8 -6t-4 -16q-16 -27 -23.5 -58t-7.5 -64q0 -49 29 -89t81.5 -63t124.5 -23h84q58 0 106.5 12.5t77.5 36t29 57.5t-20.5 51t-82.5 31q-69 16 -106.5 46t-37.5 82q0 38 19 69.5t51.5 54.5
t72 36t80.5 13q50 0 87.5 -16.5t66.5 -59t52 -120.5q15 -48 27 -76t27.5 -42t41 -18.5t66.5 -4.5h194q103 0 160 32t57 93q0 47 -33.5 81t-98.5 34q-61 0 -115 -33.5t-96.5 -91t-71.5 -131.5l-54 10q39 106 94.5 174t121.5 101t136 33q57 0 96.5 -23t60 -61t20.5 -83
q0 -75 -37 -118.5t-103 -62.5t-152 -19h-179zM1565 0q-76 0 -125.5 9.5t-91.5 27.5l63 47q22 -7 44 -11t51.5 -6t73.5 -2q15 0 15 -15v-20q0 -30 -30 -30z" />
    <glyph glyph-name="uniFD23" unicode="&#xfd23;" horiz-adv-x="1570" arabic-form="final" 
d="M1265 461q-4 -4 -10 -3.5t-11 4.5l-32 32q-4 5 -4 11t4 10l32 32q5 5 10.5 5t9.5 -5l32 -32q12 -11 1 -22zM999 0q-64 0 -103.5 16t-64.5 56.5t-47 113.5q-19 67 -41.5 101t-50.5 46t-64 12q-47 0 -83.5 -15t-56.5 -40.5t-20 -55.5q0 -17 10 -31t37 -25t78 -22
q44 -9 70.5 -26.5t39 -44t12.5 -63.5q0 -41 -23.5 -73t-63 -54.5t-88.5 -34.5t-99 -12h-83q-88 0 -155 30.5t-104.5 84t-37.5 121.5q0 22 3 45.5t10.5 48t20.5 47.5q10 19 15.5 21.5t17.5 -3.5l22 -11q5 -2 8 -6t-4 -16q-16 -27 -23.5 -58t-7.5 -64q0 -49 29 -89t81.5 -63
t124.5 -23h84q58 0 106.5 12.5t77.5 36t29 57.5t-20.5 51t-82.5 31q-69 16 -106.5 46t-37.5 82q0 38 19 69.5t51.5 54.5t72 36t80.5 13q50 0 87.5 -16.5t66.5 -59t52 -120.5q15 -48 27 -76t27.5 -42t41 -18.5t66.5 -4.5h194q103 0 160 32t57 93q0 47 -33.5 81t-98.5 34
q-61 0 -115 -33.5t-96.5 -91t-71.5 -131.5l-54 10q39 106 94.5 174t121.5 101t136 33q57 0 96.5 -23t60 -61t20.5 -83q0 -75 -37 -118.5t-103 -62.5t-152 -19h-179zM1565 0q-76 0 -125.5 9.5t-91.5 27.5l63 47q22 -7 44 -11t51.5 -6t73.5 -2q15 0 15 -15v-20q0 -30 -30 -30z
" />
    <glyph glyph-name="uniFD24" unicode="&#xfd24;" horiz-adv-x="1570" arabic-form="final" 
d="M343 -306q-4 -4 -10 -3.5t-11 4.5l-32 32q-4 4 -4 10.5t4 10.5l32 32q5 5 10.5 5t10.5 -5l32 -32q5 -4 5.5 -10.5t-4.5 -11.5zM480 -306q-4 -4 -10 -3.5t-11 4.5l-33 32q-4 4 -4 10.5t4 10.5l33 32q5 5 10.5 5t9.5 -5l32 -32q5 -4 5.5 -10.5t-4.5 -11.5zM1265 461
q-4 -4 -10 -3.5t-11 4.5l-32 32q-4 5 -4 11t4 10l32 32q5 5 10.5 5t9.5 -5l32 -32q12 -11 1 -22zM999 0q-64 0 -103.5 16t-64.5 56.5t-47 113.5q-19 67 -41.5 101t-50.5 46t-64 12q-47 0 -83.5 -15t-56.5 -40.5t-20 -55.5q0 -17 10 -31t37 -25t78 -22q44 -9 70.5 -26.5
t39 -44t12.5 -63.5q0 -41 -23.5 -73t-63 -54.5t-88.5 -34.5t-99 -12h-83q-88 0 -155 30.5t-104.5 84t-37.5 121.5q0 22 3 45.5t10.5 48t20.5 47.5q10 19 15.5 21.5t17.5 -3.5l22 -11q5 -2 8 -6t-4 -16q-16 -27 -23.5 -58t-7.5 -64q0 -49 29 -89t81.5 -63t124.5 -23h84
q58 0 106.5 12.5t77.5 36t29 57.5t-20.5 51t-82.5 31q-69 16 -106.5 46t-37.5 82q0 38 19 69.5t51.5 54.5t72 36t80.5 13q50 0 87.5 -16.5t66.5 -59t52 -120.5q15 -48 27 -76t27.5 -42t41 -18.5t66.5 -4.5h194q103 0 160 32t57 93q0 47 -33.5 81t-98.5 34q-61 0 -115 -33.5
t-96.5 -91t-71.5 -131.5l-54 10q39 106 94.5 174t121.5 101t136 33q57 0 96.5 -23t60 -61t20.5 -83q0 -75 -37 -118.5t-103 -62.5t-152 -19h-179zM1565 0q-76 0 -125.5 9.5t-91.5 27.5l63 47q22 -7 44 -11t51.5 -6t73.5 -2q15 0 15 -15v-20q0 -30 -30 -30z" />
    <glyph glyph-name="uniFD29" unicode="&#xfd29;" horiz-adv-x="1221" arabic-form="final" 
d="M780 523q-4 -4 -9 -3.5t-10 4.5l-30 30q-9 10 0 19l30 30q9 9 18 0l30 -30q11 -10 1 -20zM708 397q-4 -4 -10 -4t-11 5l-31 32q-4 5 -4 10.5t4 10.5l31 32q10 11 21 0l32 -32q5 -4 5.5 -10.5t-4.5 -11.5zM855 397q-4 -5 -10 -4t-11 5l-33 32q-4 4 -4 10.5t4 10.5l33 32
q10 10 20 0l32 -32q5 -4 5 -10.5t-5 -11.5zM622 -5q-44 0 -80 16.5t-57 56.5t-21 108v79q0 10 5 15t15 5h20q20 0 20 -20v-79q0 -46 13.5 -71t38.5 -34.5t57 -9.5q65 0 87.5 29t22.5 80v82q0 10 5 16.5t15 6.5h19q10 0 15 -6.5t5 -16.5v-82q0 -61 27.5 -85.5t82.5 -24.5
q64 0 86.5 28t22.5 82v82q0 10 5 16.5t15 6.5h20q10 0 15 -6.5t5 -16.5v-82q0 -58 29 -81.5t100 -23.5h21q15 0 15 -15v-20q0 -30 -30 -30q-64 0 -105.5 15.5t-64.5 48.5q-13 -35 -50.5 -52t-85.5 -17q-52 0 -88 17t-54 52q-11 -29 -34.5 -44t-53 -20t-58.5 -5zM-30 -235
q-10 0 -15 5.5t-5 16.5v23q0 10 5.5 15t16.5 5h45q70 0 112 30t60.5 83t18.5 122q0 52 -9.5 91t-23.5 87q-4 16 -2.5 25t14.5 13l21 6q10 3 15.5 -2t12.5 -27q10 -29 17 -65.5t11.5 -73t4.5 -65.5q0 -79 -25 -145t-78.5 -105t-139.5 -39h-56zM244 114v65h240v-65h-240z" />
    <glyph glyph-name="uniFD2A" unicode="&#xfd2a;" horiz-adv-x="1221" arabic-form="final" 
d="M622 -5q-44 0 -80 16.5t-57 56.5t-21 108v79q0 10 5 15t15 5h20q20 0 20 -20v-79q0 -46 13.5 -71t38.5 -34.5t57 -9.5q65 0 87.5 29t22.5 80v82q0 10 5 16.5t15 6.5h19q10 0 15 -6.5t5 -16.5v-82q0 -61 27.5 -85.5t82.5 -24.5q64 0 86.5 28t22.5 82v82q0 10 5 16.5
t15 6.5h20q10 0 15 -6.5t5 -16.5v-82q0 -58 29 -81.5t100 -23.5h21q15 0 15 -15v-20q0 -30 -30 -30q-64 0 -105.5 15.5t-64.5 48.5q-13 -35 -50.5 -52t-85.5 -17q-52 0 -88 17t-54 52q-11 -29 -34.5 -44t-53 -20t-58.5 -5zM-30 -235q-10 0 -15 5.5t-5 16.5v23q0 10 5.5 15
t16.5 5h45q70 0 112 30t60.5 83t18.5 122q0 52 -9.5 91t-23.5 87q-4 16 -2.5 25t14.5 13l21 6q10 3 15.5 -2t12.5 -27q10 -29 17 -65.5t11.5 -73t4.5 -65.5q0 -79 -25 -145t-78.5 -105t-139.5 -39h-56zM244 114v65h240v-65h-240z" />
    <glyph glyph-name="uniFD2B" unicode="&#xfd2b;" horiz-adv-x="1206" arabic-form="final" 
d="M615 0q-43 0 -77.5 17t-54 57t-19.5 108v73q0 20 20 20h20q20 0 20 -20v-73q0 -46 9.5 -71.5t39 -35.5t89.5 -10h167q110 2 163.5 33t53.5 92q0 47 -33.5 81t-98.5 34q-61 0 -115 -33.5t-96.5 -91t-71.5 -131.5l-54 10q39 106 94.5 174t121.5 101t136 33q57 0 96.5 -23
t60 -61t20.5 -83q0 -75 -37 -118.5t-103 -62.5t-152 -19h-199zM-30 -235q-10 0 -15 5.5t-5 16.5v23q0 10 5.5 15t16.5 5h45q70 0 112 30t60.5 83t18.5 122q0 52 -9.5 91t-23.5 87q-4 16 -2.5 25t14.5 13l21 6q10 3 15.5 -2t12.5 -27q10 -29 17 -65.5t11.5 -73t4.5 -65.5
q0 -79 -25 -145t-78.5 -105t-139.5 -39h-56zM244 114v65h240v-65h-240zM1201 0q-57 0 -97.5 4.5t-70.5 13.5t-57 22l63 47q21 -8 42.5 -13t53 -7t81.5 -2q15 0 15 -15v-20q0 -30 -30 -30z" />
    <glyph glyph-name="uniFD2C" unicode="&#xfd2c;" horiz-adv-x="1206" arabic-form="final" 
d="M864 458q-4 -4 -10 -3.5t-11 4.5l-32 32q-4 5 -4 11t4 10l32 32q5 5 10.5 5t9.5 -5l32 -32q12 -11 1 -22zM615 0q-43 0 -77.5 17t-54 57t-19.5 108v73q0 20 20 20h20q20 0 20 -20v-73q0 -46 9.5 -71.5t39 -35.5t89.5 -10h167q110 2 163.5 33t53.5 92q0 47 -33.5 81
t-98.5 34q-61 0 -115 -33.5t-96.5 -91t-71.5 -131.5l-54 10q39 106 94.5 174t121.5 101t136 33q57 0 96.5 -23t60 -61t20.5 -83q0 -75 -37 -118.5t-103 -62.5t-152 -19h-199zM-30 -235q-10 0 -15 5.5t-5 16.5v23q0 10 5.5 15t16.5 5h45q70 0 112 30t60.5 83t18.5 122
q0 52 -9.5 91t-23.5 87q-4 16 -2.5 25t14.5 13l21 6q10 3 15.5 -2t12.5 -27q10 -29 17 -65.5t11.5 -73t4.5 -65.5q0 -79 -25 -145t-78.5 -105t-139.5 -39h-56zM244 114v65h240v-65h-240zM1201 0q-57 0 -97.5 4.5t-70.5 13.5t-57 22l63 47q21 -8 42.5 -13t53 -7t81.5 -2
q15 0 15 -15v-20q0 -30 -30 -30z" />
    <glyph glyph-name=".notdef" horiz-adv-x="695" 
d="M102 -117q-22 0 -22 22v891q0 22 22 22h491q22 0 22 -22v-891q0 -22 -22 -22h-491zM181 -59h373v762zM141 -9l377 769h-377v-769z" />
    <glyph glyph-name=".null" 
 />
    <glyph glyph-name="nonmarkingreturn" horiz-adv-x="333" 
 />
    <glyph glyph-name="space" unicode=" " horiz-adv-x="258" 
 />
    <glyph glyph-name="exclam" unicode="!" horiz-adv-x="225" 
d="M104 143q-10 0 -16 6t-6 16v513q0 10 6 16t16 6h17q10 0 16 -6t6 -16v-513q0 -10 -6 -16t-16 -6h-17zM93 0q-10 0 -16 6t-6 16v38q0 10 6 16.5t16 6.5h38q10 0 16.5 -6.5t6.5 -16.5v-38q0 -10 -6.5 -16t-16.5 -6h-38z" />
    <glyph glyph-name="quotedbl" unicode="&#x22;" horiz-adv-x="340" 
d="M227 508q-8 0 -12 5.5t-5 13.5l-15 163q-1 9 4.5 14.5t14.5 5.5h45q9 0 14.5 -5.5t4.5 -14.5l-15 -163q-1 -8 -5 -13.5t-12 -5.5h-19zM94 508q-8 0 -12 5.5t-5 13.5l-15 163q-1 9 4.5 14.5t14.5 5.5h45q9 0 14.5 -5.5t4.5 -14.5l-15 -163q-1 -8 -5 -13.5t-12 -5.5h-19z
" />
    <glyph glyph-name="numbersign" unicode="#" horiz-adv-x="701" 
d="M185 39q-9 0 -15 6t-5 15l20 131h-111q-10 0 -16 6t-6 16v14q0 10 6 16t16 6h119l29 196h-122q-10 0 -16 6t-6 16v14q0 10 6 16t16 6h131l20 131q2 8 7 14.5t15 6.5h18q9 0 15 -6t5 -15l-20 -131h167l20 131q2 8 7 14.5t15 6.5h18q9 0 15 -6t5 -15l-20 -131h109
q10 0 16 -6t6 -16v-14q0 -10 -6 -16t-16 -6h-117l-29 -196h120q10 0 16 -6t6 -16v-14q0 -10 -6 -16t-16 -6h-129l-19 -131q-3 -21 -23 -21h-18q-9 0 -15 6t-5 15l20 131h-167l-19 -131q-3 -21 -23 -21h-18zM254 249h166l29 196h-166z" />
    <glyph glyph-name="dollar" unicode="$" horiz-adv-x="596" 
d="M289 -100q-10 0 -16 6t-6 16v70q-71 5 -120 31.5t-75 65t-28 81.5q0 8 6 14t15 6h20q10 0 15.5 -6t6.5 -14q4 -28 25 -55.5t62 -46t106 -18.5q98 0 143 35.5t45 95.5q0 40 -23.5 64.5t-71.5 44t-123 43.5q-71 23 -117 47.5t-67.5 59.5t-21.5 90q0 71 52.5 121.5
t150.5 57.5v69q0 10 6 16t16 6h19q10 0 16 -6t6 -16v-70q67 -6 111 -34t66.5 -65.5t23.5 -73.5q0 -7 -5 -13.5t-16 -6.5h-20q-5 0 -12.5 4t-9.5 16q-6 50 -52.5 82.5t-120.5 32.5t-121 -29t-47 -91q0 -40 21 -65.5t66 -45t116 -42.5q75 -24 124 -48t73 -58.5t24 -89.5
q0 -56 -26.5 -97t-76 -64.5t-118.5 -28.5v-69q0 -10 -6 -16t-16 -6h-19z" />
    <glyph glyph-name="percent" unicode="%" horiz-adv-x="741" 
d="M108 0q-20 0 -20 20q0 6 4 11l493 650q7 9 13.5 14t19.5 5h17q20 0 20 -20q0 -6 -4 -11l-493 -650q-7 -9 -13 -14t-20 -5h-17zM547 -6q-65 0 -101 37.5t-39 97.5q-1 26 -1 43.5t1 45.5q3 60 37 98t103 38t103 -38t37 -98q2 -28 2 -45.5t-2 -43.5q-3 -60 -39 -97.5
t-101 -37.5zM547 50q30 0 47.5 12.5t25.5 31.5t9 38q2 28 2 42.5t-2 40.5q-1 30 -19.5 56.5t-62.5 26.5t-62 -26.5t-20 -56.5q-1 -26 -1 -40.5t1 -42.5q2 -19 9.5 -38t25 -31.5t47.5 -12.5zM194 350q-65 0 -101 35t-39 95q-1 26 -1 43.5t1 45.5q3 60 37 98t103 38t103 -38
t37 -98q2 -28 2 -45.5t-2 -43.5q-3 -60 -39 -95t-101 -35zM194 401q30 0 47.5 12.5t25.5 31.5t9 38q2 28 2 42.5t-2 40.5q-1 30 -19.5 56.5t-62.5 26.5t-62 -26.5t-20 -56.5q-1 -26 -1 -40.5t1 -42.5q2 -19 9.5 -38t25 -31.5t47.5 -12.5z" />
    <glyph glyph-name="ampersand" unicode="&#x26;" horiz-adv-x="674" 
d="M281 -10q-64 0 -114 25t-78 69t-28 100q0 47 20.5 81.5t53.5 61t70 48.5q-51 54 -72 92.5t-21 82.5t22.5 80t62 58t89.5 22q51 0 90 -21t61.5 -57t22.5 -82t-22.5 -79.5t-58.5 -59t-76 -48.5l191 -187q20 34 34.5 75t20.5 93q2 22 22 22h19q10 0 16 -6t6 -16
q-1 -23 -5 -48t-12.5 -52.5t-21.5 -55.5t-33 -57l98 -96q9 -9 9 -16q0 -9 -5 -14t-15 -5h-22q-10 0 -16.5 3t-11.5 7l-74 74q-38 -40 -93 -67t-129 -27zM281 50q45 0 91 19.5t85 59.5l-210 203q-50 -28 -86.5 -62t-36.5 -86q0 -43 22 -73t58 -45.5t77 -15.5zM260 407
q36 20 67.5 40.5t50.5 45.5t19 57q0 46 -32 73t-79 27q-44 0 -77.5 -26.5t-33.5 -73.5q0 -20 7 -39.5t25.5 -43.5t52.5 -60z" />
    <glyph glyph-name="quotesingle" unicode="'" horiz-adv-x="207" 
d="M94 508q-8 0 -12 5.5t-5 13.5l-15 163q-1 9 4.5 14.5t14.5 5.5h45q9 0 14.5 -5.5t4.5 -14.5l-15 -163q-1 -8 -5 -13.5t-12 -5.5h-19z" />
    <glyph glyph-name="parenleft" unicode="(" horiz-adv-x="319" 
d="M272 -159q-63 0 -104 28t-63.5 85t-31.5 145.5t-9 209.5t9 209.5t31.5 145.5t63.5 84.5t104 27.5q9 0 15.5 -6.5t6.5 -15.5v-14q0 -9 -6 -15.5t-13 -6.5q-42 0 -71 -19.5t-47 -66t-26 -125.5t-8 -198t8 -198t26 -125.5t47 -66.5t71 -20q7 0 13 -6.5t6 -15.5v-14
q0 -9 -6.5 -15.5t-15.5 -6.5z" />
    <glyph glyph-name="parenright" unicode=")" horiz-adv-x="319" 
d="M47 -159q-9 0 -15.5 6.5t-6.5 15.5v14q0 9 6 15.5t13 6.5q42 0 71 20t47 66.5t26 125.5t8 198t-8 198t-26 125.5t-47 66t-71 19.5q-7 0 -13 6.5t-6 15.5v14q0 9 6.5 15.5t15.5 6.5q63 0 104 -27.5t63.5 -84.5t31.5 -145.5t9 -209.5t-9 -209.5t-31.5 -145.5t-63.5 -85
t-104 -28z" />
    <glyph glyph-name="asterisk" unicode="*" horiz-adv-x="446" 
d="M142 423l-32 24q-7 5 -8 14.5t3 15.5q0 1 6 7l76 72l-104 13q-4 1 -5.5 1.5t-2.5 0.5q-7 2 -11.5 10.5t-2.5 17.5l13 38q2 8 11 12t16 2q1 0 8 -4l92 -50l-19 103q-1 4 -1 5.5v2.5q0 8 6.5 15t15.5 7h40q9 0 15.5 -7t6.5 -15v-2.5t-1 -5.5l-20 -104l93 51q7 4 8 4
q8 2 16.5 -2t10.5 -12l13 -38q2 -9 -2 -17.5t-12 -10.5q-1 0 -2.5 -0.5t-5.5 -1.5l-105 -14l77 -71q6 -6 6 -7q5 -6 4 -15.5t-9 -14.5l-32 -24q-8 -4 -17 -3t-14 8q0 1 -1 2t-3 5l-46 96l-46 -96q-1 -4 -2.5 -5t-1.5 -2q-4 -7 -13.5 -8t-17.5 3z" />
    <glyph glyph-name="plus" unicode="+" horiz-adv-x="628" 
d="M306 33q-10 0 -16 6t-6 16v219h-217q-10 0 -16 6t-6 16v14q0 10 6 16t16 6h217v213q0 10 6 16t16 6h15q10 0 16 -6t6 -16v-213h218q10 0 16 -6t6 -16v-14q0 -10 -6 -16t-16 -6h-218v-219q0 -10 -6 -16t-16 -6h-15z" />
    <glyph glyph-name="comma" unicode="," horiz-adv-x="237" 
d="M73 -75q-8 0 -11.5 6t-2.5 15l19 120q2 12 7.5 19.5t17.5 7.5h45q7 0 11 -5t4 -11q0 -9 -4 -18l-43 -113q-4 -10 -9.5 -15.5t-16.5 -5.5h-17z" />
    <glyph glyph-name="hyphen" unicode="-" horiz-adv-x="487" 
d="M96 271q-10 0 -16 6t-6 16v14q0 10 6 16t16 6h295q10 0 16 -6t6 -16v-14q0 -10 -6 -16t-16 -6h-295z" />
    <glyph glyph-name="period" unicode="." horiz-adv-x="238" 
d="M95 0q-10 0 -16 6t-6 16v48q0 10 6 16.5t16 6.5h48q10 0 16.5 -6.5t6.5 -16.5v-48q0 -10 -6.5 -16t-16.5 -6h-48z" />
    <glyph glyph-name="slash" unicode="/" horiz-adv-x="459" 
d="M47 -84q-8 0 -14 6t-6 14q0 5 3 12l344 823q2 4 7 9.5t15 5.5h17q8 0 14 -6t6 -14q0 -4 -3 -12l-344 -823q-1 -4 -6.5 -9.5t-15.5 -5.5h-17z" />
    <glyph glyph-name="zero" unicode="0" horiz-adv-x="616" 
d="M308 -10q-68 0 -113.5 22t-73 60.5t-39.5 88.5t-14 105q0 27 -0.5 55t0 56.5t0.5 56.5q1 55 13.5 105t40 88.5t73 60.5t113.5 22t113.5 -22t73 -60.5t40 -88.5t13.5 -105q1 -28 1 -56.5v-56.5t-1 -55q-1 -55 -13.5 -105t-40 -88.5t-73 -60.5t-113.5 -22zM308 50
q89 0 132 59t45 162q1 29 1 54.5v51t-1 52.5q-2 101 -45 161t-132 60q-88 0 -131.5 -60t-45.5 -161q0 -27 -0.5 -52.5t0 -51t0.5 -54.5q2 -103 45.5 -162t131.5 -59z" />
    <glyph glyph-name="one" unicode="1" horiz-adv-x="398" 
d="M276 0q-10 0 -16 6t-6 16v596l-179 -138q-8 -6 -16.5 -5t-14.5 9l-11 14q-6 8 -5 16.5t9 14.5l213 164q7 5 13 6t13 1h19q10 0 16 -6t6 -16v-656q0 -10 -6 -16t-16 -6h-19z" />
    <glyph glyph-name="two" unicode="2" horiz-adv-x="560" 
d="M74 0q-10 0 -16 6t-6 16v15q0 10 5.5 19.5t19.5 22.5l259 259q38 35 58 61t27.5 51.5t7.5 56.5q0 67 -38.5 105t-109.5 38q-45 0 -78 -18t-52 -50.5t-25 -75.5q-1 -12 -9 -17.5t-14 -5.5h-20q-10 0 -15.5 5.5t-5.5 13.5q1 34 14 70.5t39.5 67.5t67.5 50.5t98 19.5
q76 0 122.5 -29t67.5 -75t21 -99q0 -41 -12 -75.5t-36 -67t-61 -66.5l-234 -238h335q11 0 17 -6t6 -17v-15q0 -10 -6 -16t-17 -6h-410z" />
    <glyph glyph-name="three" unicode="3" horiz-adv-x="576" 
d="M286 -10q-56 0 -100 14.5t-74.5 38.5t-47 54.5t-17.5 63.5q0 9 6 14t15 5h14q8 0 15.5 -4t11.5 -19q11 -43 39.5 -66.5t65 -32t72.5 -8.5q77 0 126.5 37t49.5 111t-44.5 106t-121.5 32h-88q-10 0 -16 6t-6 16v15q0 8 2.5 13.5t6.5 10.5l206 243h-302q-10 0 -16 6t-6 16
v15q0 11 6 17t16 6h373q11 0 17 -6t6 -17v-15q0 -6 -2.5 -10.5t-5.5 -8.5l-211 -247h20q69 0 120.5 -21.5t80 -65.5t28.5 -111q0 -66 -31 -112.5t-85 -71t-123 -24.5z" />
    <glyph glyph-name="four" unicode="4" horiz-adv-x="595" 
d="M406 0q-10 0 -16 6t-6 16v158h-330q-10 0 -16 6t-6 16v16q0 2 2 11t9 19l304 435q12 17 37 17h41q10 0 16 -6t6 -16v-438h91q10 0 16 -6t6 -16v-16q0 -10 -6 -16t-16 -6h-91v-158q0 -10 -6 -16t-16 -6h-19zM111 240h273v389z" />
    <glyph glyph-name="five" unicode="5" horiz-adv-x="572" 
d="M280 -10q-73 0 -123.5 27t-77.5 69.5t-29 88.5q-1 9 5 14t15 5h19q8 0 14.5 -4t10.5 -19q11 -43 36.5 -70t59.5 -39t70 -12q49 0 89.5 20t64.5 59t24 95q0 52 -24 88.5t-64.5 56t-89.5 19.5q-37 0 -61 -9t-40 -21t-29 -21t-29 -9h-18q-9 0 -16 6.5t-6 15.5l30 327
q1 11 6.5 17t15.5 6h326q10 0 16 -6t6 -16v-16q0 -10 -6 -16t-16 -6h-287l-21 -226q11 7 42 20.5t87 13.5q50 0 93.5 -14.5t77 -43t52 -70t18.5 -96.5q0 -78 -32.5 -130t-87 -78t-121.5 -26z" />
    <glyph glyph-name="six" unicode="6" horiz-adv-x="582" 
d="M298 -10q-80 0 -134 34t-81.5 88t-27.5 114q0 29 6.5 55.5t16.5 49.5t20.5 41.5t19.5 30.5l197 277q5 5 11.5 12.5t19.5 7.5h19q9 0 14.5 -6.5t5.5 -15.5q0 -4 -1.5 -7.5t-3.5 -5.5l-150 -212q14 4 33 6t35 2q60 0 105.5 -19.5t76 -52.5t46 -75.5t15.5 -87.5
q0 -60 -27.5 -114t-81.5 -88t-134 -34zM298 50q47 0 88 20t66.5 59.5t25.5 96.5t-25.5 96t-66.5 59t-88 20t-88 -20t-66.5 -59t-25.5 -96t25.5 -96.5t66.5 -59.5t88 -20z" />
    <glyph glyph-name="seven" unicode="7" horiz-adv-x="487" 
d="M153 0q-9 0 -14.5 6.5t-5.5 15.5q0 3 2 9l257 609h-341q-10 0 -16 6t-6 16v15q0 11 6 17t16 6h386q11 0 17 -6t6 -17v-15q0 -12 -1.5 -19.5t-5.5 -17.5l-253 -600q-4 -8 -9.5 -16.5t-16.5 -8.5h-21z" />
    <glyph glyph-name="eight" unicode="8" horiz-adv-x="618" 
d="M309 -10q-51 0 -96.5 13.5t-79.5 40t-53.5 65t-19.5 88.5q0 64 31 108.5t82 68.5q-40 23 -64 61t-24 91q0 61 30 101.5t81 61.5t113 21t113 -21t81 -61.5t30 -101.5q0 -53 -24 -91t-64 -61q51 -24 82 -68.5t31 -108.5q0 -67 -33.5 -113t-90 -70t-125.5 -24zM309 50
q52 0 94 18t67 51t25 78q0 46 -25 78.5t-67 50t-94 17.5q-51 0 -93.5 -17.5t-67.5 -50t-25 -78.5q0 -45 25 -78t67.5 -51t93.5 -18zM309 403q43 1 79.5 16t59 42t22.5 65q0 39 -21.5 66.5t-58 42.5t-81.5 15q-44 0 -81 -15t-58.5 -42.5t-21.5 -66.5t21.5 -66.5t58.5 -42
t81 -14.5z" />
    <glyph glyph-name="nine" unicode="9" horiz-adv-x="572" 
d="M201 0q-9 0 -14.5 6.5t-5.5 15.5q0 5 2 8t3 5l158 222q-30 -8 -65 -8q-60 0 -104.5 20t-74 53.5t-44 74t-14.5 82.5t14.5 83t44 74.5t74 53.5t104.5 20t104.5 -20t74.5 -53.5t44.5 -74.5t14.5 -83q0 -39 -10 -71t-23.5 -56t-25.5 -41l-206 -291q-4 -5 -10.5 -12.5
t-20.5 -7.5h-20zM279 309q47 0 87 21t64 59t24 90q0 53 -24 91t-64 59t-87 21t-86.5 -21t-63.5 -59t-24 -91q0 -52 24 -90t63.5 -59t86.5 -21z" />
    <glyph glyph-name="colon" unicode=":" horiz-adv-x="241" 
d="M96 350q-10 0 -16 6t-6 16v48q0 10 6 16.5t16 6.5h48q10 0 16.5 -6.5t6.5 -16.5v-48q0 -10 -6.5 -16t-16.5 -6h-48zM96 0q-10 0 -16 6t-6 16v48q0 10 6 16.5t16 6.5h48q10 0 16.5 -6.5t6.5 -16.5v-48q0 -10 -6.5 -16t-16.5 -6h-48z" />
    <glyph glyph-name="semicolon" unicode=";" horiz-adv-x="259" 
d="M88 -75q-8 0 -11.5 6t-2.5 15l19 120q2 12 7.5 19.5t17.5 7.5h45q7 0 11 -5t4 -11q0 -9 -4 -18l-43 -113q-4 -10 -9.5 -15.5t-16.5 -5.5h-17zM108 350q-10 0 -16 6t-6 16v48q0 10 6 16.5t16 6.5h48q10 0 16.5 -6.5t6.5 -16.5v-48q0 -10 -6.5 -16t-16.5 -6h-48z" />
    <glyph glyph-name="less" unicode="&#x3c;" horiz-adv-x="481" 
d="M390 33q-7 0 -14.5 4.5l-12.5 7.5l-295 204q-16 11 -22.5 22t-6.5 24v12q0 14 6.5 24.5t22.5 21.5l295 204l12.5 7.5t14.5 4.5q8 0 14 -5t6 -15v-17q0 -10 -4.5 -16.5t-16.5 -14.5l-289 -200l289 -200q12 -8 16.5 -14.5t4.5 -16.5v-17q0 -10 -6 -15t-14 -5z" />
    <glyph glyph-name="equal" unicode="=" horiz-adv-x="571" 
d="M98 396q-10 0 -16 6t-6 16v14q0 10 6 16t16 6h375q10 0 16 -6t6 -16v-14q0 -10 -6 -16t-16 -6h-375zM98 146q-10 0 -16 6t-6 16v14q0 10 6 16t16 6h375q10 0 16 -6t6 -16v-14q0 -10 -6 -16t-16 -6h-375z" />
    <glyph glyph-name="greater" unicode="&#x3e;" horiz-adv-x="480" 
d="M91 34q-8 0 -14 5t-6 15v17q0 10 4.5 16.5t16.5 14.5l289 200l-289 200q-12 8 -16.5 14.5t-4.5 16.5v17q0 10 6 15t14 5q7 0 15 -4.5t12 -7.5l295 -204q16 -11 22.5 -21.5t6.5 -24.5v-12q0 -13 -6.5 -24t-22.5 -22l-295 -204q-4 -3 -12 -7.5t-15 -4.5z" />
    <glyph glyph-name="question" unicode="?" horiz-adv-x="503" 
d="M247 143q-10 0 -16 6t-6 16v24v24q0 46 17 81t42 63.5t51 54t45 52.5t23 58q5 42 -16 71t-57 44t-75 15q-58 0 -102 -31t-57 -108q-2 -13 -9 -17.5t-15 -4.5h-16q-9 0 -15 5.5t-6 14.5q1 42 17.5 78t46 63t69 42.5t87.5 15.5q55 0 95.5 -16t66.5 -42.5t38 -60t9 -68.5
q-3 -42 -22 -74.5t-45 -60t-51.5 -54t-42.5 -56t-17 -65.5v-24v-24q0 -10 -6 -16t-16 -6h-17zM235 0q-10 0 -16 6t-6 16v38q0 10 6 16.5t16 6.5h38q10 0 16.5 -6.5t6.5 -16.5v-38q0 -10 -6.5 -16t-16.5 -6h-38z" />
    <glyph glyph-name="at" unicode="@" horiz-adv-x="826" 
d="M403 -113q-100 0 -172.5 34.5t-114 101.5t-52.5 164q-1 14 -2 37.5t-1 49.5t1 48.5t2 35.5q8 71 34 127.5t69 95.5t102 59.5t134 20.5q86 0 150.5 -20t109 -58.5t68 -95t26.5 -129.5q2 -27 2 -54.5t-0.5 -49t-1.5 -29.5q-3 -48 -18 -80.5t-42.5 -49t-68.5 -16.5
q-33 0 -55 12t-34 26t-17 21q-8 -13 -22.5 -29.5t-39.5 -28t-63 -11.5q-74 0 -119 52.5t-45 151.5t45.5 152t118.5 53q42 0 66 -16t37 -33v19q0 10 6 16t16 6h17q10 0 16 -6t6 -16v-218q0 -47 19.5 -70t47.5 -23q30 0 44.5 17.5t19 40t4.5 36.5q1 12 2 47t-2 75
q-6 80 -37.5 136t-93.5 85t-162 29q-81 0 -140 -29.5t-93.5 -85t-44.5 -135.5q-2 -17 -2.5 -48t0 -62.5t2.5 -50.5q13 -118 84.5 -182.5t193.5 -64.5q76 0 120 13.5t67 30.5t35 26q4 3 9.5 7.5t14.5 4.5h26q9 0 15 -6t6 -15q0 -4 -1.5 -7.5t-3.5 -6.5q-26 -27 -63.5 -51
t-92 -39t-132.5 -15zM397 127q59 0 81 41t22 105t-22 105.5t-81 41.5q-57 0 -80 -41.5t-23 -105.5q0 -37 10 -70.5t32.5 -54.5t60.5 -21z" />
    <glyph glyph-name="A" unicode="A" horiz-adv-x="650" 
d="M44 0q-8 0 -14 6t-6 14q0 5 2 11l253 649q4 10 10.5 15t18.5 5h34q12 0 18.5 -5t10.5 -15l253 -649q2 -6 2 -11q0 -8 -6 -14t-14 -6h-20q-10 0 -15 5.5t-7 9.5l-62 160h-354l-62 -160q-1 -4 -6.5 -9.5t-15.5 -5.5h-20zM172 235h306l-153 394z" />
    <glyph glyph-name="B" unicode="B" horiz-adv-x="653" 
d="M116 0q-10 0 -16 6t-6 16v655q0 11 6 17t16 6h261q70 0 114.5 -25t65.5 -65.5t21 -88.5q0 -43 -13.5 -73.5t-34 -49.5t-40.5 -29q40 -20 71 -64t31 -107q0 -50 -23.5 -95.5t-70 -74t-114.5 -28.5h-268zM157 60h217q74 0 114.5 39t40.5 99q0 61 -40.5 99.5t-114.5 38.5
h-217v-276zM157 396h207q74 0 112.5 33t38.5 92t-38.5 89t-112.5 30h-207v-244z" />
    <glyph glyph-name="C" unicode="C" horiz-adv-x="651" 
d="M331 -10q-91 0 -148.5 35.5t-85.5 96.5t-31 139q-1 41 -1 88t1 90q3 78 31 139.5t85.5 96.5t148.5 35q71 0 121 -20t81.5 -52.5t47 -70t17.5 -73.5q1 -9 -5.5 -14.5t-15.5 -5.5h-20q-8 0 -14 4.5t-8 16.5q-19 89 -71.5 122t-132.5 33q-91 0 -144.5 -51.5t-57.5 -164.5
q-3 -82 0 -168q4 -113 57.5 -164.5t144.5 -51.5q80 0 132.5 33t71.5 122q2 12 8 16.5t14 4.5h20q9 0 15.5 -5.5t5.5 -14.5q-2 -36 -17.5 -73.5t-47 -70t-81.5 -52.5t-121 -20z" />
    <glyph glyph-name="D" unicode="D" horiz-adv-x="677" 
d="M116 0q-10 0 -16 6t-6 16v655q0 11 6 17t16 6h213q106 0 166 -31t85.5 -91.5t26.5 -147.5q1 -45 1 -79.5t-1 -79.5q-2 -92 -27 -152t-84 -89.5t-162 -29.5h-218zM157 60h172q80 0 126.5 21.5t67 69t21.5 125.5q1 30 1 52.5v44.5t-1 52q-2 110 -51 162.5t-169 52.5h-167
v-580z" />
    <glyph glyph-name="E" unicode="E" horiz-adv-x="592" 
d="M116 0q-10 0 -16 6t-6 16v655q0 11 6 17t16 6h390q11 0 17 -6t6 -17v-15q0 -10 -6 -16t-17 -6h-349v-255h327q11 0 17 -6t6 -17v-15q0 -10 -6 -16t-17 -6h-327v-265h357q11 0 17 -6t6 -17v-15q0 -10 -6 -16t-17 -6h-398z" />
    <glyph glyph-name="F" unicode="F" horiz-adv-x="570" 
d="M116 0q-10 0 -16 6t-6 16v655q0 11 6 17t16 6h386q11 0 17 -6t6 -17v-15q0 -10 -6 -16t-17 -6h-345v-269h325q11 0 17 -6t6 -17v-15q0 -10 -6 -16t-17 -6h-325v-289q0 -10 -6 -16t-17 -6h-18z" />
    <glyph glyph-name="G" unicode="G" horiz-adv-x="664" 
d="M334 -10q-86 0 -144.5 33.5t-89 93.5t-33.5 138q-1 45 -1 95t1 95q3 79 33.5 138.5t89.5 93t144 33.5q69 0 118 -20.5t80 -51t46 -61.5t16 -52q1 -9 -5 -14.5t-16 -5.5h-22q-9 0 -13 4.5t-8 15.5q-10 31 -33.5 59.5t-63 47t-99.5 18.5q-89 0 -144.5 -48.5t-59.5 -161.5
q-3 -90 0 -180q4 -112 59.5 -161t144.5 -49q59 0 106 22.5t74 69t27 118.5v51h-174q-10 0 -16 6.5t-6 16.5v14q0 11 6 17t16 6h214q11 0 17 -6t6 -17v-88q0 -80 -31.5 -141t-92 -95t-146.5 -34z" />
    <glyph glyph-name="H" unicode="H" horiz-adv-x="700" 
d="M116 0q-10 0 -16 6t-6 16v655q0 11 6 17t16 6h18q11 0 17 -6t6 -17v-292h386v292q0 11 6 17t16 6h18q11 0 17 -6t6 -17v-655q0 -10 -6 -16t-17 -6h-18q-10 0 -16 6t-6 16v303h-386v-303q0 -10 -6 -16t-17 -6h-18z" />
    <glyph glyph-name="I" unicode="I" horiz-adv-x="251" 
d="M116 0q-10 0 -16 6t-6 16v656q0 10 6 16t16 6h19q10 0 16 -6t6 -16v-656q0 -10 -6 -16t-16 -6h-19z" />
    <glyph glyph-name="J" unicode="J" horiz-adv-x="618" 
d="M288 -10q-49 0 -92 12t-76.5 37t-53 63.5t-21.5 91.5q0 9 5.5 15.5t15.5 6.5h20q10 0 15.5 -6t6.5 -15q4 -52 29.5 -84t65 -46.5t85.5 -14.5q88 0 133.5 57.5t45.5 148.5v384h-369q-10 0 -16 6t-6 16v16q0 10 6 16t16 6h409q11 0 17 -6t6 -17v-422q0 -78 -28 -138
t-81.5 -93.5t-132.5 -33.5z" />
    <glyph glyph-name="K" unicode="K" horiz-adv-x="575" 
d="M116 0q-10 0 -16 6t-6 16v655q0 11 6 17t16 6h18q11 0 17 -6t6 -17v-260l303 268q4 3 13 9t25 6h16q8 0 14 -6t6 -14t-5 -13l-339 -302l360 -331q6 -6 6 -14t-6 -14t-14 -6h-17q-16 0 -25 6t-13 9l-324 296v-289q0 -10 -6 -16t-17 -6h-18z" />
    <glyph glyph-name="L" unicode="L" horiz-adv-x="548" 
d="M116 0q-10 0 -16 6t-6 16v656q0 10 6 16t16 6h19q10 0 16 -6t6 -16v-618h345q11 0 17 -6t6 -17v-15q0 -10 -6 -16t-17 -6h-386z" />
    <glyph glyph-name="M" unicode="M" horiz-adv-x="780" 
d="M117 0q-10 0 -16.5 6t-6.5 16v655q0 11 6.5 17t16.5 6h25q10 0 15 -5t6 -8l227 -442l228 442q2 3 6.5 8t14.5 5h24q11 0 17 -6t6 -17v-655q0 -10 -6 -16t-17 -6h-18q-10 0 -16 6t-6 16v542l-191 -376q-4 -10 -11.5 -15t-19.5 -5h-22q-12 0 -19 5t-12 15l-191 376v-542
q0 -10 -6 -16t-16 -6h-18z" />
    <glyph glyph-name="N" unicode="N" horiz-adv-x="684" 
d="M116 0q-10 0 -16 6t-6 16v655q0 11 6 17t16 6h21q10 0 15 -5t6 -7l369 -564v553q0 11 6 17t16 6h18q11 0 17 -6t6 -17v-654q0 -10 -6 -16.5t-16 -6.5h-22q-10 0 -14.5 5t-6.5 7l-368 562v-552q0 -10 -6 -16t-17 -6h-18z" />
    <glyph glyph-name="O" unicode="O" horiz-adv-x="662" 
d="M331 -10q-83 0 -141 29.5t-89 91t-34 155.5q-1 45 -1 84t1 84q3 93 36 154.5t91.5 91.5t136.5 30t136.5 -30t92 -91.5t35.5 -154.5q2 -45 2 -84t-2 -84q-2 -94 -33.5 -155.5t-89.5 -91t-141 -29.5zM331 50q86 0 141.5 52t59.5 169q2 45 2 79t-2 79q-2 78 -28.5 127
t-71 71.5t-101.5 22.5q-56 0 -100.5 -22.5t-71 -71.5t-29.5 -127q-1 -45 -1 -79t1 -79q4 -117 60 -169t141 -52z" />
    <glyph glyph-name="P" unicode="P" horiz-adv-x="628" 
d="M116 0q-10 0 -16 6t-6 16v655q0 11 6 17t16 6h243q70 0 121.5 -23.5t80 -69.5t28.5 -114t-28.5 -114t-80 -69.5t-121.5 -23.5h-202v-264q0 -10 -6 -16t-17 -6h-18zM157 346h197q87 0 129.5 38t42.5 109t-42.5 109t-129.5 38h-197v-294z" />
    <glyph glyph-name="Q" unicode="Q" horiz-adv-x="662" 
d="M547 -65q-11 0 -19 8.5t-13 14.5l-44 61q-60 -29 -140 -29q-83 0 -141 29.5t-89 91t-34 155.5q-1 45 -1 84t1 84q3 93 36 154.5t91.5 91.5t136.5 30t136.5 -30t92 -91.5t35.5 -154.5q2 -45 2 -84t-2 -84q-5 -143 -73 -210l64 -90q1 -1 2 -3.5t1 -7.5q0 -8 -6 -14t-14 -6
h-22zM331 50q86 0 141.5 52t59.5 169q2 45 2 79t-2 79q-2 78 -28.5 127t-71 71.5t-101.5 22.5q-56 0 -100.5 -22.5t-71 -71.5t-29.5 -127q-1 -45 -1 -79t1 -79q4 -117 60 -169t141 -52z" />
    <glyph glyph-name="R" unicode="R" horiz-adv-x="640" 
d="M116 0q-10 0 -16 6t-6 16v655q0 11 6 17t16 6h233q105 0 167.5 -50t62.5 -152q0 -80 -40 -128t-111 -65l161 -274q3 -6 3 -11q0 -8 -6 -14t-14 -6h-12q-16 0 -24 8.5t-14 18.5l-159 269h-206v-274q0 -10 -6 -16t-17 -6h-18zM157 356h187q87 0 129.5 35.5t42.5 106.5
t-42.5 106.5t-129.5 35.5h-187v-284z" />
    <glyph glyph-name="S" unicode="S" horiz-adv-x="605" 
d="M304 -10q-81 0 -137.5 26t-86.5 67t-32 87q0 8 6 14t15 6h20q10 0 15.5 -6t6.5 -14q4 -28 25 -55.5t62 -46t106 -18.5q98 0 143 35.5t45 95.5q0 40 -23.5 64.5t-71.5 44t-123 43.5q-71 23 -117 47.5t-67.5 59.5t-21.5 90q0 51 27 91.5t78.5 64.5t125.5 24q59 0 103 -16
t73 -42.5t44 -57t16 -59.5q0 -7 -5 -13.5t-16 -6.5h-20q-5 0 -12.5 4t-9.5 16q-6 50 -52.5 82.5t-120.5 32.5t-121 -29t-47 -91q0 -40 21 -65.5t66 -45t116 -42.5q75 -24 124 -48t73 -58.5t24 -89.5q0 -61 -30.5 -103.5t-86.5 -65t-134 -22.5z" />
    <glyph glyph-name="T" unicode="T" horiz-adv-x="557" 
d="M269 0q-10 0 -16 6t-6 16v618h-198q-10 0 -16 6t-6 16v15q0 11 6 17t16 6h458q11 0 17 -6t6 -17v-15q0 -10 -6 -16t-17 -6h-197v-618q0 -10 -6 -16t-17 -6h-18z" />
    <glyph glyph-name="U" unicode="U" horiz-adv-x="691" 
d="M346 -10q-81 0 -138.5 30t-88.5 92t-31 159v406q0 11 6 17t16 6h18q11 0 17 -6t6 -17v-409q0 -112 52.5 -165t142.5 -53q89 0 141.5 53t52.5 165v409q0 11 6.5 17t16.5 6h18q10 0 16 -6t6 -17v-406q0 -97 -30.5 -159t-87.5 -92t-139 -30z" />
    <glyph glyph-name="V" unicode="V" horiz-adv-x="638" 
d="M305 0q-13 0 -21 6t-13 18l-232 645q-2 6 -2 11q0 8 6 14t14 6h21q10 0 15.5 -5.5t6.5 -9.5l219 -612l219 612q2 4 7 9.5t15 5.5h21q8 0 14 -6t6 -14q0 -5 -2 -11l-232 -645q-4 -12 -12 -18t-22 -6h-28z" />
    <glyph glyph-name="W" unicode="W" horiz-adv-x="788" 
d="M215 0q-12 0 -18.5 5.5t-9.5 18.5l-137 644q-1 4 -1.5 7.5t-0.5 4.5q0 8 6 14t14 6h21q19 0 22 -15l117 -570l124 407q3 9 10.5 16t20.5 7h22q14 0 21 -7t10 -16l124 -407l117 570q3 15 22 15h21q8 0 14 -6t6 -14q0 -1 -0.5 -4.5t-1.5 -7.5l-137 -644q-3 -13 -9.5 -18.5
t-18.5 -5.5h-15q-12 0 -19.5 6t-11.5 18l-133 422l-133 -422q-4 -12 -11.5 -18t-19.5 -6h-15z" />
    <glyph glyph-name="X" unicode="X" horiz-adv-x="609" 
d="M50 0q-8 0 -14 6t-6 14q0 4 1.5 7.5t2.5 5.5l233 323l-224 311q-4 6 -4 13q0 8 6 14t14 6h24q7 0 12.5 -3.5t10.5 -11.5l201 -280l197 280q5 8 10.5 11.5t12.5 3.5h22q8 0 14 -6t6 -14q0 -7 -4 -13l-221 -313l232 -321q2 -2 3 -5.5t1 -7.5q0 -8 -6 -14t-14 -6h-24
q-7 0 -12.5 4t-10.5 11l-209 289l-209 -289q-5 -7 -10.5 -11t-12.5 -4h-22z" />
    <glyph glyph-name="Y" unicode="Y" horiz-adv-x="632" 
d="M306 0q-10 0 -16 6t-6 16v245l-244 400q-1 3 -2.5 6t-1.5 7q0 8 6 14t14 6h20q7 0 13 -3.5t10 -11.5l217 -353l217 353q5 8 10.5 11.5t12.5 3.5h20q8 0 14 -6t6 -14q0 -4 -1 -7t-3 -6l-244 -400v-245q0 -10 -6 -16t-17 -6h-19z" />
    <glyph glyph-name="Z" unicode="Z" horiz-adv-x="579" 
d="M64 0q-10 0 -16 6.5t-6 16.5v20q0 15 6 24.5t9 13.5l394 559h-378q-10 0 -16 6t-6 16v15q0 11 6 17t16 6h431q11 0 17 -6t6 -17v-20q0 -13 -4 -21t-9 -15l-392 -561h392q11 0 17 -6t6 -17v-15q0 -10 -6 -16t-17 -6h-450z" />
    <glyph glyph-name="bracketleft" unicode="[" horiz-adv-x="301" 
d="M100 -159q-10 0 -16 6t-6 16v891q0 10 6 16t16 6h151q10 0 16 -6t6 -16v-14q0 -10 -6 -16t-16 -6h-112v-819h112q10 0 16 -6t6 -16v-14q0 -10 -6 -16t-16 -6h-151z" />
    <glyph glyph-name="backslash" unicode="\" horiz-adv-x="459" 
d="M395 -84q-10 0 -15 5.5t-7 9.5l-344 823q-3 8 -3 12q0 8 6 14t14 6h17q10 0 15.5 -5.5t6.5 -9.5l344 -823q3 -7 3 -12q0 -8 -6 -14t-14 -6h-17z" />
    <glyph glyph-name="bracketright" unicode="]" horiz-adv-x="301" 
d="M50 -159q-10 0 -16 6t-6 16v14q0 10 6 16t16 6h112v819h-112q-10 0 -16 6t-6 16v14q0 10 6 16t16 6h151q10 0 16 -6t6 -16v-891q0 -10 -6 -16t-16 -6h-151z" />
    <glyph glyph-name="asciicircum" unicode="^" horiz-adv-x="418" 
d="M87 575q-14 0 -14 11q0 8 12 20l87 85q11 11 18 12.5t14 1.5h10q8 0 15 -1.5t17 -12.5l87 -85q12 -12 12 -20q0 -11 -14 -11h-17q-6 0 -13.5 2t-11.5 5l-80 60l-80 -60q-4 -3 -11.5 -5t-13.5 -2h-17z" />
    <glyph glyph-name="underscore" unicode="_" horiz-adv-x="753" 
d="M89 -28q-10 0 -16 6t-6 16v14q0 10 6 16t16 6h575q10 0 16 -6t6 -16v-14q0 -10 -6 -16t-16 -6h-575z" />
    <glyph glyph-name="grave" unicode="`" horiz-adv-x="311" 
d="M215 595q-10 0 -16.5 1.5t-14.5 8.5l-109 89q-5 5 -5 12q0 19 19 19h41q15 0 22 -4t15 -14l69 -83q5 -5 5 -13q0 -16 -16 -16h-10z" />
    <glyph glyph-name="a" unicode="a" horiz-adv-x="536" 
d="M221 -10q-48 0 -88.5 20t-65.5 53.5t-25 75.5q0 68 55 109t143 53l158 22v35q0 53 -32.5 83.5t-103.5 30.5q-52 0 -84 -20.5t-44 -53.5q-5 -15 -19 -15h-16q-12 0 -17 6.5t-5 15.5q0 14 10.5 35t32.5 41.5t57 34.5t85 14q59 0 97.5 -16t60 -41.5t30.5 -56.5t9 -61v-333
q0 -10 -6 -16t-16 -6h-17q-10 0 -16 6t-6 16v47q-12 -18 -34 -36t-56.5 -30.5t-86.5 -12.5zM231 48q46 0 84 20t60.5 61.5t22.5 104.5v34l-129 -18q-82 -11 -124 -38t-42 -68q0 -33 19 -54t48.5 -31.5t60.5 -10.5z" />
    <glyph glyph-name="b" unicode="b" horiz-adv-x="580" 
d="M311 -10q-62 0 -102.5 22.5t-65.5 56.5v-47q0 -10 -6 -16t-16 -6h-17q-10 0 -16 6t-6 16v666q0 10 6 16t16 6h17q10 0 16 -6t6 -16v-237q25 33 65.5 56t102.5 23q59 0 99 -21t65 -56t37 -78t13 -87q1 -15 1 -28t-1 -28q-1 -44 -13 -87t-37 -78t-65 -56t-99 -21zM305 48
q59 0 93 26t49 68t17 90q1 28 0 56q-2 48 -17 90t-49 68t-93 26q-55 0 -90.5 -26t-53 -65t-18.5 -79q-1 -15 -1 -39t1 -39q2 -41 18.5 -81.5t51.5 -67.5t92 -27z" />
    <glyph glyph-name="c" unicode="c" horiz-adv-x="536" 
d="M278 -10q-70 0 -119 27.5t-74.5 79.5t-27.5 123q-1 15 -1 40t1 40q2 72 27.5 123.5t74.5 79t119 27.5q53 0 91.5 -14.5t63.5 -38t38 -51.5t14 -55q1 -10 -6 -16t-16 -6h-14q-10 0 -14.5 4.5t-9.5 16.5q-21 57 -57.5 79.5t-89.5 22.5q-68 0 -112.5 -41.5t-47.5 -135.5
q-2 -35 0 -70q3 -94 47.5 -135.5t112.5 -41.5q53 0 89.5 22.5t57.5 79.5q5 12 9.5 16.5t14.5 4.5h14q9 0 16 -6t6 -16q-1 -22 -9 -44t-24.5 -43t-40.5 -37t-57.5 -25.5t-75.5 -9.5z" />
    <glyph glyph-name="d" unicode="d" horiz-adv-x="580" 
d="M269 -10q-58 0 -98.5 21t-65.5 56t-36.5 78t-13.5 87q-1 15 -1 28t1 28q2 44 13.5 87t36.5 78t65.5 56t98.5 21q62 0 102.5 -23t65.5 -56v237q0 10 6 16t16 6h17q10 0 16 -6t6 -16v-666q0 -10 -6 -16t-16 -6h-17q-10 0 -16 6t-6 16v47q-25 -34 -65.5 -56.5t-102.5 -22.5z
M275 48q57 0 92 27t52 67.5t18 81.5q1 15 1 39t-1 39q-1 40 -18.5 79t-52.5 65t-91 26q-58 0 -92.5 -26t-49.5 -68t-17 -90q-1 -28 0 -56q2 -48 17 -90t49.5 -68t92.5 -26z" />
    <glyph glyph-name="e" unicode="e" horiz-adv-x="546" 
d="M274 -10q-97 0 -154 63.5t-65 166.5q-1 15 -1 40t1 40q5 68 32 120t74.5 81t112.5 29q70 0 119 -31t75.5 -89t26.5 -138v-15q0 -10 -6.5 -16t-16.5 -6h-356v-4v-6q2 -45 21 -85.5t54 -66t83 -25.5q43 0 71.5 13t45.5 28.5t22 23.5q9 13 14 15.5t16 2.5h16q9 0 15.5 -5.5
t5.5 -14.5q-1 -14 -15.5 -34.5t-41 -40.5t-64.5 -33t-85 -13zM116 291h318v4q0 50 -19 90t-55 63.5t-86 23.5t-85.5 -23.5t-54 -63.5t-18.5 -90v-4z" />
    <glyph glyph-name="f" unicode="f" horiz-adv-x="360" 
d="M152 0q-10 0 -16 6t-6 16v440h-89q-10 0 -16 6t-6 16v14q0 10 6 16t16 6h89v57q0 45 12.5 82t45 59t93.5 22h52q10 0 16 -6t6 -16v-14q0 -10 -6 -16t-16 -6h-52q-53 0 -71.5 -28.5t-18.5 -81.5v-52h132q10 0 16 -6t6 -16v-14q0 -10 -6 -16t-16 -6h-132v-440q0 -10 -6 -16
t-16 -6h-17z" />
    <glyph glyph-name="g" unicode="g" horiz-adv-x="581" 
d="M275 -220q-64 0 -104.5 17t-63 41.5t-31.5 49t-10 39.5q-1 10 6 16.5t16 6.5h14q8 0 14 -3.5t10 -17.5q6 -16 19.5 -37.5t43 -37.5t81.5 -16q55 0 92 14t56.5 49.5t19.5 98.5v69q-25 -34 -65.5 -56.5t-102.5 -22.5q-58 0 -98.5 21t-65.5 56t-37 78t-13 87q-1 28 0 56
q1 44 13 87t37 78t65.5 56t98.5 21q62 0 102.5 -23t65.5 -56v46q0 10 6 16.5t16 6.5h16q10 0 16.5 -6.5t6.5 -16.5v-487q0 -64 -19 -116t-67.5 -83t-137.5 -31zM276 48q57 0 92 27t51.5 67.5t18.5 81.5q1 15 1 36t-1 36q-2 41 -18.5 81.5t-51.5 67.5t-92 27q-58 0 -92.5 -26
t-49.5 -68t-17 -90q-1 -28 0 -56q2 -48 17 -90t49.5 -68t92.5 -26z" />
    <glyph glyph-name="h" unicode="h" horiz-adv-x="591" 
d="M104 0q-10 0 -16 6t-6 16v666q0 10 6 16t16 6h17q10 0 16 -6t6 -16v-237q27 35 65.5 57t102.5 22q68 0 113.5 -29.5t68 -80t22.5 -114.5v-284q0 -10 -6 -16t-16 -6h-17q-10 0 -16 6t-6 16v279q0 80 -39 125.5t-114 45.5q-71 0 -114.5 -45.5t-43.5 -125.5v-279
q0 -10 -6 -16t-16 -6h-17z" />
    <glyph glyph-name="i" unicode="i" horiz-adv-x="223" 
d="M103 0q-10 0 -16 6t-6 16v476q0 10 6 16t16 6h17q10 0 16 -6t6 -16v-476q0 -10 -6 -16t-16 -6h-17zM92 627q-10 0 -16 6t-6 16v38q0 10 6 16.5t16 6.5h38q10 0 16.5 -6.5t6.5 -16.5v-38q0 -10 -6.5 -16t-16.5 -6h-38z" />
    <glyph glyph-name="j" unicode="j" horiz-adv-x="233" 
d="M-4 -190q-10 0 -16 6t-6 16v14q0 10 6 16t16 6h4q41 0 60 15t24.5 40t5.5 55v520q0 10 6 16t16 6h17q10 0 16 -6t6 -16v-520q0 -47 -12.5 -85t-45 -60.5t-93.5 -22.5h-4zM101 627q-10 0 -16 6t-6 16v38q0 10 6 16.5t16 6.5h38q10 0 16.5 -6.5t6.5 -16.5v-38
q0 -10 -6.5 -16t-16.5 -6h-38z" />
    <glyph glyph-name="k" unicode="k" horiz-adv-x="487" 
d="M104 0q-10 0 -16 6t-6 16v666q0 10 6 16t16 6h17q10 0 16 -6t6 -16v-354l223 169q14 11 20.5 14t21.5 3h19q9 0 14.5 -5.5t5.5 -14.5q0 -4 -2.5 -9.5t-10.5 -10.5l-253 -192l278 -248q13 -12 13 -20q0 -9 -5.5 -14.5t-14.5 -5.5h-16q-15 0 -21.5 2.5t-20.5 14.5l-251 223
v-218q0 -10 -6 -16t-16 -6h-17z" />
    <glyph glyph-name="l" unicode="l" horiz-adv-x="225" 
d="M104 0q-10 0 -16 6t-6 16v666q0 10 6 16t16 6h17q10 0 16 -6t6 -16v-666q0 -10 -6 -16t-16 -6h-17z" />
    <glyph glyph-name="m" unicode="m" horiz-adv-x="878" 
d="M103 0q-10 0 -16 6t-6 16v476q0 10 6 16t16 6h17q10 0 16 -6t6 -16v-35q25 32 59.5 49.5t83.5 17.5q112 0 160 -94q23 43 67.5 68.5t102.5 25.5q53 0 95.5 -24.5t67 -72.5t24.5 -120v-291q0 -10 -6 -16t-16 -6h-17q-10 0 -16 6t-6 16v281q0 66 -19 102.5t-50 51.5t-67 15
q-30 0 -61 -15t-51.5 -51.5t-20.5 -102.5v-281q0 -10 -6 -16t-16 -6h-17q-10 0 -16 6t-6 16v281q0 66 -20 102.5t-51 51.5t-65 15q-30 0 -61 -15t-51.5 -51.5t-20.5 -101.5v-282q0 -10 -6 -16t-16 -6h-17z" />
    <glyph glyph-name="n" unicode="n" horiz-adv-x="590" 
d="M103 0q-10 0 -16 6t-6 16v476q0 10 6 16t16 6h17q10 0 16 -6t6 -16v-47q27 35 65.5 57t102.5 22q68 0 113.5 -29.5t68 -80t22.5 -114.5v-284q0 -10 -6 -16t-16 -6h-17q-10 0 -16 6t-6 16v279q0 80 -39 125.5t-114 45.5q-71 0 -114.5 -45.5t-43.5 -125.5v-279
q0 -10 -6 -16t-16 -6h-17z" />
    <glyph glyph-name="o" unicode="o" horiz-adv-x="558" 
d="M279 -10q-72 0 -120.5 30t-74 82t-27.5 116q-1 15 -1 42t1 42q2 65 27.5 116.5t74 81.5t120.5 30t120.5 -30t74 -81.5t27.5 -116.5q1 -15 1 -42t-1 -42q-2 -64 -27.5 -116t-74 -82t-120.5 -30zM279 48q70 0 114 45t47 130q1 15 1 37t-1 37q-3 86 -47 130.5t-114 44.5
t-114 -44.5t-47 -130.5q-1 -15 -1 -37t1 -37q3 -85 47 -130t114 -45z" />
    <glyph glyph-name="p" unicode="p" horiz-adv-x="581" 
d="M104 -190q-10 0 -16 6t-6 16v666q0 10 6 16t16 6h17q10 0 16 -6t6 -16v-47q25 34 65.5 56.5t102.5 22.5q59 0 99 -20.5t65 -54.5t37 -76t13 -86q1 -15 1 -33t-1 -33q-1 -44 -13 -86t-37 -76t-65 -54.5t-99 -20.5q-62 0 -102.5 23t-65.5 56v-237q0 -10 -6 -16t-16 -6h-17z
M305 48q59 0 93 26t49 68t17 90q1 28 0 56q-2 48 -17 90t-49 68t-93 26q-57 0 -92 -27t-51.5 -67.5t-18.5 -81.5q-1 -15 -1 -39t1 -39q1 -40 18.5 -79t53 -65t90.5 -26z" />
    <glyph glyph-name="q" unicode="q" horiz-adv-x="581" 
d="M460 -190q-10 0 -16 6t-6 16v237q-25 -33 -65.5 -56t-102.5 -23q-58 0 -98.5 20.5t-65.5 54.5t-36.5 76t-13.5 86q-1 15 -1 33t1 33q2 44 13.5 86t36.5 76t65.5 54.5t98.5 20.5q62 0 102.5 -22.5t65.5 -56.5v47q0 10 6 16t16 6h17q10 0 16 -6t6 -16v-666q0 -10 -6 -16
t-16 -6h-17zM276 48q56 0 91 26t52.5 65t18.5 79q1 15 1 39t-1 39q-1 41 -18 81.5t-52 67.5t-92 27q-58 0 -92.5 -26t-49.5 -68t-17 -90q-1 -28 0 -56q2 -48 17 -90t49.5 -68t92.5 -26z" />
    <glyph glyph-name="r" unicode="r" horiz-adv-x="348" 
d="M103 0q-10 0 -16 6t-6 16v475q0 10 6 16.5t16 6.5h16q10 0 16.5 -6.5t6.5 -16.5v-46q18 35 52 52t84 17h37q10 0 16 -6t6 -16v-14q0 -10 -6 -16t-16 -6h-43q-60 0 -95 -35t-35 -95v-310q0 -10 -6.5 -16t-16.5 -6h-16z" />
    <glyph glyph-name="s" unicode="s" horiz-adv-x="492" 
d="M246 -10q-52 0 -89.5 14t-61.5 33.5t-35.5 38.5t-12.5 29q-1 11 7 16.5t15 5.5h15q6 0 10.5 -2t11.5 -11q13 -17 30 -32.5t43.5 -24.5t66.5 -9q60 0 99 23t39 68q0 28 -15.5 45t-52.5 30t-100 27q-63 15 -96.5 36t-45.5 48.5t-12 59.5q0 35 20 68.5t59.5 55t99.5 21.5
q49 0 83.5 -13t56.5 -31.5t32.5 -36.5t11.5 -29q1 -10 -6 -16t-16 -6h-15q-8 0 -13 3.5t-9 9.5q-10 16 -24 30t-37.5 22.5t-63.5 8.5q-60 0 -89 -24.5t-29 -62.5q0 -22 12 -38.5t45 -30t96 -28.5q64 -14 101 -34.5t52.5 -48.5t15.5 -66q0 -40 -22.5 -74t-67 -54.5
t-109.5 -20.5z" />
    <glyph glyph-name="t" unicode="t" horiz-adv-x="359" 
d="M256 0q-52 0 -82 22t-42 60t-12 85v295h-78q-10 0 -16 6t-6 16v14q0 10 6 16t16 6h78v168q0 10 6 16t16 6h17q10 0 16 -6t6 -16v-168h124q10 0 16 -6t6 -16v-14q0 -10 -6 -16t-16 -6h-124v-291q0 -53 17.5 -83t62.5 -30h54q10 0 16 -6t6 -16v-14q0 -10 -6 -16t-16 -6h-59
z" />
    <glyph glyph-name="u" unicode="u" horiz-adv-x="585" 
d="M276 -10q-68 0 -112.5 29.5t-66 80.5t-21.5 114v284q0 10 6 16t16 6h17q10 0 16 -6t6 -16v-279q0 -171 149 -171q71 0 114 45.5t43 125.5v279q0 10 6 16t16 6h17q10 0 16 -6t6 -16v-476q0 -10 -6 -16t-16 -6h-17q-10 0 -16 6t-6 16v47q-27 -35 -64.5 -57t-102.5 -22z" />
    <glyph glyph-name="v" unicode="v" horiz-adv-x="536" 
d="M260 0q-16 0 -24.5 7t-13.5 18l-184 464q-2 6 -2 11q0 8 6 14t14 6h21q10 0 15.5 -5.5t6.5 -9.5l169 -432l169 432q2 4 7 9.5t15 5.5h21q8 0 14 -6t6 -14q0 -5 -2 -11l-184 -464q-4 -11 -13 -18t-25 -7h-16z" />
    <glyph glyph-name="w" unicode="w" horiz-adv-x="786" 
d="M216 0q-13 0 -20 6t-12 19l-141 464q-2 6 -2 11q0 8 6 14t14 6h19q10 0 15.5 -5.5t6.5 -9.5l123 -416l131 411q2 6 8 13t19 7h20q13 0 19.5 -7t7.5 -13l131 -411l123 416q1 4 6.5 9.5t15.5 5.5h19q8 0 14 -6t6 -14q0 -5 -2 -11l-141 -464q-4 -13 -11 -19t-21 -6h-17
q-13 0 -21.5 6t-12.5 19l-126 394l-126 -394q-4 -13 -12 -19t-22 -6h-17z" />
    <glyph glyph-name="x" unicode="x" horiz-adv-x="518" 
d="M55 0q-8 0 -14 6t-6 14q0 4 1.5 8.5t6.5 11.5l176 226l-167 214q-5 7 -6.5 11.5t-1.5 8.5q0 8 6 14t14 6h21q10 0 15.5 -5t9.5 -10l150 -193l150 192q5 5 10 10.5t15 5.5h20q8 0 14 -6t6 -14q0 -4 -1.5 -8.5t-6.5 -11.5l-169 -217l176 -223q5 -7 6.5 -11.5t1.5 -8.5
q0 -8 -6 -14t-14 -6h-21q-10 0 -15.5 5t-9.5 10l-158 202l-158 -202q-4 -5 -9.5 -10t-15.5 -5h-20z" />
    <glyph glyph-name="y" unicode="y" horiz-adv-x="532" 
d="M169 -190q-8 0 -14 6t-6 14q0 4 1.5 8.5t4.5 11.5l77 180l-191 450q-6 15 -6 20q0 8 6 14t14 6h21q10 0 15.5 -4.5t7.5 -10.5l168 -396l172 396q3 6 8 10.5t15 4.5h20q8 0 14 -6t6 -14q0 -5 -6 -20l-284 -655q-3 -6 -8 -10.5t-15 -4.5h-20z" />
    <glyph glyph-name="z" unicode="z" horiz-adv-x="490" 
d="M64 0q-10 0 -16 6t-6 16v17q0 8 4.5 16t9.5 15l294 392h-276q-10 0 -16 6t-6 16v14q0 10 6 16t16 6h336q10 0 16 -6t6 -16v-17q0 -8 -4.5 -15.5t-9.5 -15.5l-292 -392h304q10 0 16 -6t6 -16v-14q0 -10 -6 -16t-16 -6h-366z" />
    <glyph glyph-name="braceleft" unicode="{" horiz-adv-x="344" 
d="M290 -159q-59 0 -93 19.5t-50 57t-20.5 91t-4.5 122.5q0 57 -14 85t-42 47l-5 3q-24 16 -24 37v12q0 21 24 37l6 4q28 20 41.5 47.5t13.5 83.5q0 69 4.5 122.5t20.5 90.5t50 56.5t93 19.5h5q10 0 16 -6t6 -16v-14q0 -10 -6 -16t-16 -6h-5q-51 0 -73.5 -26t-28 -81
t-5.5 -145q0 -58 -18 -96t-57 -61q26 -15 42.5 -37t24.5 -51.5t8 -68.5q0 -89 5.5 -145t28 -81.5t73.5 -26.5h5q10 0 16 -6t6 -16v-14q0 -10 -6 -16t-16 -6h-5z" />
    <glyph glyph-name="bar" unicode="|" horiz-adv-x="219" 
d="M101 -208q-10 0 -16 6t-6 16v1060q0 10 6 16t16 6h17q10 0 16 -6t6 -16v-1060q0 -10 -6 -16t-16 -6h-17z" />
    <glyph glyph-name="braceright" unicode="}" horiz-adv-x="344" 
d="M54 776q59 0 93 -19.5t50 -57t20.5 -91t4.5 -122.5q0 -57 14 -84.5t42 -47.5l5 -3q24 -16 24 -37v-12q0 -21 -24 -37l-6 -4q-28 -19 -41.5 -47t-13.5 -84q0 -69 -4.5 -122.5t-20.5 -90.5t-50 -56.5t-93 -19.5h-5q-10 0 -16 6t-6 16v14q0 10 6 16t16 6h5q52 1 74 26.5
t27.5 81t5.5 144.5q0 59 18 96.5t57 60.5q-26 16 -42.5 37.5t-24.5 51t-8 68.5q0 90 -5.5 145.5t-27.5 81.5t-74 26h-5q-10 0 -16 6t-6 16v14q0 10 6 16t16 6h5z" />
    <glyph glyph-name="asciitilde" unicode="~" horiz-adv-x="563" 
d="M94 252q-7 0 -12 5t-5 12v23q0 13 16 25.5t41 21t53 8.5q32 0 55.5 -5.5t44.5 -12t42.5 -12t48.5 -5.5q31 0 49 12t30 19q4 2 7 3t6 1q8 0 12.5 -4.5t4.5 -12.5v-23q0 -12 -16 -25t-41 -21.5t-53 -8.5q-30 0 -53.5 5.5t-44 12t-43 12t-50.5 5.5q-31 0 -49 -12t-30 -19
q-4 -1 -7 -2.5t-6 -1.5z" />
    <glyph glyph-name="uni00A0" unicode="&#xa0;" horiz-adv-x="258" 
 />
    <glyph glyph-name="exclamdown" unicode="&#xa1;" horiz-adv-x="217" 
d="M117 376q10 0 16 -6t6 -16v-513q0 -10 -6 -16t-16 -6h-17q-10 0 -16 6t-6 16v513q0 10 6 16t16 6h17zM128 519q10 0 16 -6t6 -16v-38q0 -10 -6 -16.5t-16 -6.5h-38q-10 0 -16.5 6.5t-6.5 16.5v38q0 10 6.5 16t16.5 6h38z" />
    <glyph glyph-name="cent" unicode="&#xa2;" horiz-adv-x="544" 
d="M266 -100q-10 0 -16 6t-6 16v70q-85 9 -133 69t-50 159q-1 15 -1 40t1 40q2 98 50 158.5t133 69.5v60q0 10 6 16t16 6h16q10 0 16 -6t6 -16v-59q51 -5 86.5 -23t57 -42.5t31 -49.5t10.5 -43q1 -10 -6 -16t-16 -6h-14q-10 0 -14.5 4.5t-9.5 16.5q-21 57 -61.5 79.5
t-93.5 22.5q-61 0 -105 -41.5t-47 -135.5q-2 -35 0 -70q3 -94 47 -135.5t105 -41.5q53 0 93.5 22.5t61.5 79.5q5 12 9.5 16.5t14.5 4.5h14q9 0 16 -6t6 -16q-1 -18 -10.5 -43t-31 -49.5t-57 -42.5t-86.5 -23v-69q0 -10 -6 -16t-16 -6h-16z" />
    <glyph glyph-name="sterling" unicode="&#xa3;" horiz-adv-x="658" 
d="M449 -5q-38 0 -66.5 12t-51 29.5t-43 35t-41.5 29.5t-47 12q-47 0 -63 -26t-22 -66q-1 -5 -4 -13t-17 -8h-23q-9 0 -14 6t-5 13q2 71 36 107.5t82 44.5q-1 34 -7 69t-12 75h-77q-10 0 -16 6t-6 16v16q0 10 6 16t16 6h70q-1 19 -2 39t-1 42q0 67 23.5 125t73.5 94t128 36
q75 0 125 -30.5t75.5 -80t26.5 -105.5q0 -9 -6 -15.5t-15 -6.5h-18q-7 0 -14 6t-9 15q-13 74 -53 115.5t-113 41.5q-80 0 -120.5 -55t-40.5 -141q0 -22 1 -41.5t3 -38.5h211q10 0 16 -6t6 -16v-16q0 -10 -6 -16t-16 -6h-202q5 -36 10.5 -71.5t6.5 -74.5q37 -7 64 -25
t49.5 -38.5t46.5 -35.5t55 -15q47 0 63.5 27t22.5 67q1 5 6.5 12t12.5 7h25q9 0 14 -5.5t5 -13.5q-1 -50 -20 -84.5t-52.5 -52t-76.5 -17.5z" />
    <glyph glyph-name="currency" unicode="&#xa4;" horiz-adv-x="578" 
d="M90 89l-12 12q-7 7 -7 15.5t7 15.5l43 42q-42 54 -42 126t42 126l-43 42q-7 7 -7 15.5t7 15.5l12 12q7 7 15.5 7t15.5 -7l42 -43q26 20 58 31t68 11q35 0 67.5 -11t58.5 -31l42 43q7 7 15.5 7t15.5 -7l12 -12q7 -7 7 -15.5t-7 -15.5l-43 -42q20 -26 31 -58.5t11 -67.5
q0 -36 -11 -68t-31 -58l43 -42q7 -7 7 -15.5t-7 -15.5l-12 -12q-7 -7 -15.5 -7t-15.5 7l-42 43q-54 -42 -126 -42t-126 42l-42 -43q-7 -7 -15.5 -7t-15.5 7zM289 150q42 0 76 20t54 54.5t20 75.5q0 42 -20 76t-54 54t-76 20t-76 -20t-54 -54t-20 -76q0 -41 20 -75.5
t54 -54.5t76 -20z" />
    <glyph glyph-name="yen" unicode="&#xa5;" horiz-adv-x="586" 
d="M283 0q-10 0 -16 6t-6 16v272l-221 373q-1 3 -2.5 6t-1.5 7q0 8 6 14t14 6h22q7 0 13 -3.5t10 -11.5l192 -324l192 324q5 8 10.5 11.5t12.5 3.5h22q8 0 14 -6t6 -14q0 -4 -1 -7t-3 -6l-221 -373v-272q0 -10 -6 -16t-17 -6h-19zM113 123q-10 0 -16 6t-6 16v16q0 10 6 16
t16 6h360q10 0 16 -6t6 -16v-16q0 -10 -6 -16t-16 -6h-360zM113 243q-10 0 -16 6t-6 16v16q0 10 6 16t16 6h360q10 0 16 -6t6 -16v-16q0 -10 -6 -16t-16 -6h-360z" />
    <glyph glyph-name="brokenbar" unicode="&#xa6;" horiz-adv-x="225" 
d="M104 475q-10 0 -16 6t-6 16v310q0 10 6 16t16 6h17q10 0 16 -6t6 -16v-310q0 -10 -6 -16t-16 -6h-17zM104 0q-10 0 -16 6t-6 16v310q0 10 6 16t16 6h17q10 0 16 -6t6 -16v-310q0 -10 -6 -16t-16 -6h-17z" />
    <glyph glyph-name="section" unicode="&#xa7;" horiz-adv-x="553" 
d="M272 -140q-51 0 -88 12.5t-60.5 33t-35 44t-12.5 44.5q-1 9 5 14.5t16 5.5h18q8 0 14 -4t10 -16q7 -18 19.5 -35.5t39.5 -29t74 -11.5q63 0 92.5 30.5t29.5 73.5q0 31 -12 49t-41.5 31.5t-84.5 29.5q-75 23 -121 48.5t-67.5 61t-21.5 88.5q0 43 23 74.5t55 55.5
q-15 18 -20.5 40t-5.5 48q0 39 20 76.5t61 61.5t102 24q69 0 111.5 -21.5t63 -52.5t21.5 -60q1 -9 -5 -14.5t-16 -5.5h-18q-8 0 -13.5 4t-10.5 16q-6 18 -19 35.5t-39.5 29t-74.5 11.5q-63 0 -92.5 -30.5t-29.5 -73.5q0 -31 12 -49t42 -31t84 -30q75 -23 121 -48.5t67.5 -61
t21.5 -88.5q0 -43 -23 -74.5t-55 -55.5q15 -18 20.5 -40t5.5 -48q0 -39 -20 -76t-60.5 -61.5t-102.5 -24.5zM382 147q31 20 47.5 41t16.5 53q0 30 -13 54t-50 45t-111 43q-32 10 -57 20t-44 20q-31 -20 -47.5 -41t-16.5 -53q0 -30 13 -54t50.5 -45t110.5 -43q64 -19 101 -40
z" />
    <glyph glyph-name="dieresis" unicode="&#xa8;" horiz-adv-x="376" 
d="M245 627q-10 0 -16 6t-6 16v38q0 10 6 16.5t16 6.5h38q10 0 16.5 -6.5t6.5 -16.5v-38q0 -10 -6.5 -16t-16.5 -6h-38zM92 627q-10 0 -16 6t-6 16v38q0 10 6 16.5t16 6.5h38q10 0 16.5 -6.5t6.5 -16.5v-38q0 -10 -6.5 -16t-16.5 -6h-38z" />
    <glyph glyph-name="copyright" unicode="&#xa9;" horiz-adv-x="834" 
d="M417 -10q-75 0 -140 28t-114.5 77.5t-77.5 114.5t-28 140t28 140t77.5 114.5t114.5 77.5t140 28t140 -28t114.5 -77.5t77.5 -114.5t28 -140t-28 -140t-77.5 -114.5t-114.5 -77.5t-140 -28zM417 45q62 0 116.5 24t95.5 66t64.5 97.5t23.5 117.5t-23.5 117.5t-64.5 97.5
t-95.5 66t-116.5 24t-116.5 -24t-95.5 -66t-64.5 -97.5t-23.5 -117.5t23.5 -117.5t64.5 -97.5t95.5 -66t116.5 -24zM417 158q-50 0 -86 22t-55 58t-21 79q0 10 -0.5 22t0 24t0.5 22q2 43 21 79t55 58t86 22q54 0 89 -17t52 -41.5t17 -48.5q0 -10 -6 -16t-16 -6h-17
q-10 0 -15 6t-8 13q-9 24 -31 38t-65 14q-40 0 -61.5 -16.5t-30 -40t-9.5 -44.5q0 -10 -0.5 -22t0 -24t0.5 -22q1 -20 9.5 -44t30 -40.5t61.5 -16.5q43 0 65 14t31 38q3 8 8 13.5t15 5.5h17q10 0 16 -6t6 -16q0 -23 -17 -48t-52 -42t-89 -17z" />
    <glyph glyph-name="ordfeminine" unicode="&#xaa;" horiz-adv-x="367" 
d="M151 429q-43 0 -68 22.5t-25 53.5q0 40 30.5 65t82.5 32l63 9q0 3 -2.5 12t-13 16.5t-34.5 7.5q-22 0 -33 -5t-18.5 -10t-18.5 -5h-17q-10 0 -16.5 3.5t-5.5 13.5t15.5 24.5t39.5 25.5t57 11q50 0 79 -30t29 -77v-142q0 -10 -6 -16t-16 -6h-17q-10 0 -16 6t-6 16v7
q-8 -14 -32 -24t-51 -10zM160 483q41 0 57.5 23t16.5 53l-47 -7q-42 -6 -54.5 -18t-12.5 -27q0 -11 12 -17.5t28 -6.5z" />
    <glyph glyph-name="guillemotleft" unicode="&#xab;" horiz-adv-x="603" 
d="M525 92q-6 0 -12 3.5t-12 8.5l-188 182q-10 10 -13 18.5t-4 16.5v16q1 8 4 16.5t13 18.5l188 182q6 5 12 8.5t12 3.5q9 0 14.5 -5.5t5.5 -14.5v-17q0 -12 -4 -19t-14 -17l-169 -164l169 -164q10 -10 14 -17t4 -19v-17q0 -9 -5.5 -14.5t-14.5 -5.5zM276 92q-6 0 -12 3.5
t-12 8.5l-188 182q-10 10 -13 18.5t-4 16.5v16q1 8 4 16.5t13 18.5l188 182q6 5 12 8.5t12 3.5q9 0 14.5 -5.5t5.5 -14.5v-17q0 -12 -4 -19t-14 -17l-169 -164l169 -164q10 -10 14 -17t4 -19v-17q0 -9 -5.5 -14.5t-14.5 -5.5z" />
    <glyph glyph-name="logicalnot" unicode="&#xac;" horiz-adv-x="581" 
d="M465 170q-10 0 -16 6t-6 16v100h-345q-10 0 -16 6t-6 16v14q0 10 6 16t16 6h385q10 0 16 -6t6 -16v-136q0 -10 -6 -16t-16 -6h-18z" />
    <glyph glyph-name="uni00AD" unicode="&#xad;" horiz-adv-x="600" 
d="M96 271q-10 0 -16 6t-6 16v14q0 10 6 16t16 6h295q10 0 16 -6t6 -16v-14q0 -10 -6 -16t-16 -6h-295z" />
    <glyph glyph-name="registered" unicode="&#xae;" horiz-adv-x="834" 
d="M417 -10q-75 0 -140 28t-114.5 77.5t-77.5 114.5t-28 140t28 140t77.5 114.5t114.5 77.5t140 28t140 -28t114.5 -77.5t77.5 -114.5t28 -140t-28 -140t-77.5 -114.5t-114.5 -77.5t-140 -28zM417 45q62 0 116.5 24t95.5 66t64.5 97.5t23.5 117.5t-23.5 117.5t-64.5 97.5
t-95.5 66t-116.5 24t-116.5 -24t-95.5 -66t-64.5 -97.5t-23.5 -117.5t23.5 -117.5t64.5 -97.5t95.5 -66t116.5 -24zM304 168q-22 0 -22 22v322q0 22 22 22h128q38 0 69 -11t49 -36.5t18 -68.5q0 -40 -20 -66.5t-52 -38.5l69 -109q2 -2 3 -5.5t1 -8.5q0 -8 -5.5 -15t-16.5 -7
h-14q-10 0 -17 5t-12 14l-72 115h-89v-112q0 -22 -22 -22h-17zM343 360h87q46 0 61.5 18t15.5 40q0 23 -15.5 40.5t-61.5 17.5h-87v-116z" />
    <glyph glyph-name="macron" unicode="&#xaf;" horiz-adv-x="383" 
d="M92 622q-10 0 -16 6t-6 16v14q0 10 6 16t16 6h199q10 0 16 -6t6 -16v-14q0 -10 -6 -16t-16 -6h-199z" />
    <glyph glyph-name="degree" unicode="&#xb0;" horiz-adv-x="378" 
d="M189 448q-37 0 -68 17t-49.5 47t-18.5 67q0 38 18.5 67.5t49.5 46.5t68 17q38 0 68.5 -17t49 -46.5t18.5 -67.5q0 -37 -18.5 -67t-49 -47t-68.5 -17zM189 503q34 0 55 21t21 55t-21 55t-55 21t-55 -21t-21 -55t21 -55t55 -21z" />
    <glyph glyph-name="plusminus" unicode="&#xb1;" horiz-adv-x="556" 
d="M270 193q-10 0 -16 6t-6 16v158h-157q-10 0 -16 6t-6 16v14q0 10 6 16t16 6h157v154q0 10 6 16t16 6h16q10 0 16 -6t6 -16v-154h157q10 0 16 -6t6 -16v-14q0 -10 -6 -16t-16 -6h-157v-158q0 -10 -6 -16t-16 -6h-16zM101 0q-10 0 -16 6t-6 16v14q0 10 6 16t16 6h354
q10 0 16 -6t6 -16v-14q0 -10 -6 -16t-16 -6h-354z" />
    <glyph glyph-name="uni00B2" unicode="&#xb2;" horiz-adv-x="335" 
d="M53 350q-22 0 -22 22v17q0 8 5 15.5t19 17.5q64 46 102.5 73.5t56 49.5t17.5 49q0 26 -19.5 41t-45.5 15q-27 0 -40.5 -8.5t-19 -18.5t-8.5 -16q-6 -11 -11 -14.5t-13 -3.5h-15q-20 0 -18 19q2 24 19 46t45 36.5t61 14.5q57 0 90 -33.5t33 -77.5q0 -37 -16 -64.5t-51 -56
t-92 -67.5h152q22 0 22 -22v-12q0 -22 -22 -22h-229z" />
    <glyph glyph-name="uni00B3" unicode="&#xb3;" horiz-adv-x="336" 
d="M163 345q-44 0 -73 11.5t-44 29.5t-17 39q-1 10 6 14.5t11 4.5h20q7 0 12.5 -4.5t9.5 -9.5q6 -7 12.5 -14t20.5 -11t42 -4q33 0 55.5 13t22.5 37q0 29 -20 39.5t-52 10.5h-40q-10 0 -16 6t-6 16v17q0 7 3.5 12.5t8.5 10.5l89 81h-142q-22 0 -22 22v12q0 22 22 22h198
q22 0 22 -22v-12q0 -11 -2.5 -19.5t-13.5 -19.5l-76 -70q57 -3 81 -33.5t24 -72.5q0 -49 -35 -77.5t-101 -28.5z" />
    <glyph glyph-name="acute" unicode="&#xb4;" horiz-adv-x="311" 
d="M86 595q-16 0 -16 16q0 8 5 13l69 83q8 10 15 14t22 4h41q19 0 19 -19q0 -7 -5 -12l-109 -89q-8 -7 -14.5 -8.5t-16.5 -1.5h-10z" />
    <glyph glyph-name="uni00B5" unicode="&#xb5;" horiz-adv-x="586" 
d="M98 -200q-10 0 -16 6t-6 16v676q0 10 6 16t16 6h17q10 0 16 -6t6 -16v-279q0 -53 23.5 -91.5t59.5 -59t73 -20.5q38 0 73.5 20.5t59 59t23.5 91.5v279q0 10 6 16t16 6h17q10 0 16 -6t6 -16v-476q0 -10 -6 -16t-16 -6h-17q-10 0 -16 6t-6 16v47q-25 -34 -61 -56.5
t-95 -22.5q-58 0 -94 22.5t-62 56.5v-247q0 -10 -6 -16t-16 -6h-17z" />
    <glyph glyph-name="paragraph" unicode="&#xb6;" horiz-adv-x="491" 
d="M231 -100q-10 0 -16 6t-6 16v424q-49 0 -89 24t-64 64t-24 89t24 89t64 64t89 24h179q10 0 16 -6t6 -16v-756q0 -10 -6 -16t-16 -6h-17q-10 0 -16 6t-6 16v720h-79v-720q0 -10 -6 -16t-16 -6h-17z" />
    <glyph glyph-name="periodcentered" unicode="&#xb7;" horiz-adv-x="330" 
d="M165 200q-27 0 -50 13.5t-36.5 36.5t-13.5 50q0 28 13.5 50.5t36.5 36t50 13.5q28 0 50.5 -13.5t36 -36t13.5 -50.5q0 -27 -13.5 -50t-36 -36.5t-50.5 -13.5z" />
    <glyph glyph-name="cedilla" unicode="&#xb8;" horiz-adv-x="320" 
d="M156 -220q-28 1 -49.5 10.5t-31 21.5t-1.5 19l14 13q9 8 16 3t18.5 -13t33.5 -8q17 0 30 10.5t13 29.5q0 18 -13 28t-30 10q-16 0 -26.5 -4.5t-18 -6t-15.5 6.5l-16 17q-5 6 -1.5 14.5t6.5 15.5l35 80h58l-42 -85q6 4 16.5 6t21.5 2q33 0 54.5 -23t21.5 -59t-23.5 -62.5
t-70.5 -25.5z" />
    <glyph glyph-name="uni00B9" unicode="&#xb9;" horiz-adv-x="242" 
d="M146 350q-22 0 -22 22v251l-63 -47q-7 -5 -16 -4t-15 9l-7 10q-6 8 -4.5 16.5t8.5 14.5l96 71q10 7 23 7h14q22 0 22 -22v-306q0 -22 -22 -22h-14z" />
    <glyph glyph-name="ordmasculine" unicode="&#xba;" horiz-adv-x="361" 
d="M181 429q-52 0 -84.5 27.5t-35.5 83.5q-1 8 -1 27.5t1 26.5q3 56 38 83.5t82 27.5t82 -27.5t38 -83.5q1 -7 1 -26.5t-1 -27.5q-3 -56 -35.5 -83.5t-84.5 -27.5zM181 487q28 0 43 15t16 43q1 8 1 22.5t-1 21.5q-1 26 -16 42t-43 16t-42.5 -16t-16.5 -42q-1 -7 -1 -21.5
t1 -22.5q2 -28 16.5 -43t42.5 -15z" />
    <glyph glyph-name="guillemotright" unicode="&#xbb;" horiz-adv-x="603" 
d="M327 92q-9 0 -14.5 5.5t-5.5 14.5v17q0 12 4 19t14 17l169 164l-169 164q-10 10 -14 17t-4 19v17q0 9 5.5 14.5t14.5 5.5q6 0 12 -3.5t12 -8.5l188 -182q10 -10 13 -18.5t4 -16.5v-16q-1 -8 -4 -16.5t-13 -18.5l-188 -182q-6 -5 -12 -8.5t-12 -3.5zM78 92q-9 0 -14.5 5.5
t-5.5 14.5v17q0 12 4 19t14 17l169 164l-169 164q-10 10 -14 17t-4 19v17q0 9 5.5 14.5t14.5 5.5q6 0 12 -3.5t12 -8.5l188 -182q10 -10 13 -18.5t4 -16.5v-16q-1 -8 -4 -16.5t-13 -18.5l-188 -182q-6 -5 -12 -8.5t-12 -3.5z" />
    <glyph glyph-name="onequarter" unicode="&#xbc;" horiz-adv-x="746" 
d="M146 350q-22 0 -22 22v251l-63 -47q-7 -5 -16 -4t-15 9l-7 10q-6 8 -4.5 16.5t8.5 14.5l96 71q10 7 23 7h14q22 0 22 -22v-306q0 -22 -22 -22h-14zM72 0q-20 0 -20 20q0 6 4 11l493 650q7 9 13.5 14t19.5 5h17q20 0 20 -20q0 -6 -4 -11l-493 -650q-7 -9 -13 -14t-20 -5
h-17zM629 0q-22 0 -22 22v53h-147q-22 0 -22 22v13q0 2 1.5 10t10.5 20l137 192q8 11 15.5 14.5t14.5 3.5h26q22 0 22 -22v-197h35q22 0 22 -22v-12q0 -22 -22 -22h-35v-53q0 -22 -22 -22h-14zM513 131h94v135z" />
    </font>
</defs>
</svg>
